<svg xmlns="http://www.w3.org/2000/svg" viewBox="0 0 215.99305 215.99305"><defs><style>.e542f51f-c99f-4566-8a13-2e77e4135e8c{isolation:isolate;}.ba7ae8cb-99bc-4f3a-94ed-7c6d3c720504{fill:#ffd816;}.b5994526-d74b-463a-9ab2-a9d36006b245{fill:#ffcd0b;}.ed09705e-86c4-4931-8df4-386d56d109a3{fill:#fcbe19;}.b3455aaf-72d5-4787-8a29-94baa30dc21a{fill:#ffdc54;}.fcf3ce18-8154-4987-b09f-c510c151c1cd{mix-blend-mode:overlay;}.b78c0c2d-95aa-4180-811a-9830ca23f1c3{fill:#fdec45;}.f169d5ec-097b-4d6f-90c0-3609bb63d8ef{fill:#f59e04;}.b9f94b2c-b043-478a-a91c-6b33bc4136a4{fill:#87a1ac;}.abf24b46-34fd-4d32-8f81-aadb93978251{fill:#fcbf02;}.b0a1ed7c-34b4-49d9-b038-23d1d2167375{fill:#e8f2ed;}.eed426e9-52f3-41f1-ae82-5daa17de9761{fill:#394c58;}</style></defs><g class="e542f51f-c99f-4566-8a13-2e77e4135e8c"><g id="bd70df44-754e-4c40-aad8-d69f82196b11" data-name="Layer 1"><circle class="ba7ae8cb-99bc-4f3a-94ed-7c6d3c720504" cx="107.99652" cy="107.99652" r="107.99652"/><circle class="b5994526-d74b-463a-9ab2-a9d36006b245" cx="107.99652" cy="107.99652" r="91.65524"/><path class="ed09705e-86c4-4931-8df4-386d56d109a3" d="M345.59087,342.71694A91.66884,91.66884,0,0,1,220.40263,470.20659,91.66274,91.66274,0,1,0,345.59087,342.71694Z" transform="translate(-189.64148 -312.94848)"/><path class="b3455aaf-72d5-4787-8a29-94baa30dc21a" d="M222.03849,429.33141a80.90636,80.90636,0,0,1,145.04267-49.32049,80.91342,80.91342,0,1,0-134.292,89.64575A80.53546,80.53546,0,0,1,222.03849,429.33141Z" transform="translate(-189.64148 -312.94848)"/><g class="fcf3ce18-8154-4987-b09f-c510c151c1cd"><path class="b78c0c2d-95aa-4180-811a-9830ca23f1c3" d="M225.084,466.166l-11.89453,6.78808a2.30735,2.30735,0,0,1-1.63134.3711,1.62051,1.62051,0,0,1-1.08643-.82715,1.67848,1.67848,0,0,1-.17969-1.37891,2.28871,2.28871,0,0,1,1.15186-1.22363l11.895-6.78809a2.31045,2.31045,0,0,1,1.64453-.37207,1.67186,1.67186,0,0,1,1.10107.85352,1.61867,1.61867,0,0,1,.15137,1.35351A2.31342,2.31342,0,0,1,225.084,466.166Z" transform="translate(-189.64148 -312.94848)"/><path class="b78c0c2d-95aa-4180-811a-9830ca23f1c3" d="M215.44092,443.05566l-13.3291,3.14551a2.30082,2.30082,0,0,1-1.66944-.10547,1.61926,1.61926,0,0,1-.8081-1.10058,1.6795,1.6795,0,0,1,.21777-1.373,2.28487,2.28487,0,0,1,1.45068-.84766l13.32959-3.14648a2.31009,2.31009,0,0,1,1.68213.1084,1.66709,1.66709,0,0,1,.81494,1.12988,1.61654,1.61654,0,0,1-.23779,1.34082A2.31189,2.31189,0,0,1,215.44092,443.05566Z" transform="translate(-189.64148 -312.94848)"/><path class="b78c0c2d-95aa-4180-811a-9830ca23f1c3" d="M200.98975,405.99121l-.35254,3.8252,12.57519,1.15918a2.32411,2.32411,0,0,1,1.5669.63281,1.63057,1.63057,0,0,1,.41015,1.2998,1.65353,1.65353,0,0,1-.64843,1.22022,2.30705,2.30705,0,0,1-1.65088.34228l-12.57471-1.15918-.353,3.82569a1.94192,1.94192,0,0,1-.51855,1.29785,1.34714,1.34714,0,0,1-1.085.34082,1.33281,1.33281,0,0,1-1.021-.55274,1.97777,1.97777,0,0,1-.26807-1.35253l1.02735-11.146a1.96944,1.96944,0,0,1,.52588-1.31494,1.35547,1.35547,0,0,1,1.09179-.34619,1.33059,1.33059,0,0,1,1.00342.54492A1.99324,1.99324,0,0,1,200.98975,405.99121Z" transform="translate(-189.64148 -312.94848)"/><path class="b78c0c2d-95aa-4180-811a-9830ca23f1c3" d="M208.65137,377.37305l5.416,2.79541-3.23584-9.44971a6.29285,6.29285,0,0,1-.29638-1.10645,1.57262,1.57262,0,0,1,.20556-.9414,1.70849,1.70849,0,0,1,.958-.88672,1.43929,1.43929,0,0,1,1.1792.08105,2.15968,2.15968,0,0,1,.99463,1.40772l1.64062,5.66357,8.54248-1.14257a8.90655,8.90655,0,0,1,1.502-.10547,2.50619,2.50619,0,0,1,1.07324.26025,1.33715,1.33715,0,0,1,.68652.86816,1.7422,1.7422,0,0,1-.189,1.29688,2.08706,2.08706,0,0,1-.82862.91992,2.6831,2.6831,0,0,1-1.10156.312q-.61083.04542-1.104.0708l-7.59863.76221,1.13378,3.82764,3.19239,1.64746a2.287,2.287,0,0,1,1.21,1.18506,1.68287,1.68287,0,0,1-.11817,1.37988,1.71848,1.71848,0,0,1-.60791.66064,1.66047,1.66047,0,0,1-.86279.2754,2.08981,2.08981,0,0,1-.77734-.17432q-.40577-.16992-1.14356-.55029l-11.48535-5.92725a2.36778,2.36778,0,0,1-1.208-1.15039,1.60909,1.60909,0,0,1,.11035-1.37744,1.67951,1.67951,0,0,1,1.05909-.90137A2.28854,2.28854,0,0,1,208.65137,377.37305Z" transform="translate(-189.64148 -312.94848)"/></g><path class="b78c0c2d-95aa-4180-811a-9830ca23f1c3" d="M374.93555,375.72656l11.8955-6.78808a2.30769,2.30769,0,0,1,1.63086-.3711,1.62278,1.62278,0,0,1,1.08692.82715,1.68177,1.68177,0,0,1,.17871,1.37891,2.28453,2.28453,0,0,1-1.15137,1.22412l-11.89453,6.7876a2.30934,2.30934,0,0,1-1.64453.37207,1.67051,1.67051,0,0,1-1.10156-.853,1.61959,1.61959,0,0,1-.15137-1.354A2.31415,2.31415,0,0,1,374.93555,375.72656Z" transform="translate(-189.64148 -312.94848)"/><path class="b78c0c2d-95aa-4180-811a-9830ca23f1c3" d="M384.57813,398.83643l13.3291-3.14649a2.30745,2.30745,0,0,1,1.66992.10547,1.6231,1.6231,0,0,1,.80859,1.10059,1.67834,1.67834,0,0,1-.21875,1.37353,2.28541,2.28541,0,0,1-1.45019.84815l-13.3291,3.146a2.3067,2.3067,0,0,1-1.68262-.1084,1.66929,1.66929,0,0,1-.81543-1.12939,1.61961,1.61961,0,0,1,.23828-1.34131A2.30949,2.30949,0,0,1,384.57813,398.83643Z" transform="translate(-189.64148 -312.94848)"/><path class="b78c0c2d-95aa-4180-811a-9830ca23f1c3" d="M399.03027,435.90137l.35254-3.82617L386.80762,430.917a2.33113,2.33113,0,0,1-1.56739-.63281,1.63289,1.63289,0,0,1-.41015-1.2998,1.657,1.657,0,0,1,.64844-1.22071,2.30845,2.30845,0,0,1,1.65136-.34179l12.5752,1.15917.35254-3.82617a1.93955,1.93955,0,0,1,.51855-1.29785,1.3511,1.3511,0,0,1,1.085-.34082,1.33166,1.33166,0,0,1,1.02051.55274,1.97625,1.97625,0,0,1,.26856,1.35253L401.92285,436.168a1.96585,1.96585,0,0,1-.52637,1.31445,1.35475,1.35475,0,0,1-1.09082.34668,1.33157,1.33157,0,0,1-1.0039-.54492A1.99187,1.99187,0,0,1,399.03027,435.90137Z" transform="translate(-189.64148 -312.94848)"/><path class="b78c0c2d-95aa-4180-811a-9830ca23f1c3" d="M391.36914,464.52051l-5.416-2.7959,3.23632,9.45019a6.41654,6.41654,0,0,1,.2959,1.10645,1.577,1.577,0,0,1-.20605.94141,1.70721,1.70721,0,0,1-.958.88672,1.44,1.44,0,0,1-1.17871-.08106,2.16128,2.16128,0,0,1-.99512-1.4082l-1.64062-5.66309-8.542,1.14258a8.90529,8.90529,0,0,1-1.50195.10547,2.51343,2.51343,0,0,1-1.07324-.26074,1.33455,1.33455,0,0,1-.68652-.86817,1.742,1.742,0,0,1,.18847-1.29687,2.09077,2.09077,0,0,1,.8291-.91992,2.69849,2.69849,0,0,1,1.10157-.3125c.40722-.0293.77539-.05372,1.10351-.07032l7.59961-.76172-1.13379-3.82812-3.19336-1.64746a2.2881,2.2881,0,0,1-1.21-1.18457,1.68276,1.68276,0,0,1,.11914-1.37989,1.71867,1.71867,0,0,1,.60742-.66113,1.67053,1.67053,0,0,1,.86231-.27539,2.075,2.075,0,0,1,.77734.17481q.40577.16992,1.14356.5498l11.48633,5.92774a2.36727,2.36727,0,0,1,1.207,1.15039,1.60627,1.60627,0,0,1-.11036,1.377,1.6749,1.6749,0,0,1-1.05859.90137A2.28517,2.28517,0,0,1,391.36914,464.52051Z" transform="translate(-189.64148 -312.94848)"/><polygon class="f169d5ec-097b-4d6f-90c0-3609bb63d8ef" points="108.096 74.65 79.724 61.377 79.724 51.711 98.688 40.286 108.025 40.286 108.096 74.65"/><polygon class="f169d5ec-097b-4d6f-90c0-3609bb63d8ef" points="107.897 74.65 136.269 61.377 136.269 51.711 117.305 40.286 107.968 40.286 107.897 74.65"/><path class="f169d5ec-097b-4d6f-90c0-3609bb63d8ef" d="M283.1309,478.5812q.03588-.52058.07167-1.04117c1.67552.2069,1.695.20666,1.67055-1.6844-.0441-3.41413-.09987-6.82826-.18508-10.24154-.017-.67948.275-1.59137-.896-1.72918-.09033-.01063-.19569-.35357-.20128-.54475-.02281-.77953-.00951-1.56012-.00951-2.36463,1.04354.08527,1.07269-.62178,1.07692-1.2527q.03623-5.40687.01421-10.814c-.00068-.26255-.06014-.68219-.222-.76065-.82974-.4021-.64915-1.09733-.60155-1.75883.0477-.6628-.10066-1.48095.23152-1.95279a5.00291,5.00291,0,0,0,.65318-3.14315c.00738-2.72351.00244-5.44706.00244-8.24175.73568.08338,1.23154-.017.91371-.72316-.47905.09346-1.0397.37524-1.28386.2043-.26986-.18892-.27689-.78815-.347-1.21708-.05123-.31359.00444-.64328-.02867-.9615-.12352-1.18692-.06108-2.28474,1.17319-2.93388a.619.619,0,0,0,.2661-.43241,25.21744,25.21744,0,0,0,.20308-3.18832c-.09005-2.14763-.29389-4.29048-.47047-6.70368l-.82772.78081-.5784-.84684q.12016-3.44225.24036-6.88446c1.12231-.013.46272-.948.5349-1.33151a7.06115,7.06115,0,0,0-.30333-2.28524.83857.83857,0,0,0-.04327-.1591q.06011-.59625.11909-1.19274-.0059-.15661-.01136-.31321.02943-.48071.058-.96147-.0043-.691-.009-1.38214c.10824-.9263.21774-1.8524.317-2.77961a.88462.88462,0,0,0-.19056-.06261q.03193-1.09574.064-2.19133-.05964-.28008-.1195-.56044c.0189-.79891.06046-1.59814.04905-2.39662a.97339.97339,0,0,1,.75946-1.09868,4.57112,4.57112,0,0,0,1.1447-.8512c1.16738-.50155,2.325-1.028,3.50773-1.49008a4.54314,4.54314,0,0,1,1.12764-.16505l-.56822,2.34286,1.08152,1.43964-.70722.58974,3.14438,1.96474-.17307.43423-1.98395-.56981.784,1.25165.01509-.01552-1.81838-.29529v1.49077l1.4256-.154-.41293.89922c.62321-.14855,1.22724-.48772,1.70018-.35588.59183.165,1.063.73733,1.61548,1.08777a.61941.61941,0,0,0,.58054-.01222c1.20516-1.13927,2.6546-.3347,3.97489-.51343.90894-.123,1.8411-.07429,2.98939-.10921l-1.06612-1.03276c.30684-.18876.613-.37863.92067-.566.4433-.27,1.03283-.44393.64219-1.18984-.06695-.12784.07094-.36311.04251-.24109.4499.4566.71351.72413.97712.99169.2883.77154.37934.79715,1.14113.16948l-1.154-.15692a6.35476,6.35476,0,0,1,.40324-.654c.237-.301.505-.57753.752-.85577l-1.2655.1476.323-1.27717a10.87146,10.87146,0,0,1-1.36108.54032c-.15164.04073-.38006-.20487-.57333-.31938a2.50725,2.50725,0,0,1,.39835-.413c.79585-.51834,1.60349-1.01855,2.407-1.5251l-.29878-.48542c-.6071.38423-1.20057.79267-1.82562,1.145a7.9122,7.9122,0,0,1-1.56966.72073,10.60347,10.60347,0,0,1-1.16677.0333.67219.67219,0,0,0-.46157.43729c-.01593.16389.20135.4007.37518.5186a3.91018,3.91018,0,0,0,.93846.25536,6.49877,6.49877,0,0,0-.7444.25478c-.26783.14574-.52245.31578-.78253.47577.30372.17985.6152.52151.90961.50736a15.62056,15.62056,0,0,0,2.117-.36806c-.14439.3722-.43343.80663-.78541.86574a15.12546,15.12546,0,0,1-2.74633.1739c-1.37982-.02307-2.75871-.12242-4.13682-.20827a4.49373,4.49373,0,0,1-.77276-.1844l.03872-.39143,4.78183-.24063-.01853-.48817h-4.49765l-.05891-.30642a8.2649,8.2649,0,0,1,4.5255-1.371,19.81386,19.81386,0,0,0-2.17652-.19461c-.30569-.03626-.57678-.36468-.86358-.56039.29519-.1896.57654-.50975.88832-.54286a21.70647,21.70647,0,0,1,2.28253-.026l.013-.2111-3.513-.308,1.00269-1.18c-.74076-.06875-1.31859-.13451-1.89824-.17273-.57653-.038-.95061-.14417-.49437-.824.09063-.13506-.03439-.41505-.063-.65329-.4221.35381-.837.82033-.9324.76215a15.81413,15.81413,0,0,1-1.6499-1.27613q1.08355-.47255,2.16687-.94511l.69483.13251-.00934-.01289c.09359.20684.147.558.28729.5971a2.884,2.884,0,0,0,2.69566-.19616,9.64735,9.64735,0,0,1,2.63691-.863l.36324.01228,1.33627.00649,2.757,1.11651.54341.38161a2.27839,2.27839,0,0,0,.37882-.67984c.109-.70275.14891-1.41622.21592-2.12549l.35049.00745c0,.57549-.03322,1.15334.00739,1.726.06955.98077.10794,1.96023,1.36039,2.30377a19.25376,19.25376,0,0,1,2.29645.94394q.3424.19729.68476.39461c.02418.62394.36679.71343.87624.52286l.24107.10486c.05246,2.23051.12028,4.46081.15261,6.69164.02351,1.62244.02963,3.24629-.01063,4.86816-.03984,1.60491-.20376,3.2078.617,4.70673a2.58506,2.58506,0,0,1,.11837,1.0217c.1,1.58365.18848,3.168.29975,4.75087.00763.10863.16772.20652.2569.30941q.01,3.86329.02005,7.72665a3.22986,3.22986,0,0,1-.40763-.95939c-.10291-1.48637-.12961-2.97789-.21933-4.46541a2.95708,2.95708,0,0,0-.30219-.80988c-.15072.23377-.41674.46051-.43146.70258-.05315.87443-.02719,1.754-.02121,2.63164.01359,1.99083.00524,3.9826.07421,5.97161.01336.38513.2495.97734.53714,1.09439a1.06349,1.06349,0,0,1,.72027,1.23659,2.5468,2.5468,0,0,0,.26727.81893l.01646.422-.37491,1.6895-.987-.06752c-.07281.16534-.15263.26211-.15264.35889-.00039,3.19351-.01306,6.38727.02686,9.58036a1.88482,1.88482,0,0,0,1.92808,1.51573q.06438,1.36266.12848,2.72534-.00205.82275-.0035,1.64543-.02564,2.17848-.05153,4.35707c-.08671.7293-.17314,1.4585-.26537,2.23661-.44347-2.27648.45808-4.67092-.83247-6.82744a1.406,1.406,0,0,0-.37367.83c-.014,3.35217-.03694,6.70515.03737,10.05582.00969.43652.55023.86194.84676,1.29119a3.49381,3.49381,0,0,1,.64528.96964,6.53867,6.53867,0,0,1,.04949,1.49084c.01027,1.30413-.06762,1.36323-1.28326.944a1.97721,1.97721,0,0,0-.2045.58771c-.03825,3.88678-.0854,7.77389-.05437,11.66034.00349.4358.46717.86792.71745,1.30175l1.1043-.65565.3469.43247c.00192.03515.00237.07046.006.10543.18012,1.74438.18015,1.74438,1.89708,1.98232q.56416.17918,1.12829.35825l.58777.14764.38473.21211.01314.01283.18379,2.09677q.09995,2.941.20005,5.88169.03687.70789.07342,1.41629H302.22941V477.37264c-.63516-.42553-.63516-.42553-1.48652.457a3.29308,3.29308,0,0,0-.13841-.97567,1.01016,1.01016,0,0,0-.61976-.5368.94572.94572,0,0,0-.76945.35832,2.069,2.069,0,0,0,1.94265,3.04359V488.656h-.42859c-.05106-.706-.09995-1.41212-.15364-2.11788-.09844-1.29393-.16773-2.59166-.32888-3.87778-.02946-.23508-.43788-.42258-.67137-.632-.16555.2344-.45139.45741-.47481.70526-.08.84625-.041,1.70341-.10938,2.55141-.01691.20988-.2677.40089-.411.60057-.14447-.19813-.39063-.38433-.41552-.5965-.09868-.84139-.10005-1.69427-.2008-2.5353-.02938-.24528-.32567-.68069-.40263-.6604-.37018.09755-.86984.23651-1.01738.52023a3.49027,3.49027,0,0,0-.225,1.45475c-.04843,1.52865-.06247,3.05837-.08985,4.58769h-.4286c-.01386-3.48619-.02141-6.97242-.05121-10.45847a5.58538,5.58538,0,0,0-.2145-1.06334l-.28438.06156c-.59053,3.80368-.23379,7.63918-.3071,11.46025H279.29957a2.02882,2.02882,0,0,1-.10241-.50864c.13391-2.3061.26959-4.61224.43709-6.916a.90707.90707,0,0,1,.37542-.68308,7.88818,7.88818,0,0,1,2.005-.51079C283.09792,479.94721,283.33852,479.70162,283.1309,478.5812Zm16.7252-47.16455.51258-2.79066-.54914-.68677.78527-.84944-1.35221-.5392c-.163.45039-.35672.8927-.47819,1.35406a3.80754,3.80754,0,0,0-.07133.94421c-.00621,1.6077-.00287,3.21544-.00287,4.88758l1.44295-.07606c-.03365-.56929-.04184-1.00076-.09154-1.42739a3.75167,3.75167,0,0,0-.19122-.64458A.25139.25139,0,0,0,299.8561,431.41665Zm-12.90755,17.28718-.28247,1.41306-.02017,1.38069c-.03269,2.63293-.07861,5.26592-.06535,7.8986.00081.15874.52156.49677.71869.44426,1.83625-.48918,3.66424-1.01569,5.47282-1.599.62286-.20091,1.19256-.86,1.77227-.84226,1.31233.04012.99874-.79452,1.06976-1.50644.06353-.63687.19251-1.26722.29262-1.90043l.31981-.01a4.65077,4.65077,0,0,1,.19146.82545,8.24645,8.24645,0,0,0,.03029,1.59637,3.96855,3.96855,0,0,0,.75986,1.1102,6.986,6.986,0,0,0,.69557-1.072,2.29376,2.29376,0,0,0,.01457-.84888c-.00676-1.31094.022-2.62363-.04216-3.93175-.01879-.38308-.25275-1.039-.47267-1.07679-.722-.124-.77783.45095-.81736,1.0452a14.02765,14.02765,0,0,1-.36042,1.8511l-.38955-.02439-.34229-1.6397-.52385.03159v3.68349l-.48245-.01719c0-1.16034-.03318-2.322.01291-3.4805.02607-.6551-.006-1.25409-.6997-1.507-1.00321-.36566-2.02026-.70285-3.05021-.983-1.15082-.313-2.32266-.54856-3.48536-.81784Zm-.22989-6.72146-.03175.69806c-.23253.57233.00188.92371.5606.71114,1.50162-.57131,2.96806-1.2366,4.44072-1.88227.81842-.35883,1.62134-.75306,2.80357-1.30524a29.40451,29.40451,0,0,0-.038-3.18373,1.94818,1.94818,0,0,0-.81636-1.34442,29.83753,29.83753,0,0,0-3.781-1.66509,25.31789,25.31789,0,0,0-2.64178-.68978,2.48217,2.48217,0,0,0-.3675.8237c-.04691,1.365-.03524,2.73192-.04427,4.09818Zm13.35219,33.01457.26357.041c.12153-.186.35116-.3736.34833-.55766-.04028-2.625-.09454-5.25034-.2082-7.87286-.00941-.21722-.4472-.522-.73215-.58879a1.44683,1.44683,0,0,0-.8.25961c.2653,1.08887-.90456,2.09628-.12506,3.24358.3339.49144.12723,1.078-.7868,1.42052v-5.044c-.5648.23708-1.00433.2787-1.127.49791a4.76969,4.76969,0,0,0-.60539,3.01606,15.83657,15.83657,0,0,1-.06509,2.52911l-.50262-.00519c-.38448-3.37612.1-6.80566-.20254-10.18682l-.41143.00119-.15584,10.89024-.39721-.00094c-.02015-.37693-.0569-.75386-.0574-1.13083-.00167-1.25011.0755-2.505-.01434-3.74816-.03918-.54221-.29765-1.41966-.64946-1.53026-2.03773-.64061-4.13089-1.10658-6.20989-1.61277-.77018-.18753-1.10107.142-1.13977.94555-.16776,3.48315-.39305,6.96355-.55473,10.44692-.03492.75238.332,1.25017,1.2089,1.02243,1.40285-.36435,2.80746-.72271,4.20439-1.10873,1.12889-.31193,2.28046-1.0059,3.36211-.90261,1.24013.11842,1.27242-.32058,1.19465-1.1871-.06612-.7367.1738-1.2175.99083-1.14548.72135.06357,1.0683-.20853,1.09478-.94247.00556-.15427.19946-.30172.21369-.32172.59311.52665,1.29.8962,1.57929,1.47116A6.41645,6.41645,0,0,1,300.07085,474.99694Zm10.76829-4.74981c0-1.57174-.00562-3.14349.00163-4.71518.00679-1.46973-.51087-1.87309-1.91275-1.42991-1.1731.37085-2.31747.84687-3.50755,1.144-.63344.15817-1.31783-.07182-1.41965.963-.06338.64414-.68767,1.25369-.68763,1.87875.00006,1.05465-.917,2.06153-.17429,3.1465.03455.05047-.10534.19667-.09827.29347.07318,1.00258.15156,2.005.25515,3.00472a.44032.44032,0,0,0,.2972.27737c1.48672.28362,2.97814.54253,4.466.82045.36125.06748.7121.18888,1.07088.27184a3.46706,3.46706,0,0,0,1.29769.227c.18953-.03538.38406-.61631.39235-.9545C310.86014,473.533,310.83807,471.88979,310.83914,470.24713ZM310.17,432.60256c-2.12021.76426-3.97683,1.44469-5.8418,2.10138a2.19594,2.19594,0,0,0-1.60251,2.1996c-.00824.95657-.03925,1.91364-.01543,2.86938a3.61205,3.61205,0,0,0,.24886.87874c.75743-.27366,1.038.51408,1.561.69611,1.62934.56706,3.30207,1.00984,4.96016,1.49329.61155.17832.84669-.05546.81692-.69773-.0673-1.45174-.10493-2.90543-.12263-4.35873C310.15468,436.15154,310.17,434.518,310.17,432.60256Zm-8.01406,22.30236.346.03029a3.76119,3.76119,0,0,1,.2969.94353c.02466.54312-.5123,1.18564.39461,1.52285.5473.20349,1.04223.56033,1.59688.72933,1.2771.38914,2.584.67958,3.864,1.06017.96874.288,1.72255.11124,1.72337-.56253.004-3.31545-.04011-6.63113-.09331-9.94633-.00921-.57384-.38194-.69338-.89882-.51176-1.70566.59933-3.41774,1.1804-5.12252,1.7822-.26135.09226-.64024.19948-.71967.398-.31318.78266-.69465,1.36039-1.67218,1.26949-.13138-.01221-.42215.341-.42682.53029-.0361,1.46175-.0199,2.92481-.0199,4.38745l.16969.012Zm-15.30786-27.37576c1.88135-.82212,3.55775-1.48168,5.16443-2.28152,1.13921-.56712,2.514-1.03642,2.34065-2.7822-.02384-.24008.20039-.50482.30977-.75814l-.1959.2167c-.68891-1.51031-2.09223-1.89606-3.3774-2.43909-1.33572-.56438-2.71-1.03746-4.24155-1.6163ZM310.0062,423.727c-.08333-1.02973-.22128-2.91216-.39351-4.79146-.09215-1.00535-.35966-1.11214-1.26941-.70184a19.27229,19.27229,0,0,1-2.92808,1.17638,3.70121,3.70121,0,0,0-2.958,4.52167.69336.69336,0,0,0,.23814.45326,20.17527,20.17527,0,0,0,2.38962,1.17227c.85466.31841,1.77261.46178,2.64724.73233C310.038,427.00289,310.03462,427.01381,310.0062,423.727Zm-15.69386,6.4797c0-.89084-.0406-1.5386.00936-2.17929.07824-1.00349-.51814-1.10972-1.21066-.86684-1.23043.43154-2.28205,1.28868-3.64743,1.44327a4.81181,4.81181,0,0,0-1.70558.67134,2.97912,2.97912,0,0,0-.97131.909.77644.77644,0,0,0,.18224.74021,17.72778,17.72778,0,0,0,3.70229,1.638c3.25042.74173,3.55314.85854,4.432,3.21368.07565.2027.14754.4068.22117.61025l.12787-.04181v-3.49821l-.86769.46553c-.13151-1.03341-.40932-1.97285.814-2.46651Zm8.9622-.90175c-1.12669.715-.79131,1.74035-.78557,2.65544.00792,1.26458.41648,1.53556,1.5904,1.05149q2.61779-1.07949,5.19257-2.26149c.33817-.15532.57574-.53.8597-.80357a5.18758,5.18758,0,0,0-.94747-.748,23.12067,23.12067,0,0,0-3.12575-1.31328c-1.1875-.35662-2.4331-.51951-3.63891-.76385C302.17065,428.16446,301.93561,429.01977,303.27454,429.305Zm-1.51042-24.18559a17.53165,17.53165,0,0,1-2.01929.335c-1.13548.05687-2.27553.01665-3.41345.03258-.63638.00892-1.4513-.17551-1.85251.145-.32812.26213-.12194,1.15017-.22559,1.74805-.15135.87293.30132,1.20605,1.05357,1.21746,1.88452.02858,3.77037.03875,5.65389-.01139.27287-.00727.74764-.36928.76684-.59763C301.81218,406.982,301.76412,405.96443,301.76412,405.11939Zm3.225,38.59126a4.7638,4.7638,0,0,0-1.73112-.46936c-.4154.06388-.81091.5828-1.09894.9838a.82871.82871,0,0,0,.19327.79184c.87287.53485.61188.94148-.01253,1.46446a1.77355,1.77355,0,0,0-.85531,1.9309c.46-.671.898-.95813,1.44719-.25875.0905.11526.47611.07552.69087.0039,1.84763-.61616,3.69383-1.23815,5.52481-1.90165a8.11825,8.11825,0,0,0,1.27413-.73615l-.08339-.3272c-1.027-.33594-2.07608-.61818-3.07289-1.02776a.84051.84051,0,0,0-1.22862.41279,3.04569,3.04569,0,0,1-.50365.80637c-.19491.16964-.662.336-.76532.24036a1.63206,1.63206,0,0,1-.52708-.96713C304.2236,444.43466,304.597,444.18245,304.98915,443.71065Zm-13.58178,2.55866-1.35-.83492.39733-1.25445c-1.04559.36322-1.87872.71762-2.7464.9318-.60446.14919-1.27937.32239-1.04874.99576.13061.38133.89283.5814,1.402.78418.3039.121.82659-.03863.978.14875.59455.73573,1.3563.61294,2.1384.65747a12.44424,12.44424,0,0,1,1.71005.4275c.42755.08812,1.08564.29071,1.25862.09819a2.08684,2.08684,0,0,0,.30152-1.36965c-.03347-.77433-.21821-1.54085-.297-2.315-.04551-.44706-.00826-.90255-.00826-1.61214l-3.34929,1.00561c.58716.33193,1.36809.60247,1.34949.796A4.88269,4.88269,0,0,1,291.40737,446.26931Zm9.82848,18.17406c.04277.4585.10565.83255.10813,1.207.01818,2.74727.02359,5.49461.03478,8.24193.002.48461.00227.97975.72846.72393a9.05683,9.05683,0,0,1-.283-1.44827c-.04008-1.21178-.03666-2.42628-.00855-3.63871.03876-1.67193.15061-3.34264.16673-5.01448.01419-1.47116-.05134-2.94352-.10761-4.41436-.0064-.16712-.18049-.32779-.27683-.49146l-.29154.04415v3.06276l-.46839.0521a3.56353,3.56353,0,0,1-.16906-1.04374c.21434-1.50947.17072-1.62522-1.18072-2.19771-1.267.6857-.79069,1.8715-.81232,2.8853C298.631,464.51536,298.99563,464.807,301.23585,464.44337Zm-14.737-2.3c.252.20253.34637.33515.46722.367,2.11236.55648,4.22132,1.13,6.35075,1.61265.287.06506.96118-.3181.97835-.5321.09646-1.20166.04649-2.41507.04649-3.85678Zm23.99535-.87927c-1.29916-.192-2.359-.27894-3.38282-.51927-1.03718-.24345-2.02665-.68693-3.061-.94716-.536-.13486-.96864.06565-.94877.79159.01108.40441-.24792.82266-.21113,1.21846a4.37574,4.37574,0,0,0,.46221,1.75281c.08948.15526.85441-.04319,1.29773-.13753.54835-.11669,1.08537-.28862,1.6247-.44559,1.21221-.35284,2.42639-.69988,3.62991-1.08052C310.06933,461.84494,310.1772,461.61417,310.49421,461.26411ZM298.998,452.4812a6.2108,6.2108,0,0,0-.38863,1.28254c-.08538.71988-.0305,1.45586-.04692,2.18468-.017.75547.15724,1.38494,1.06525,1.39273.79322.00679,1.17137-.587,1.09667-1.48347-.05765-.69189.00032-1.3927-.03669-2.08724a10.24183,10.24183,0,0,0-.24248-2.30417,1.89811,1.89811,0,0,0-1.02057-.91831c-.16695-.07786-.77635.29132-.78295.47185A5.46669,5.46669,0,0,0,298.998,452.4812Zm3.25261-61.47046c-.97237-.12481-1.6042-.25565-2.23972-.27712-1.32164-.04464-2.64548-.01992-3.96793-.04724-.559-.01155-1.16059-.15711-1.23207.74942a3.22184,3.22184,0,0,0,.54649.06357c1.268-.07836,2.53447-.19534,3.80335-.23027.23819-.00656.485.30033.72783.46257a2.9311,2.9311,0,0,1-.58539.63965,3.676,3.676,0,0,1-.90287.26859c1.11213-.14641,1.71926.06,1.37239,1.41171-.08391.327-.02422,1.26173.79283,1.08215a7.13214,7.13214,0,0,0,1.67458-.86287q-.44487-.43707-.88887-.875a.48021.48021,0,0,1-.05467-.09058l.55245-.96039-.93822-.51795Zm-5.78216,42.93737c.32064-.28568.87746-.5389.93668-.8789a21.863,21.863,0,0,0,.295-3.48447c.01361-1.15916.34246-2.4832-1.23271-3.19282a2.77072,2.77072,0,0,0-.21609.62127c-.07591.788-.12144,1.579-.1745,2.36909-.01177.17526-.08056.40079,0,.51984C296.9215,431.15113,295.96394,432.48507,296.46845,433.94811Zm1.22972,4.10883.0491.00007a17.686,17.686,0,0,0-.02374-1.92385c-.02611-.23757-.34477-.6419-.48936-.62485-.27652.03262-.742.30482-.74877.49137-.05312,1.46737-.03485,2.93872.02179,4.40652.00568.14733.4196.39729.63027.38381a.74343.74343,0,0,0,.53518-.48862C297.73479,439.55773,297.69817,438.8058,297.69817,438.05694Zm2.1539,6.70084c.07775-.1573.13119-.24616.16716-.34161a3.29285,3.29285,0,0,0,.38456-1.1713c-.00929-.19488-.65265-.58271-.77218-.50722a1.79425,1.79425,0,0,0-.84564.98159,12.74662,12.74662,0,0,0-.11177,2.82709c.01639.26061.46.59741.7719.69649.17829.05665.55018-.24609.72408-.47232C300.75132,446.01447,300.78469,445.28719,299.85207,444.75778Zm-4.38032-43.28954a2.53632,2.53632,0,0,0,.06931,2.4398c.46686.70707,1.16143.29417,1.6696-.05676.55592-.3839.87057-.55154,1.3501.17385.20767.31415.99134.247,1.51337.353l.0571-.2611-.63986-.32066.61111-.9469c-.69811,0-1.211.01118-1.72319-.00233C297.31439,402.81908,296.041,403.393,295.47175,401.46824Zm4.6331,39.17442c-.05364-.36024-.2343-.73272-.118-.92939.74046-1.25253-.19767-2.44681-.09221-3.6734.01533-.17823-.44528-.39743-.68565-.59768-.16061.26606-.42515.51863-.4617.80079-.09724.75066-.10762,1.5137-.13148,2.27249A2.07268,2.07268,0,0,0,300.10485,440.64266Zm-.84025-19.41c-.23481.17563-.581.31718-.57822.45145a22.17305,22.17305,0,0,0,.21137,2.71506c.02079.14344.46248.32759.689.303.14739-.016.26706-.3707.38135-.58325.08684-.1615.1358-.34306.21881-.507.21775-.43.73722-1.07446.61271-1.24078A6.35322,6.35322,0,0,0,299.2646,421.23268Zm-2.67516,38.36842c-.03285.25181-.05131.48211-.09429.7077-.21448,1.12577,1.08077,2.29313-.07686,3.42219-.031.03028.37967.72525.55794.71334.3241-.02161.89661-.34051.89763-.53775.007-1.36791-.10652-2.73644-.18055-4.09Zm-.0075-13.56534-.35821.21479c.30628.28685.58127.76582.92514.82193.8009.13069.63215-.562.62938-1.02856a16.5867,16.5867,0,0,0-.10273-2.32057c-.04191-.28335-.41905-.517-.64333-.77339-.1892.24081-.52831.47468-.53983.72372C296.4561,444.458,296.54282,445.248,296.58194,446.03576Zm1.52964-23.58161-.93774-1.13621a7.05473,7.05473,0,0,0-.92037,1.45691c-.06248.17644.44568.55526.693.84157Zm-8.51171-12.40633c.41606-.21794,1.13712-.48608,1.11347-.60176a8.84866,8.84866,0,0,0-.68947-1.705C289.27355,408.34351,289.23132,408.58624,289.59987,410.04782Zm-2.55614,1.62471a17.29314,17.29314,0,0,0,.78385-1.69814c.02871-.08035-.46106-.50883-.61573-.462C286.73239,409.65771,286.44428,410.94919,287.04373,411.67253Zm8.039,36.68359v3.22664A2.79647,2.79647,0,0,0,295.08272,448.35612Zm2.8698,29.9818-.78383-1.71266c-.18025.2015-.47271.37987-.51985.60882C296.50434,477.93585,296.74359,478.41069,297.95252,478.33792Zm1.84533-88.2279,2.16949-.32806C300.34442,388.96273,300.25144,388.97588,299.79785,390.11Zm-1.01678,57.90079.032.446a6.66718,6.66718,0,0,0,1.48268-.04191c.13892-.03227.16134-.56682.295-1.10327Zm.9149-46.32318.00608-.20328h-2.7527l-.00376.20328Zm12.36835,26.80418a1.06219,1.06219,0,0,0-.08652.1601c-.00478.01327.05568.06977.06467.06509a1.13441,1.13441,0,0,0,.14459-.10142C312.14556,428.57515,312.104,428.53472,312.06432,428.49181Z" transform="translate(-189.64148 -312.94848)"/><path class="f169d5ec-097b-4d6f-90c0-3609bb63d8ef" d="M296.22908,488.656c.02738-1.52932.04142-3.059.08985-4.58769a3.49027,3.49027,0,0,1,.225-1.45475c.14754-.28372.6472-.42268,1.01738-.52023.077-.02029.37325.41512.40263.6604.10075.841.10212,1.69391.2008,2.5353.02489.21217.271.39837.41552.5965.14328-.19968.39407-.39069.411-.60057.06835-.848.0294-1.70516.10938-2.55141.02342-.24785.30926-.47086.47481-.70526.23349.20947.64191.397.67137.632.16115,1.28612.23044,2.58385.32888,3.87778.05369.70576.10258,1.4119.15364,2.11788h-1.92868a5.37993,5.37993,0,0,0,.1635-1.23432c-.02075-.24028-.3084-.45746-.47607-.685-.17836.2158-.45938.40934-.512.65239a6.31123,6.31123,0,0,0-.03264,1.267Z" transform="translate(-189.64148 -312.94848)"/><path class="f169d5ec-097b-4d6f-90c0-3609bb63d8ef" d="M301.15792,488.656V479.7191a2.069,2.069,0,0,1-1.94265-3.04359.94572.94572,0,0,1,.76945-.35832,1.01016,1.01016,0,0,1,.61976.5368,3.29308,3.29308,0,0,1,.13841.97567c.85136-.88255.85136-.88255,1.48652-.457V488.656Z" transform="translate(-189.64148 -312.94848)"/><path class="f169d5ec-097b-4d6f-90c0-3609bb63d8ef" d="M294.94329,488.656c.07331-3.82107-.28343-7.65657.3071-11.46025l.28438-.06156a5.58538,5.58538,0,0,1,.2145,1.06334c.0298,3.486.03735,6.97228.05121,10.45847Z" transform="translate(-189.64148 -312.94848)"/><path class="f169d5ec-097b-4d6f-90c0-3609bb63d8ef" d="M283.1309,478.5812c.20762,1.12042-.033,1.366-1.11623,1.45624a7.88818,7.88818,0,0,0-2.005.51079.90707.90707,0,0,0-.37542.68308c-.1675,2.30377-.30318,4.60991-.43709,6.916a2.02882,2.02882,0,0,0,.10241.50864h-.4286c.03144-2.521.05785-5.04207.10491-7.56277a.69747.69747,0,0,1,.25024-.524,4.842,4.842,0,0,1,1.81727-.82742A2.47605,2.47605,0,0,0,283.1309,478.5812Z" transform="translate(-189.64148 -312.94848)"/><path class="f169d5ec-097b-4d6f-90c0-3609bb63d8ef" d="M297.94346,488.656a6.31123,6.31123,0,0,1,.03264-1.267c.0526-.243.33362-.43659.512-.65239.16767.22758.45532.44476.47607.685a5.37993,5.37993,0,0,1-.1635,1.23432Z" transform="translate(-189.64148 -312.94848)"/><path class="f169d5ec-097b-4d6f-90c0-3609bb63d8ef" d="M318.94463,488.656q-.03663-.70827-.07342-1.41629.358.70841.71631,1.41629Z" transform="translate(-189.64148 -312.94848)"/><path class="f169d5ec-097b-4d6f-90c0-3609bb63d8ef" d="M283.75591,417.02988l.57841.84684.82772-.78081c.17658,2.4132.38042,4.556.47047,6.70368a25.21744,25.21744,0,0,1-.20308,3.18832.619.619,0,0,1-.2661.43241c-1.23427.64914-1.29671,1.747-1.17319,2.93388.03311.31822-.02256.64791.02867.9615.07007.42893.0771,1.02816.347,1.21708.24416.17094.80481-.11084,1.28386-.2043.31783.70612-.178.80654-.91371.72316,0,2.79469.00494,5.51824-.00244,8.24175a5.00291,5.00291,0,0,1-.65318,3.14315c-.33218.47184-.18382,1.29-.23152,1.95279-.0476.6615-.22819,1.35673.60155,1.75883.16189.07846.22135.4981.222.76065q.01392,5.407-.01421,10.814c-.00423.63092-.03338,1.338-1.07692,1.2527,0,.80451-.0133,1.5851.00951,2.36463.00559.19118.111.53412.20128.54475,1.171.13781.87906,1.0497.896,1.72918.08521,3.41328.141,6.82741.18508,10.24154.02443,1.89106.005,1.8913-1.67054,1.6844-.02612-3.28-.09065-6.56021-.07131-9.83994q.08463-14.34783.2285-28.69526c.036-3.70884.14865-7.41687.19619-11.12565.04564-3.56132.05167-7.12314.08108-10.68469C283.6375,417.1393,283.71459,417.08473,283.75591,417.02988Z" transform="translate(-189.64148 -312.94848)"/><path class="b9f94b2c-b043-478a-a91c-6b33bc4136a4" d="M304.76814,384.04615h.90037l1.86712-7.0167c1.66346.24071,2.16867,1.00667,1.69025,2.462-.20489.62327-.06969.83648.45633,1.00218q.0254,6.043.05074,12.08629a19.25449,19.25449,0,0,0-2.29642-.94392c-1.25245-.34354-1.29084-1.323-1.36039-2.30377-.04061-.57261-.00739-1.15046-.00739-1.726l-.35049-.00745c-.067.70927-.107,1.42274-.21592,2.12549a2.27839,2.27839,0,0,1-.37882.67984l-.54335-.38161c.12271-.236.3544-.47365.35066-.70759C304.9027,387.55831,304.82816,385.80234,304.76814,384.04615Z" transform="translate(-189.64148 -312.94848)"/><path class="b5994526-d74b-463a-9ab2-a9d36006b245" d="M314.47037,476.44263l-.3469-.43247-1.1043.65565c-.25028-.43383-.714-.86595-.71745-1.30175-.031-3.88645.01612-7.77356.05437-11.66034a1.97721,1.97721,0,0,1,.2045-.58771c1.21564.41922,1.29353.36012,1.28326-.944a6.53867,6.53867,0,0,0-.04949-1.49084,3.49381,3.49381,0,0,0-.64528-.96964c-.29653-.42925-.83707-.85467-.84676-1.29119-.07431-3.35067-.05132-6.70365-.03737-10.05582a1.406,1.406,0,0,1,.37367-.83c1.29055,2.15652.389,4.551.83247,6.82744.09223-.77811.17866-1.50731.26537-2.23661a5.07269,5.07269,0,0,1,.26531,1.08014q.25764,10.63787.48026,21.2766C314.49615,475.13523,314.47509,475.78911,314.47037,476.44263Z" transform="translate(-189.64148 -312.94848)"/><path class="b9f94b2c-b043-478a-a91c-6b33bc4136a4" d="M313.663,443.39754a1.88482,1.88482,0,0,1-1.92808-1.51573c-.03992-3.19309-.02725-6.38685-.02686-9.58036,0-.09678.07983-.19355.15264-.35889l.987.06752.37491-1.6895c.12849,1.54253.30569,3.083.37442,4.62826.11492,2.58347.16534,5.16992.22714,7.75548A2.82527,2.82527,0,0,1,313.663,443.39754Z" transform="translate(-189.64148 -312.94848)"/><path class="b9f94b2c-b043-478a-a91c-6b33bc4136a4" d="M312.969,415.95083c-.08918-.10289-.24927-.20078-.2569-.30941-.11127-1.58282-.19979-3.16722-.29975-4.75087a2.58506,2.58506,0,0,0-.11837-1.0217c-.82073-1.49893-.65681-3.10182-.617-4.70673.04026-1.62187.03414-3.24572.01063-4.86816-.03233-2.23083-.10015-4.46113-.15261-6.69164a3.99074,3.99074,0,0,1,.349,1.00465c.20244,3.04627.39634,6.09357.54215,9.143.07055,1.47537-.01484,2.95861.06778,4.43281a7.94478,7.94478,0,0,0,.50355,1.76607c.03056.10058.12175.19541.11955.2914C313.07349,412.14389,313.02028,414.04734,312.969,415.95083Z" transform="translate(-189.64148 -312.94848)"/><path class="b9f94b2c-b043-478a-a91c-6b33bc4136a4" d="M313.20614,429.89854a2.5468,2.5468,0,0,1-.26727-.81893,1.06349,1.06349,0,0,0-.72027-1.23659c-.28764-.11705-.52378-.70926-.53714-1.09439-.069-1.989-.06062-3.98078-.07421-5.97161-.006-.8776-.03194-1.75721.02121-2.63164.01472-.24207.28074-.46881.43146-.70258a2.95708,2.95708,0,0,1,.30219.80988c.08972,1.48752.11642,2.979.21933,4.46541a3.22986,3.22986,0,0,0,.40763.95939Q313.09763,426.78794,313.20614,429.89854Z" transform="translate(-189.64148 -312.94848)"/><path class="b9f94b2c-b043-478a-a91c-6b33bc4136a4" d="M284.22785,406.52867a7.06115,7.06115,0,0,1,.30333,2.28524c-.07218.38351.58741,1.31852-.5349,1.33151Q284.112,408.337,284.22785,406.52867Z" transform="translate(-189.64148 -312.94848)"/><path class="b9f94b2c-b043-478a-a91c-6b33bc4136a4" d="M284.46775,399.67779a.88462.88462,0,0,1,.19056.06261c-.09924.92721-.20874,1.85331-.317,2.77961A3.424,3.424,0,0,1,284.46775,399.67779Z" transform="translate(-189.64148 -312.94848)"/><path class="f169d5ec-097b-4d6f-90c0-3609bb63d8ef" d="M318.67116,481.358l-.18379-2.09677C319.25561,479.89815,318.93,480.631,318.67116,481.358Z" transform="translate(-189.64148 -312.94848)"/><path class="b9f94b2c-b043-478a-a91c-6b33bc4136a4" d="M309.85318,380.43991q.72519-.35886,1.45037-.71764Q310.57835,380.08118,309.85318,380.43991Z" transform="translate(-189.64148 -312.94848)"/><path class="b9f94b2c-b043-478a-a91c-6b33bc4136a4" d="M313.788,447.76831q.00159-.8227.0035-1.64543Q313.79,446.94556,313.788,447.76831Z" transform="translate(-189.64148 -312.94848)"/><path class="b9f94b2c-b043-478a-a91c-6b33bc4136a4" d="M311.294,393.49746c-.50945.19057-.85206.10108-.87624-.52286Q310.85592,393.236,311.294,393.49746Z" transform="translate(-189.64148 -312.94848)"/><path class="f169d5ec-097b-4d6f-90c0-3609bb63d8ef" d="M317.50173,478.88863q-.56414-.1791-1.12829-.35825Q316.93756,478.70945,317.50173,478.88863Z" transform="translate(-189.64148 -312.94848)"/><path class="b9f94b2c-b043-478a-a91c-6b33bc4136a4" d="M284.30367,405.17683q-.05926.59643-.11909,1.19274Q284.24356,405.7731,284.30367,405.17683Z" transform="translate(-189.64148 -312.94848)"/><path class="b9f94b2c-b043-478a-a91c-6b33bc4136a4" d="M284.35031,403.90215q-.02878.48075-.058.96147C283.85477,404.51533,283.80331,404.19052,284.35031,403.90215Z" transform="translate(-189.64148 -312.94848)"/><path class="b9f94b2c-b043-478a-a91c-6b33bc4136a4" d="M323.23492,373.13762l.21285-.69682Q323.34135,372.78941,323.23492,373.13762Z" transform="translate(-189.64148 -312.94848)"/><path class="b9f94b2c-b043-478a-a91c-6b33bc4136a4" d="M284.41222,396.926q.05981.2803.1195.56044Q284.47186,397.20611,284.41222,396.926Z" transform="translate(-189.64148 -312.94848)"/><path class="f169d5ec-097b-4d6f-90c0-3609bb63d8ef" d="M318.47423,479.24838l-.38473-.2121.24345-.1327Z" transform="translate(-189.64148 -312.94848)"/><path class="b9f94b2c-b043-478a-a91c-6b33bc4136a4" d="M323.49565,371.97931l.03253-.40326Z" transform="translate(-189.64148 -312.94848)"/><path class="b9f94b2c-b043-478a-a91c-6b33bc4136a4" d="M300.07085,474.99694a6.41645,6.41645,0,0,0-.28437-2.10111c-.28928-.575-.98618-.94451-1.57929-1.47116-.01423.02-.20813.16745-.21369.32172-.02648.73394-.37343,1.006-1.09478.94247-.817-.072-1.057.40878-.99083,1.14548.07777.86652.04548,1.30552-1.19465,1.1871-1.08165-.10329-2.23322.59068-3.36211.90261-1.39693.386-2.80154.74438-4.20439,1.10873-.87691.22774-1.24382-.27005-1.2089-1.02243.16168-3.48337.387-6.96377.55473-10.44692.0387-.80356.36959-1.13308,1.13977-.94555,2.079.50619,4.17216.97216,6.20989,1.61277.35181.1106.61028.988.64946,1.53026.08984,1.24316.01267,2.498.01434,3.74816.0005.377.03725.7539.0574,1.13083l.39721.00094.15584-10.89024.41143-.00119c.3025,3.38116-.18194,6.8107.20254,10.18682l.50262.00519a15.83657,15.83657,0,0,0,.06509-2.52911,4.76969,4.76969,0,0,1,.60539-3.01606c.1227-.21921.56223-.26083,1.127-.49791v5.044c.914-.34254,1.1207-.92908.7868-1.42052-.7795-1.1473.39036-2.15471.12506-3.24358a1.44683,1.44683,0,0,1,.8-.25961c.285.06679.72274.37157.73215.58879.11366,2.62252.16792,5.24783.2082,7.87286.00283.18406-.2268.37168-.34833.55766Zm-12.013.818c1.47421-.76327,2.79983-1.53365,4.19636-2.14064.81658-.35493.66818-.98827.25574-1.17984a2.96528,2.96528,0,0,1-1.78543-3.08209c.00077-.04741-.09559-.0964-.24961-.24189a3.00787,3.00787,0,0,1-3.35032.31947C286.78182,471.89051,287.6258,473.876,288.05785,475.815Zm8.72124-6.958.03005.3716.76738.05389-.044-.576Zm.81091-1.13063c-.12585-.15222-.21768-.32456-.26932-.31327-.11466.02515-.27312.1293-.29276.22586-.01732.08521.11037.24328.21126.29209C297.2949,467.95793,297.42719,467.82636,297.59,467.72629Z" transform="translate(-189.64148 -312.94848)"/><path class="b9f94b2c-b043-478a-a91c-6b33bc4136a4" d="M293.82226,385.26615a4.1478,4.1478,0,0,1,1.07119.3003c.62971.377.96521.27.93865-.47733-.091-2.55913-.24406-5.11635-.31187-7.67593q-.11-4.15131-.08365-8.30528c.00265-.3919.38505-.78122.57953-1.14876,1.51483.49228,2.17462.88191,2.93531-.76908.09113,1.21225.17411,2.42519.27559,3.63657.10964,1.30867.27991,2.61392.33947,3.9245.035.76952-.15391,1.54768-.13867,2.31992q.07894,4.00268.25253,8.003c.015.33623.31763.65963.48678.98892q-.022,1.41213-.04353,2.82437a9.64735,9.64735,0,0,0-2.63691.863,2.884,2.884,0,0,1-2.69566.19616c-.14031-.03914-.1937-.39026-.28719-.597q.17656.04318.35291.08612l.01026-.1719-.35393.09856q-.34742-.06626-.69489-.1324c.25659-.22823.53177-.66971.76679-.64924,1.24055.108,1.12634-.60565,1.0628-1.44793-.04468-.59233-.16078-.97547-.7795-1.18168A4.7752,4.7752,0,0,1,293.82226,385.26615Z" transform="translate(-189.64148 -312.94848)"/><path class="abf24b46-34fd-4d32-8f81-aadb93978251" d="M287.26517,448.72668c1.1627.26928,2.33454.50486,3.48536.81784,1.02995.28012,2.047.61731,3.05021.983.69375.25287.72577.85186.6997,1.507-.04609,1.1585-.01291,2.32016-.01291,3.4805l.48245.01719v-3.68349l.52385-.03159.34229,1.6397.38955.02439a14.02765,14.02765,0,0,0,.36042-1.8511c.03953-.59425.09536-1.16923.81736-1.0452.21992.03777.45388.69371.47267,1.07679.06419,1.30812.0354,2.62081.04216,3.93175a2.29376,2.29376,0,0,1-.01457.84888,6.986,6.986,0,0,1-.69557,1.072,3.96855,3.96855,0,0,1-.75986-1.1102,8.24645,8.24645,0,0,1-.03029-1.59637,4.65077,4.65077,0,0,0-.19146-.82545l-.31981.01c-.10011.63321-.22909,1.26356-.29262,1.90043-.071.71192.24257,1.54656-1.06976,1.50644-.57971-.01772-1.14941.64135-1.77227.84226-1.80858.58335-3.63657,1.10986-5.47282,1.599-.19713.05251-.71788-.28552-.71869-.44426-.01326-2.63268.03266-5.26567.06513-7.89827.12979.33217.27593.65873.38665.99689.29349.89642.57166,1.79786.85593,2.6973l.33107-.08106-.51765.82828.11052.349,2.05088-.30905c-.21008-.483-.41818-.96686-.63263-1.4479-.028-.0628-.11851-.10574-.12943-.16692a7.69142,7.69142,0,0,1-.268-1.96173c.01617-.18136.82461-.27264,1.25368-.44512a2.61374,2.61374,0,0,0,.53-.38636,4.52,4.52,0,0,0-.49337-.42311c-.90553-.58038-1.83212-1.12929-2.71684-1.73932C287.26839,449.31363,287.30782,448.96054,287.26517,448.72668Z" transform="translate(-189.64148 -312.94848)"/><path class="abf24b46-34fd-4d32-8f81-aadb93978251" d="M310.83861,470.24713c-.00054,1.64266.02153,3.28586-.01873,4.92754-.00829.33819-.20282.91912-.39235.9545a3.46706,3.46706,0,0,1-1.29769-.227c-.35878-.083-.70963-.20436-1.07088-.27184-1.48784-.27792-2.97926-.53683-4.466-.82045a.44032.44032,0,0,1-.2972-.27737c-.10359-.9997-.182-2.00214-.25515-3.00472-.00707-.0968.13282-.243.09827-.29347-.74271-1.085.17435-2.09185.17429-3.1465,0-.62506.62425-1.23461.68763-1.87875.10182-1.03481.78621-.80482,1.41965-.963,1.19008-.29716,2.33445-.77318,3.50755-1.144,1.40188-.44318,1.91954-.03982,1.91275,1.42991C310.83352,467.10364,310.83914,468.67539,310.83861,470.24713Zm-5.77948,2.9556c1.65111,1.15377,1.65111,1.15377,2.85192-.38983a22.11888,22.11888,0,0,0-.36886-2.673,2.01868,2.01868,0,0,0-.828-1.09922c-.184-.11394-.93049.20837-.95111.38765a4.20706,4.20706,0,0,0,.11326,2.07479C306.43607,472.77505,306.511,472.76721,305.05913,473.20273Z" transform="translate(-189.64148 -312.94848)"/><path class="abf24b46-34fd-4d32-8f81-aadb93978251" d="M310.17,432.60256c0,1.91548-.01532,3.549.00458,5.182.0177,1.4533.05533,2.907.12263,4.35873.02977.64227-.20537.87605-.81692.69773-1.65809-.48345-3.33082-.92623-4.96016-1.49329-.523-.182-.80358-.96977-1.561-.69611a3.61205,3.61205,0,0,1-.24886-.87874c-.02382-.95574.00719-1.91281.01543-2.86938a2.19594,2.19594,0,0,1,1.60251-2.1996C306.19317,434.04725,308.04979,433.36682,310.17,432.60256Z" transform="translate(-189.64148 -312.94848)"/><path class="b9f94b2c-b043-478a-a91c-6b33bc4136a4" d="M302.15594,454.90492l-.56178,1.645-.16969-.012c0-1.46264-.0162-2.9257.0199-4.38745.00467-.18926.29544-.5425.42682-.53029.97753.0909,1.359-.48683,1.67218-1.26949.07943-.19851.45832-.30573.71967-.398,1.70478-.6018,3.41686-1.18287,5.12252-1.7822.51688-.18162.88961-.06208.89882.51176.0532,3.3152.09728,6.63088.09331,9.94633-.00082.67377-.75463.85058-1.72337.56253-1.28-.38059-2.5869-.671-3.864-1.06017-.55465-.169-1.04958-.52584-1.59688-.72933-.90691-.33721-.37-.97973-.39461-1.52285a3.76119,3.76119,0,0,0-.2969-.94353Zm5.2722,2.75141a3.3782,3.3782,0,0,0,.91059-.80693,3.08273,3.08273,0,0,0,.57323-1.76816c-.06326-.41757-.74328-.79418-1.21558-1.07749a3.01914,3.01914,0,0,0-1.055-.18438,6.14539,6.14539,0,0,1,.28009-1.04972c.28463-.61942.06468-1.49436-.46246-1.59406-.45408-.08587-.91423-.13965-1.309-.19831.07071.46732.41493,1.23289.18605,1.49257-.955,1.08354-.57454,2.29239-.478,3.43825a2.21587,2.21587,0,0,0,.92441,1.36507A4.78252,4.78252,0,0,0,307.42814,457.65633Z" transform="translate(-189.64148 -312.94848)"/><path class="abf24b46-34fd-4d32-8f81-aadb93978251" d="M286.84808,427.52916v-9.66055c1.53157.57884,2.90583,1.05192,4.24155,1.6163,1.28517.543,2.68849.92878,3.3774,2.43909l.1959-.2167c-.10938.25332-.33361.51806-.30977.75814.17337,1.74578-1.20144,2.21508-2.34065,2.7822C290.40583,426.04748,288.72943,426.707,286.84808,427.52916Z" transform="translate(-189.64148 -312.94848)"/><path class="abf24b46-34fd-4d32-8f81-aadb93978251" d="M310.0062,423.727c.02842,3.28678.0318,3.27586-2.274,2.56261-.87463-.27055-1.79258-.41392-2.64724-.73233a20.17527,20.17527,0,0,1-2.38962-1.17227.69336.69336,0,0,1-.23814-.45326,3.70121,3.70121,0,0,1,2.958-4.52167,19.27229,19.27229,0,0,0,2.92808-1.17638c.90975-.4103,1.17726-.30351,1.26941.70184C309.78492,420.81487,309.92287,422.6973,310.0062,423.727Z" transform="translate(-189.64148 -312.94848)"/><path class="b9f94b2c-b043-478a-a91c-6b33bc4136a4" d="M294.31234,430.20673l1.0862.63862c-1.22327.49366-.94546,1.4331-.814,2.46651l.86769-.46553v3.49821l-.12787.04181c-.07363-.20345-.14552-.40755-.22117-.61025-.87885-2.35514-1.18157-2.47195-4.432-3.21368a17.72778,17.72778,0,0,1-3.70229-1.638.77644.77644,0,0,1-.18224-.74021,2.97912,2.97912,0,0,1,.97131-.909,4.81181,4.81181,0,0,1,1.70558-.67134c1.36538-.15459,2.417-1.01173,3.64743-1.44327.69252-.24288,1.2889-.13665,1.21066.86684C294.27174,428.66813,294.31234,429.31589,294.31234,430.20673Z" transform="translate(-189.64148 -312.94848)"/><path class="abf24b46-34fd-4d32-8f81-aadb93978251" d="M287.21469,433.321a25.31789,25.31789,0,0,1,2.64178.68978,29.83753,29.83753,0,0,1,3.781,1.66509,1.94818,1.94818,0,0,1,.81636,1.34442,29.40451,29.40451,0,0,1,.038,3.18373c-1.18223.55218-1.98515.94641-2.80357,1.30524-1.47266.64567-2.9391,1.311-4.44072,1.88227-.55872.21257-.79313-.13881-.56079-.71078,1.98806.24338,3.2305-1.08759,4.69053-2.21681l-2.2335-1.47757a3.30128,3.30128,0,0,1-.57958.98542c-.14079.116-.54791-.09185-.83477-.15346.28067-.5102.48682-1.38445.85641-1.46021.985-.20193.973-.78476.86079-1.546.74244-.02346,1.39393-.07489,1.2078-1.04118-.32522-1.68841-1.49508-.50233-2.17564-.76473a3.82241,3.82241,0,0,0-.71329-.98185C287.56993,433.80035,287.39744,433.55621,287.21469,433.321Z" transform="translate(-189.64148 -312.94848)"/><path class="b9f94b2c-b043-478a-a91c-6b33bc4136a4" d="M303.27454,429.305c-1.33893-.28521-1.10389-1.14052-.855-2.18327,1.20581.24434,2.45141.40723,3.63891.76385a23.12067,23.12067,0,0,1,3.12575,1.31328,5.18758,5.18758,0,0,1,.94747.748c-.284.27353-.52153.64825-.8597.80357q-2.57308,1.18173-5.19257,2.26149c-1.17392.48407-1.58248.21309-1.5904-1.05149C302.48323,431.04533,302.14785,430.02,303.27454,429.305Zm1.69573,2.55339a12.16639,12.16639,0,0,0,1.607-.36271c.16461-.06124.27493-.37405.32209-.59123.01754-.08076-.23275-.32435-.33282-.3091C305.92276,430.69344,305.21182,430.73541,304.97027,431.85837Zm2.26081-2.29245.03172-.30332h-1.70457l.00037.30332Z" transform="translate(-189.64148 -312.94848)"/><path class="b9f94b2c-b043-478a-a91c-6b33bc4136a4" d="M301.76412,405.11939c0,.845.04806,1.86262-.03654,2.869-.0192.22835-.494.59036-.76684.59763-1.88352.05014-3.76937.04-5.65389.01139-.75225-.01141-1.20492-.34453-1.05357-1.21746.10365-.59788-.10253-1.48592.22559-1.74805.40121-.3205,1.21613-.13607,1.85251-.145,1.13792-.01593,2.278.02429,3.41345-.03258A17.53165,17.53165,0,0,0,301.76412,405.11939Z" transform="translate(-189.64148 -312.94848)"/><path class="b0a1ed7c-34b4-49d9-b038-23d1d2167375" d="M287.21469,433.321c.18275.23517.35524.47931.55078.70331a3.82241,3.82241,0,0,1,.71329.98185c.68056.2624,1.85042-.92368,2.17564.76473.18613.96629-.46536,1.01772-1.2078,1.04118.11224.76129.12418,1.34412-.86079,1.546-.36959.07576-.57574.95-.85641,1.46021.28686.06161.694.26944.83477.15346a3.30128,3.30128,0,0,0,.57958-.98542l2.2335,1.47757c-1.46,1.12922-2.70247,2.46019-4.69053,2.21681q.01616-.34957.03169-.69856.042-1.86978.08452-3.73931c.009-1.36626-.00265-2.73322.04426-4.09818A2.48217,2.48217,0,0,1,287.21469,433.321Z" transform="translate(-189.64148 -312.94848)"/><path class="abf24b46-34fd-4d32-8f81-aadb93978251" d="M304.98915,443.71065c-.39211.4718-.76555.724-.74858.94642a1.63206,1.63206,0,0,0,.52708.96713c.10332.0956.57041-.07072.76532-.24036a3.04569,3.04569,0,0,0,.50365-.80637.84051.84051,0,0,1,1.22862-.41279c.99681.40958,2.04587.69182,3.07289,1.02776l.08339.3272a8.11825,8.11825,0,0,1-1.27413.73615c-1.831.6635-3.67718,1.28549-5.52481,1.90165-.21476.07162-.60037.11136-.69087-.0039-.54919-.69938-.98721-.41225-1.44719.25875a1.77355,1.77355,0,0,1,.85531-1.9309c.62441-.523.8854-.92961.01253-1.46446a.82871.82871,0,0,1-.19327-.79184c.288-.401.68354-.91992,1.09894-.9838A4.7638,4.7638,0,0,1,304.98915,443.71065Z" transform="translate(-189.64148 -312.94848)"/><path class="b9f94b2c-b043-478a-a91c-6b33bc4136a4" d="M291.40737,446.26931a4.88269,4.88269,0,0,0,.73577-1.54081c.0186-.19358-.76233-.46412-1.34949-.796l3.34929-1.00561c0,.70959-.03725,1.16508.00826,1.61214.07879.77411.26353,1.54063.297,2.315a2.08684,2.08684,0,0,1-.30152,1.36965c-.173.19252-.83107-.01007-1.25862-.09819a12.44424,12.44424,0,0,0-1.71005-.4275c-.7821-.04453-1.54385.07826-2.1384-.65747-.15144-.18738-.67413-.02773-.978-.14875-.50914-.20278-1.27136-.40285-1.402-.78418-.23063-.67337.44428-.84657,1.04874-.99576.86768-.21418,1.70081-.56858,2.7464-.9318l-.39733,1.25445Z" transform="translate(-189.64148 -312.94848)"/><path class="b0a1ed7c-34b4-49d9-b038-23d1d2167375" d="M293.82226,385.26615a4.7752,4.7752,0,0,0,1.046.68484c.61872.20621.73482.58935.7795,1.18168.06354.84228.17775,1.55594-1.0628,1.44793-.235-.02047-.5102.421-.76679.64923q-1.08329.47241-2.16681.945c-.6858.11469-.967-.16637-.95664-.86856.02544-1.72037.00831-3.44139.00831-5.34747l1.63857.58863.39549.11743.67622.41578Z" transform="translate(-189.64148 -312.94848)"/><path class="b0a1ed7c-34b4-49d9-b038-23d1d2167375" d="M300.12359,388.88732q.02164-1.4122.04353-2.82437c1.20969-.59437,2.41326-1.20138,3.63287-1.77417a5.038,5.038,0,0,1,.96818-.24263c.06,1.75619.13453,3.51216.16266,5.26886.00374.23394-.228.47164-.35066.70759q-1.37859-.55826-2.7571-1.11652c-.44269-.57067-.88812-.567-1.33624-.00648Z" transform="translate(-189.64148 -312.94848)"/><path class="b9f94b2c-b043-478a-a91c-6b33bc4136a4" d="M301.23585,464.44337c-2.24022.36361-2.60483.072-2.55994-2.03154.02163-1.0138-.45469-2.1996.81232-2.8853,1.35144.57249,1.39506.68824,1.18072,2.19771a3.56353,3.56353,0,0,0,.16906,1.04374l.46839-.0521v-3.06276l.29154-.04415c.09634.16367.27043.32434.27683.49146.05627,1.47084.1218,2.9432.10761,4.41436-.01612,1.67184-.128,3.34255-.16673,5.01448-.02811,1.21243-.03153,2.42693.00855,3.63871a9.05683,9.05683,0,0,0,.283,1.44827c-.72619.25582-.72648-.23932-.72846-.72393-.01119-2.74732-.0166-5.49466-.03478-8.24193C301.3415,465.27592,301.27862,464.90187,301.23585,464.44337Zm-.22127-.99287.04972.036.00831-.05622Z" transform="translate(-189.64148 -312.94848)"/><path class="abf24b46-34fd-4d32-8f81-aadb93978251" d="M286.49886,462.14338l7.84281-2.40924c0,1.44171.05,2.65512-.04649,3.85678-.01717.214-.69132.59716-.97835.5321-2.12943-.48264-4.23839-1.05617-6.35075-1.61265C286.84523,462.47853,286.75089,462.34591,286.49886,462.14338Z" transform="translate(-189.64148 -312.94848)"/><path class="abf24b46-34fd-4d32-8f81-aadb93978251" d="M310.49421,461.26411c-.317.35006-.42488.58083-.58922.63279-1.20352.38064-2.4177.72768-3.62991,1.08052-.53933.157-1.07635.3289-1.6247.44559-.44332.09434-1.20825.29279-1.29773.13753a4.37574,4.37574,0,0,1-.46221-1.75281c-.03679-.3958.22221-.81405.21113-1.21846-.01987-.72594.41276-.92645.94877-.79159,1.0344.26023,2.02387.70371,3.061.94716C308.13525,460.98517,309.19505,461.07215,310.49421,461.26411Z" transform="translate(-189.64148 -312.94848)"/><path class="b9f94b2c-b043-478a-a91c-6b33bc4136a4" d="M298.998,452.4812a5.46669,5.46669,0,0,1-.35632-1.46139c.0066-.18053.616-.54971.78295-.47185a1.89811,1.89811,0,0,1,1.02057.91831,10.24183,10.24183,0,0,1,.24248,2.30417c.037.69454-.021,1.39535.03669,2.08724.0747.89651-.30345,1.49026-1.09667,1.48347-.908-.00779-1.08227-.63726-1.06525-1.39273.01642-.72882-.03846-1.4648.04692-2.18468A6.2108,6.2108,0,0,1,298.998,452.4812Z" transform="translate(-189.64148 -312.94848)"/><path class="b9f94b2c-b043-478a-a91c-6b33bc4136a4" d="M302.25061,391.01074l-1.33982.81619.93822.51795q-.27728.482-.55188.96a.44176.44176,0,0,0,.0541.091q.44283.43914.88887.875a7.13214,7.13214,0,0,1-1.67458.86287c-.817.17958-.87674-.75517-.79283-1.08215.34687-1.35175-.26026-1.55812-1.37239-1.41171a3.676,3.676,0,0,0,.90287-.26859,2.9311,2.9311,0,0,0,.58539-.63965c-.24283-.16224-.48964-.46913-.72783-.46257-1.26888.03493-2.53539.15191-3.80335.23027a3.22184,3.22184,0,0,1-.54649-.06357c.07148-.90653.67305-.761,1.23207-.74942,1.32245.02732,2.64629.0026,3.96793.04724C300.64641,390.75509,301.27824,390.88593,302.25061,391.01074Z" transform="translate(-189.64148 -312.94848)"/><path class="b9f94b2c-b043-478a-a91c-6b33bc4136a4" d="M299.8604,431.5884a3.75167,3.75167,0,0,1,.19122.64458c.0497.42663.05789.8581.09154,1.42739l-1.44295.07606c0-1.67214-.00334-3.27988.00287-4.88758a3.80754,3.80754,0,0,1,.07133-.94421c.12147-.46136.31515-.90367.47819-1.35406l1.35221.5392-.78527.84944.54914.68677c-.18458,1.00494-.34858,1.8978-.51271,2.79036-.14168-.10283-.28325-.20536-.56921-.41246l.06533,1.274Z" transform="translate(-189.64148 -312.94848)"/><path class="b9f94b2c-b043-478a-a91c-6b33bc4136a4" d="M296.46845,433.94811c-.50451-1.463.453-2.797-.39164-4.046-.08052-.11905-.01173-.34458,0-.51984.05306-.79012.09859-1.58109.1745-2.36909a2.77072,2.77072,0,0,1,.21609-.62127c1.57517.70962,1.24632,2.03366,1.23271,3.19282a21.863,21.863,0,0,1-.295,3.48447C297.34591,433.40921,296.78909,433.66243,296.46845,433.94811Z" transform="translate(-189.64148 -312.94848)"/><path class="b9f94b2c-b043-478a-a91c-6b33bc4136a4" d="M297.69817,438.05694c0,.74886.03662,1.50079-.02553,2.24445a.74343.74343,0,0,1-.53518.48862c-.21067.01348-.62459-.23648-.63027-.38381-.05664-1.4678-.07491-2.93915-.02179-4.40652.00675-.18655.47225-.45875.74877-.49137.14459-.017.46325.38728.48936.62485a17.686,17.686,0,0,1,.02374,1.92385Z" transform="translate(-189.64148 -312.94848)"/><path class="b9f94b2c-b043-478a-a91c-6b33bc4136a4" d="M299.85207,444.75778c.93262.52941.89925,1.25669.31811,2.01272-.1739.22623-.54579.529-.72408.47232-.31191-.09908-.75551-.43588-.7719-.69649a12.74662,12.74662,0,0,1,.11177-2.82709,1.79425,1.79425,0,0,1,.84564-.98159c.11953-.07549.76289.31234.77218.50722a3.29285,3.29285,0,0,1-.38456,1.1713C299.98326,444.51162,299.92982,444.60048,299.85207,444.75778Z" transform="translate(-189.64148 -312.94848)"/><path class="b9f94b2c-b043-478a-a91c-6b33bc4136a4" d="M295.47175,401.46824c.56927,1.92472,1.84264,1.35084,2.90754,1.3789.51222.01351,1.02508.00233,1.72319.00233l-.61111.9469.63986.32066-.0571.2611c-.522-.106-1.3057-.03885-1.51337-.353-.47953-.72539-.79418-.55775-1.3501-.17385-.50817.35093-1.20274.76383-1.6696.05676A2.53632,2.53632,0,0,1,295.47175,401.46824Z" transform="translate(-189.64148 -312.94848)"/><path class="b9f94b2c-b043-478a-a91c-6b33bc4136a4" d="M300.10485,440.64266a2.07268,2.07268,0,0,1-1.48908-2.12719c.02386-.75879.03424-1.52183.13148-2.27249.03655-.28216.30109-.53473.4617-.80079.24037.20025.701.41945.68565.59768-.10546,1.22659.83267,2.42087.09221,3.6734C299.87055,439.90994,300.05121,440.28242,300.10485,440.64266Z" transform="translate(-189.64148 -312.94848)"/><path class="b9f94b2c-b043-478a-a91c-6b33bc4136a4" d="M299.2646,421.23268a6.35322,6.35322,0,0,1,1.53506,1.13854c.12451.16632-.395.81075-.61271,1.24078-.083.16392-.132.34548-.21881.507-.11429.21255-.234.56728-.38135.58325-.22656.02455-.66825-.1596-.689-.303a22.17305,22.17305,0,0,1-.21137-2.71506C298.68359,421.54986,299.02979,421.40831,299.2646,421.23268Z" transform="translate(-189.64148 -312.94848)"/><path class="b9f94b2c-b043-478a-a91c-6b33bc4136a4" d="M296.58944,459.6011l1.10387.21545c.074,1.35359.18757,2.72212.18055,4.09-.001.19724-.57353.51614-.89763.53775-.17827.01191-.589-.68306-.55794-.71334,1.15763-1.12906-.13762-2.29642.07686-3.42219C296.53813,460.08321,296.55659,459.85291,296.58944,459.6011Z" transform="translate(-189.64148 -312.94848)"/><path class="b9f94b2c-b043-478a-a91c-6b33bc4136a4" d="M296.58194,446.03576c-.03912-.78779-.12584-1.57778-.08958-2.36208.01152-.249.35063-.48291.53983-.72372.22428.25634.60142.49.64333.77339a16.5867,16.5867,0,0,1,.10273,2.32057c.00277.46656.17152,1.15925-.62938,1.02856-.34387-.05611-.61886-.53508-.92514-.82193Z" transform="translate(-189.64148 -312.94848)"/><path class="b9f94b2c-b043-478a-a91c-6b33bc4136a4" d="M298.11158,422.45415l-1.16511,1.16227c-.24732-.28631-.75548-.66513-.693-.84157a7.05473,7.05473,0,0,1,.92037-1.45691Z" transform="translate(-189.64148 -312.94848)"/><path class="b9f94b2c-b043-478a-a91c-6b33bc4136a4" d="M289.59987,410.04782c-.36855-1.46158-.32632-1.70431.424-2.30675a8.84866,8.84866,0,0,1,.68947,1.705C290.737,409.56174,290.01593,409.82988,289.59987,410.04782Z" transform="translate(-189.64148 -312.94848)"/><path class="b9f94b2c-b043-478a-a91c-6b33bc4136a4" d="M287.04373,411.67253c-.59945-.72334-.31134-2.01482.16812-2.1601.15467-.04687.64444.38161.61573.462A17.29314,17.29314,0,0,1,287.04373,411.67253Z" transform="translate(-189.64148 -312.94848)"/><path class="b9f94b2c-b043-478a-a91c-6b33bc4136a4" d="M295.08272,448.35612a2.79647,2.79647,0,0,1,0,3.22664Z" transform="translate(-189.64148 -312.94848)"/><path class="f169d5ec-097b-4d6f-90c0-3609bb63d8ef" d="M297.95252,478.33792c-1.20893.07277-1.44818-.40207-1.30368-1.10384.04714-.22895.3396-.40732.51985-.60882Z" transform="translate(-189.64148 -312.94848)"/><path class="b9f94b2c-b043-478a-a91c-6b33bc4136a4" d="M286.80293,438.24292q-.04239,1.86958-.08452,3.73931Q286.76092,440.11272,286.80293,438.24292Z" transform="translate(-189.64148 -312.94848)"/><path class="b9f94b2c-b043-478a-a91c-6b33bc4136a4" d="M299.79785,390.11c.45359-1.13414.54657-1.14729,2.16949-.32806Z" transform="translate(-189.64148 -312.94848)"/><path class="b9f94b2c-b043-478a-a91c-6b33bc4136a4" d="M298.78107,448.01081l1.80959-.69914c-.13361.53645-.156,1.071-.295,1.10327a6.66718,6.66718,0,0,1-1.48268.04191Z" transform="translate(-189.64148 -312.94848)"/><path class="b9f94b2c-b043-478a-a91c-6b33bc4136a4" d="M299.696,401.68763h-2.75038l.00376-.20328h2.7527Z" transform="translate(-189.64148 -312.94848)"/><path class="b9f94b2c-b043-478a-a91c-6b33bc4136a4" d="M304.15154,398.37418l1.154.15692c-.76179.62767-.85283.60206-1.14113-.16948Z" transform="translate(-189.64148 -312.94848)"/><path class="b9f94b2c-b043-478a-a91c-6b33bc4136a4" d="M300.48683,388.8996c.44812-.56056.89355-.56419,1.33624.00648Z" transform="translate(-189.64148 -312.94848)"/><path class="b0a1ed7c-34b4-49d9-b038-23d1d2167375" d="M299.8604,431.5884l-.50831.68952-.06533-1.274c.286.2071.42753.30963.56921.41246A.25153.25153,0,0,1,299.8604,431.5884Z" transform="translate(-189.64148 -312.94848)"/><path class="b9f94b2c-b043-478a-a91c-6b33bc4136a4" d="M286.94856,448.70383q-.14141.70632-.28264,1.41285Q286.8074,449.41047,286.94856,448.70383Z" transform="translate(-189.64148 -312.94848)"/><path class="b9f94b2c-b043-478a-a91c-6b33bc4136a4" d="M312.06343,428.49306c.04061.04166.08213.08209.12363.12252a1.13441,1.13441,0,0,1-.14459.10142c-.009.00468-.06945-.05182-.06467-.06509A1.06377,1.06377,0,0,1,312.06343,428.49306Z" transform="translate(-189.64148 -312.94848)"/><path class="b9f94b2c-b043-478a-a91c-6b33bc4136a4" d="M289.56,377.37468c-.031-1.0347-1.23318-1.86279-.02489-2.85956a1.63476,1.63476,0,0,1,2.0694-.07425,1.449,1.449,0,0,1,.65536,1.05089c-.054.741-.59842,1.12487-1.37069,1.24208A5.70131,5.70131,0,0,0,289.56,377.37468Z" transform="translate(-189.64148 -312.94848)"/><path class="b9f94b2c-b043-478a-a91c-6b33bc4136a4" d="M293.41332,385.08065l-.67622-.41578Z" transform="translate(-189.64148 -312.94848)"/><path class="eed426e9-52f3-41f1-ae82-5daa17de9761" d="M295.37979,399.37055l4.80243-.56181c-.33894.46154-.5571,1.04131-.813,1.0585a33.94437,33.94437,0,0,1-3.48665-.03923C295.78351,399.82445,295.69022,399.66026,295.37979,399.37055Z" transform="translate(-189.64148 -312.94848)"/><path class="eed426e9-52f3-41f1-ae82-5daa17de9761" d="M293.9452,399.253l1.18461.11743-.02728.40494-1.20417-.0568Z" transform="translate(-189.64148 -312.94848)"/><path class="eed426e9-52f3-41f1-ae82-5daa17de9761" d="M292.5782,398.37744a.60184.60184,0,0,1,.2088-.01226c.27323.08611.54226.18553.81282.28012l-.2711.38175-.73542-.66513Z" transform="translate(-189.64148 -312.94848)"/><path class="b0a1ed7c-34b4-49d9-b038-23d1d2167375" d="M288.05785,475.815c-.432-1.939-1.276-3.92445-.93326-6.325a3.00787,3.00787,0,0,0,3.35032-.31947c.154.14549.25038.19448.24961.24189a2.96528,2.96528,0,0,0,1.78543,3.08209c.41244.19157.56084.82491-.25574,1.17984C290.85768,474.28131,289.53206,475.05169,288.05785,475.815Z" transform="translate(-189.64148 -312.94848)"/><path class="b0a1ed7c-34b4-49d9-b038-23d1d2167375" d="M296.77909,468.85692l.75341-.15052.044.576-.76738-.05389Z" transform="translate(-189.64148 -312.94848)"/><path class="b0a1ed7c-34b4-49d9-b038-23d1d2167375" d="M297.59,467.72629c-.16281.10007-.2951.23164-.35082.20468-.10089-.04881-.22858-.20688-.21126-.29209.01964-.09656.1781-.20071.29276-.22586C297.37232,467.40173,297.46415,467.57407,297.59,467.72629Z" transform="translate(-189.64148 -312.94848)"/><path class="eed426e9-52f3-41f1-ae82-5daa17de9761" d="M294.51307,389.36224l.35393-.09856-.01026.1719q-.1764-.043-.35291-.08612Z" transform="translate(-189.64148 -312.94848)"/><path class="b0a1ed7c-34b4-49d9-b038-23d1d2167375" d="M305.05913,473.20273c1.45189-.43552,1.37694-.42768.81718-1.69966a4.20706,4.20706,0,0,1-.11326-2.07479c.02062-.17928.76707-.50159.95111-.38765a2.01868,2.01868,0,0,1,.828,1.09922,22.11888,22.11888,0,0,1,.36886,2.673C306.71024,474.3565,306.71024,474.3565,305.05913,473.20273Z" transform="translate(-189.64148 -312.94848)"/><path class="b0a1ed7c-34b4-49d9-b038-23d1d2167375" d="M307.42814,457.65633a4.78252,4.78252,0,0,1-1.64568-.38316,2.21587,2.21587,0,0,1-.92441-1.36507c-.09659-1.14586-.47708-2.35471.478-3.43825.22888-.25968-.11534-1.02525-.18605-1.49257.39478.05866.85493.11244,1.309.19831.52714.0997.74709.97464.46246,1.59406a6.14539,6.14539,0,0,0-.28009,1.04972,3.01914,3.01914,0,0,1,1.055.18438c.4723.28331,1.15232.65992,1.21558,1.07749a3.08273,3.08273,0,0,1-.57323,1.76816A3.3782,3.3782,0,0,1,307.42814,457.65633Z" transform="translate(-189.64148 -312.94848)"/><path class="b0a1ed7c-34b4-49d9-b038-23d1d2167375" d="M304.97027,431.85837c.24155-1.123.95249-1.16493,1.59626-1.263.10007-.01525.35036.22834.33282.3091-.04716.21718-.15748.53-.32209.59123A12.16639,12.16639,0,0,1,304.97027,431.85837Z" transform="translate(-189.64148 -312.94848)"/><path class="b0a1ed7c-34b4-49d9-b038-23d1d2167375" d="M307.23108,429.56592H305.5586l-.00037-.30332h1.70457Z" transform="translate(-189.64148 -312.94848)"/><polygon class="eed426e9-52f3-41f1-ae82-5daa17de9761" points="111.373 150.502 111.431 150.482 111.423 150.538 111.373 150.502"/><rect class="f169d5ec-097b-4d6f-90c0-3609bb63d8ef" x="94.83049" y="104.0814" width="2.37611" height="62.23133"/><rect class="f169d5ec-097b-4d6f-90c0-3609bb63d8ef" x="120.09148" y="104.92014" width="2.34934" height="62.44098"/><rect class="f169d5ec-097b-4d6f-90c0-3609bb63d8ef" x="104.87679" y="106.23376" width="2.06782" height="32.44781"/><rect class="f169d5ec-097b-4d6f-90c0-3609bb63d8ef" x="111.09216" y="106.23376" width="1.96779" height="31.79504"/><rect class="f169d5ec-097b-4d6f-90c0-3609bb63d8ef" x="104.87679" y="138.68157" width="0.38419" height="24.18491"/><rect class="f169d5ec-097b-4d6f-90c0-3609bb63d8ef" x="105.95328" y="138.68157" width="0.99133" height="23.79675"/><rect class="f169d5ec-097b-4d6f-90c0-3609bb63d8ef" x="108.31104" y="138.0288" width="0.99989" height="23.70868"/><rect class="f169d5ec-097b-4d6f-90c0-3609bb63d8ef" x="110.80373" y="138.51779" width="0.97565" height="23.96053"/><rect class="f169d5ec-097b-4d6f-90c0-3609bb63d8ef" x="298.45247" y="447.53455" width="2.62014" height="1.55455" transform="translate(-357.26245 -133.69747) rotate(-26.30349)"/><path class="abf24b46-34fd-4d32-8f81-aadb93978251" d="M286.84808,417.4428v10.08636l6.18907-2.89025s3.33252-1.84427,0-4.62154Z" transform="translate(-189.64148 -312.94848)"/><path class="abf24b46-34fd-4d32-8f81-aadb93978251" d="M286.84808,433.19974v10.9802l6.18907-3.14637s3.33252-2.0077,0-5.0311Z" transform="translate(-189.64148 -312.94848)"/><path class="abf24b46-34fd-4d32-8f81-aadb93978251" d="M309.70475,417.44279v10.08637l-6.44488-2.89025s-3.47026-1.84427,0-4.62155Z" transform="translate(-189.64148 -312.94848)"/><path class="abf24b46-34fd-4d32-8f81-aadb93978251" d="M309.70475,432.50115v11.53652l-6.44488-3.30579s-3.47027-2.10942,0-5.286Z" transform="translate(-189.64148 -312.94848)"/><polygon class="abf24b46-34fd-4d32-8f81-aadb93978251" points="97.077 134.82 97.077 147.294 104.903 144.555 104.876 138.096 97.077 134.82"/><polygon class="abf24b46-34fd-4d32-8f81-aadb93978251" points="120.063 134.82 120.063 146.897 112.076 144.245 112.103 137.992 120.063 134.82"/><path class="abf24b46-34fd-4d32-8f81-aadb93978251" d="M309.733,461.21717c-2.62664-1.0214-4.91961-.84353-7.61878-1.89315,0,1.81443-.03682,2.61512.05908,4.12744a1.13569,1.13569,0,0,0,.97267.66966c2.11708-.60743,4.2138-1.32922,6.31392-2.02957C309.58,462.05149,309.48239,461.47206,309.733,461.21717Z" transform="translate(-189.64148 -312.94848)"/><path class="abf24b46-34fd-4d32-8f81-aadb93978251" d="M294.54434,426.39192v8.38588l-7.277-3.55129s-1.22721-.59513,0-1.96391" transform="translate(-189.64148 -312.94848)"/><path class="abf24b46-34fd-4d32-8f81-aadb93978251" d="M302.15783,426.034v8.38589l7.277-3.5513s1.22721-.59513,0-1.96391" transform="translate(-189.64148 -312.94848)"/><polygon class="abf24b46-34fd-4d32-8f81-aadb93978251" points="104.903 129.323 104.811 136.462 97.207 133.709 97.207 132.513 104.903 129.323"/><polygon class="abf24b46-34fd-4d32-8f81-aadb93978251" points="112.222 128.965 112.314 136.104 119.918 133.351 119.918 132.155 112.222 128.965"/><polygon class="abf24b46-34fd-4d32-8f81-aadb93978251" points="97.161 151.496 97.207 164.186 105.072 162.073 105.069 153.142 97.161 151.496"/><polygon class="abf24b46-34fd-4d32-8f81-aadb93978251" points="120.571 150.746 120.526 163.436 112.661 161.323 112.664 152.392 120.571 150.746"/><polygon class="f169d5ec-097b-4d6f-90c0-3609bb63d8ef" points="105.261 137.589 105.261 163.197 106.397 162.866 106.159 137.589 105.261 137.589"/><polygon class="f169d5ec-097b-4d6f-90c0-3609bb63d8ef" points="112.466 146.376 112.516 162.478 111.373 162.478 111.402 146.376 112.466 146.376"/><path class="f169d5ec-097b-4d6f-90c0-3609bb63d8ef" d="M293.67275,476.62526s-10.23459,12.0307,0,12.0307h10.23459l-.54828-12.51026S296.96244,475.28031,293.67275,476.62526Z" transform="translate(-189.64148 -312.94848)"/><rect class="abf24b46-34fd-4d32-8f81-aadb93978251" x="109.13959" y="152.86816" width="1.66413" height="9.32079" rx="0.83207"/><rect class="abf24b46-34fd-4d32-8f81-aadb93978251" x="106.83462" y="152.86816" width="1.66413" height="9.32079" rx="0.83207"/><rect class="abf24b46-34fd-4d32-8f81-aadb93978251" x="109.13959" y="146.37554" width="1.66413" height="5.42652" rx="0.83207"/><rect class="abf24b46-34fd-4d32-8f81-aadb93978251" x="106.83462" y="146.37554" width="1.66413" height="5.42652" rx="0.83207"/><rect class="abf24b46-34fd-4d32-8f81-aadb93978251" x="108.9679" y="137.30306" width="1.83583" height="7.40479" rx="0.91791"/><rect class="abf24b46-34fd-4d32-8f81-aadb93978251" x="106.83462" y="137.30306" width="1.66413" height="7.40479" rx="0.83207"/><rect class="abf24b46-34fd-4d32-8f81-aadb93978251" x="109.00252" y="128.96452" width="1.92359" height="7.40479" rx="0.96179"/><rect class="abf24b46-34fd-4d32-8f81-aadb93978251" x="106.83462" y="128.96452" width="1.66413" height="7.40479" rx="0.83207"/><rect class="abf24b46-34fd-4d32-8f81-aadb93978251" x="109.00252" y="122.55932" width="1.92359" height="5.63343" rx="0.96179"/><rect class="abf24b46-34fd-4d32-8f81-aadb93978251" x="106.83462" y="122.55932" width="1.66413" height="5.63343" rx="0.83207"/><rect class="abf24b46-34fd-4d32-8f81-aadb93978251" x="109.0954" y="113.27004" width="1.92359" height="7.82471" rx="0.96179"/><rect class="abf24b46-34fd-4d32-8f81-aadb93978251" x="106.9275" y="113.27004" width="1.66413" height="7.82471" rx="0.83207"/><rect class="abf24b46-34fd-4d32-8f81-aadb93978251" x="109.0954" y="107.60447" width="1.92359" height="4.67736" rx="0.96179"/><rect class="abf24b46-34fd-4d32-8f81-aadb93978251" x="106.9275" y="107.60447" width="1.66413" height="4.67736" rx="0.83207"/><polygon class="f169d5ec-097b-4d6f-90c0-3609bb63d8ef" points="112.103 137.992 112.076 144.245 111.292 144.708 111.373 138.518 112.103 137.992"/><polygon class="eed426e9-52f3-41f1-ae82-5daa17de9761" points="96.106 100.812 97.626 93.197 101.655 93.197 99.356 84.538 100.232 78.141 108.025 74.65 121.894 80.654 114.51 98.436 96.106 100.812"/><polygon class="f169d5ec-097b-4d6f-90c0-3609bb63d8ef" points="94.114 104.081 94.114 81.135 108.025 74.65 122.441 80.654 122.441 102.871 94.114 104.081"/><rect class="b5994526-d74b-463a-9ab2-a9d36006b245" x="86.42534" y="79.63149" width="8.59151" height="84.9053"/><rect class="b5994526-d74b-463a-9ab2-a9d36006b245" x="122.44082" y="75.74388" width="6.78891" height="73.05706"/><polygon class="f169d5ec-097b-4d6f-90c0-3609bb63d8ef" points="122.453 164.186 125.199 164.186 129.593 166.3 130.036 174.291 130.836 175.707 122.336 175.707 122.453 164.186"/><polygon class="f169d5ec-097b-4d6f-90c0-3609bb63d8ef" points="95.526 164.186 92.781 164.186 88.387 166.3 87.943 174.291 87.143 175.707 95.643 175.707 95.526 164.186"/><polyline class="f169d5ec-097b-4d6f-90c0-3609bb63d8ef" points="122.336 175.707 122.441 164.186 124.899 164.186"/><path class="abf24b46-34fd-4d32-8f81-aadb93978251" d="M285.97866,392.91375l-.13719-13.08807v-2.451s2.43142-3.6106,4.87244,0v13.54971Z" transform="translate(-189.64148 -312.94848)"/><path class="abf24b46-34fd-4d32-8f81-aadb93978251" d="M309.69106,392.5307l.13718-13.08807v-2.451s-2.43141-3.6106-4.87243,0v13.33521Z" transform="translate(-189.64148 -312.94848)"/><polygon class="b5994526-d74b-463a-9ab2-a9d36006b245" points="100.991 70.779 106.148 72.568 106.148 75.53 101.072 77.976 100.991 70.779"/><polygon class="b5994526-d74b-463a-9ab2-a9d36006b245" points="115.289 70.813 115.314 77.378 110.156 75.529 110.156 73.024 115.289 70.813"/><path class="abf24b46-34fd-4d32-8f81-aadb93978251" d="M295.78932,388.47863l-.40953-20.65211s2.01432-3.10693,4.41806,0v20.65134l-2.209-1.08073Z" transform="translate(-189.64148 -312.94848)"/><path class="f169d5ec-097b-4d6f-90c0-3609bb63d8ef" d="M290.71391,377.37468a3.98418,3.98418,0,0,0-2.02235-1.57681l.397-1.89456,2.98509-.31983,1.00518,1.66007-.56351,1.82761Z" transform="translate(-189.64148 -312.94848)"/></g></g></svg>