<svg width="402" height="148" viewBox="0 0 402 148" fill="none" xmlns="http://www.w3.org/2000/svg">
<path d="M78.8643 24.1279C83.2181 24.1279 86.8395 24.3721 89.7285 24.8604C92.6175 25.3486 95.7303 26.02 99.0669 26.8745C101.346 27.4442 102.709 27.7697 103.156 27.8511L100.104 47.9316C97.9479 46.4668 95.3844 45.2054 92.4141 44.1475C89.4844 43.0895 85.5985 42.5605 80.7563 42.5605C75.9549 42.5605 71.6418 43.6388 67.8169 45.7954C63.992 47.952 60.9606 51.1258 58.7227 55.3169C56.5254 59.508 55.4268 64.5129 55.4268 70.3315C55.4268 76.5164 56.4237 81.9079 58.4175 86.5059C60.4113 91.1038 63.3817 94.6846 67.3286 97.248C71.2756 99.7708 76.077 101.032 81.7329 101.032C84.215 101.032 86.8192 100.727 89.5454 100.117C92.2716 99.5063 94.7334 98.7332 96.9307 97.7974C99.1686 96.8615 100.817 95.946 101.875 95.0508L101.936 114.094C98.4362 115.559 94.9368 116.739 91.4375 117.634C87.9788 118.529 83.8691 118.977 79.1084 118.977C69.0173 118.977 60.391 117.064 53.2295 113.239C46.068 109.374 40.6156 103.901 36.8721 96.8208C33.1693 89.7 31.3179 81.3382 31.3179 71.7354C31.3179 61.5628 33.3931 52.9162 37.5435 45.7954C41.6938 38.634 47.3498 33.2425 54.5112 29.6211C61.7134 25.959 69.8311 24.1279 78.8643 24.1279ZM264.716 25.1045V118H241.279V25.1045H264.716ZM364.997 25.1045V118H341.621L311.53 68.2563L304.755 54.1572L307.624 77.8389V118H286.567V25.1045H308.295L339.973 76.0688L346.442 89.6187L343.94 65.998V25.1045H364.997Z" fill="white"/>
<path d="M170.5 131C202.256 131 228 105.256 228 73.5C228 41.7436 202.256 16 170.5 16C138.744 16 113 41.7436 113 73.5C113 105.256 138.744 131 170.5 131Z" fill="#FFD816"/>
<path d="M170.5 122.299C197.451 122.299 219.3 100.451 219.3 73.4999C219.3 46.5487 197.451 24.7004 170.5 24.7004C143.549 24.7004 121.701 46.5487 121.701 73.4999C121.701 100.451 143.549 122.299 170.5 122.299Z" fill="#FFCD0B"/>
<path d="M196.031 31.8494C201.977 41.1558 204.592 52.2037 203.447 63.188C202.302 74.1724 197.465 84.4436 189.727 92.3236C181.99 100.204 171.808 105.226 160.846 106.571C149.885 107.916 138.791 105.504 129.378 99.728C133.33 105.91 138.625 111.12 144.869 114.973C151.113 118.826 158.146 121.221 165.443 121.981C172.741 122.74 180.115 121.845 187.019 119.361C193.923 116.877 200.178 112.868 205.318 107.633C210.459 102.398 214.353 96.0712 216.711 89.1234C219.068 82.1757 219.829 74.7857 218.937 67.5032C218.045 60.2207 215.522 53.2332 211.556 47.0603C207.59 40.8875 202.284 35.6883 196.031 31.8494V31.8494Z" fill="#FCBE19"/>
<path d="M130.249 77.9652C130.249 68.9684 133.066 60.1973 138.304 52.8828C143.542 45.5684 150.94 40.0777 159.457 37.1813C167.975 34.2849 177.186 34.1281 185.798 36.733C194.409 39.3379 201.989 44.5738 207.473 51.7058C204.533 46.5903 200.573 42.1333 195.84 38.6112C191.106 35.089 185.7 32.5767 179.955 31.2301C174.211 29.8835 168.251 29.7312 162.445 30.7827C156.64 31.8342 151.112 34.067 146.204 37.3429C141.297 40.6187 137.115 44.8676 133.917 49.8262C130.72 54.7848 128.575 60.3474 127.616 66.1691C126.656 71.9907 126.903 77.9474 128.341 83.6698C129.778 89.3922 132.376 94.7582 135.973 99.4353C132.211 92.9059 130.237 85.5005 130.249 77.9652V77.9652Z" fill="#FFDC54"/>
<g style="mix-blend-mode:overlay">
<g style="mix-blend-mode:overlay">
<path d="M131.87 97.5767L125.538 101.191C125.283 101.363 124.973 101.433 124.669 101.388C124.546 101.361 124.431 101.308 124.331 101.232C124.231 101.156 124.149 101.059 124.09 100.948C124.023 100.84 123.98 100.718 123.963 100.591C123.947 100.465 123.957 100.336 123.995 100.214C124.109 99.9267 124.328 99.6939 124.608 99.5623L130.941 95.9482C131.198 95.7742 131.51 95.7035 131.817 95.7501C131.942 95.7792 132.058 95.8349 132.16 95.9133C132.261 95.9918 132.344 96.0911 132.403 96.2045C132.468 96.3116 132.509 96.4315 132.523 96.556C132.537 96.6804 132.523 96.8064 132.484 96.9252C132.368 97.2115 132.149 97.444 131.87 97.5767V97.5767Z" fill="#FDEC45"/>
</g>
<g style="mix-blend-mode:overlay">
<path d="M126.736 85.2722L119.639 86.9469C119.347 87.0404 119.029 87.0203 118.751 86.8908C118.641 86.8303 118.545 86.7466 118.471 86.6453C118.396 86.5441 118.345 86.4279 118.32 86.3048C118.286 86.1817 118.279 86.0528 118.299 85.9267C118.319 85.8006 118.366 85.6803 118.436 85.5738C118.627 85.3307 118.903 85.1694 119.209 85.1225L126.306 83.4472C126.601 83.353 126.921 83.3736 127.201 83.5049C127.313 83.568 127.409 83.6544 127.484 83.7582C127.559 83.8621 127.611 83.9809 127.635 84.1065C127.667 84.2275 127.673 84.3541 127.651 84.4774C127.629 84.6007 127.58 84.7178 127.509 84.8204C127.317 85.0625 127.041 85.2238 126.736 85.2722V85.2722Z" fill="#FDEC45"/>
</g>
<g style="mix-blend-mode:overlay">
<path d="M119.042 65.5382L118.854 67.5749L125.55 68.192C125.86 68.1957 126.158 68.316 126.384 68.529C126.468 68.6217 126.531 68.7316 126.569 68.8511C126.607 68.9705 126.618 69.0967 126.602 69.221C126.595 69.3478 126.56 69.4715 126.501 69.5836C126.441 69.6958 126.358 69.7937 126.257 69.8707C125.998 70.0401 125.684 70.1052 125.378 70.0529L118.683 69.4358L118.495 71.4726C118.492 71.7293 118.394 71.9756 118.219 72.1636C118.142 72.2342 118.05 72.287 117.95 72.3183C117.85 72.3497 117.745 72.3588 117.641 72.3451C117.534 72.3402 117.43 72.3112 117.336 72.2603C117.242 72.2093 117.16 72.1377 117.098 72.0508C116.965 71.8357 116.915 71.5801 116.955 71.3307L117.502 65.3963C117.505 65.1363 117.605 64.8868 117.782 64.6962C117.859 64.6249 117.952 64.5715 118.052 64.5396C118.153 64.5078 118.259 64.4983 118.363 64.5119C118.468 64.5175 118.571 64.5465 118.663 64.5967C118.755 64.6469 118.836 64.717 118.897 64.802C119.034 65.0216 119.085 65.2834 119.042 65.5382V65.5382Z" fill="#FDEC45"/>
</g>
<g style="mix-blend-mode:overlay">
<path d="M123.121 50.3012L126.005 51.7895L124.282 46.7583C124.211 46.5671 124.159 46.3699 124.124 46.1692C124.107 45.9948 124.145 45.8195 124.233 45.668C124.334 45.4493 124.518 45.2795 124.743 45.1958C124.845 45.1582 124.954 45.1426 125.062 45.15C125.17 45.1574 125.276 45.1878 125.371 45.239C125.506 45.3209 125.623 45.4297 125.714 45.5586C125.805 45.6876 125.869 45.8339 125.901 45.9885L126.774 49.0039L131.323 48.3956C131.587 48.3543 131.855 48.3356 132.122 48.3394C132.321 48.3426 132.516 48.3899 132.694 48.478C132.784 48.5245 132.864 48.5898 132.927 48.6695C132.99 48.7493 133.035 48.8416 133.059 48.9402C133.117 49.1747 133.081 49.4224 132.959 49.6307C132.864 49.8349 132.711 50.0056 132.517 50.1205C132.336 50.2174 132.136 50.2741 131.931 50.2866C131.714 50.3028 131.518 50.3153 131.343 50.3243L127.297 50.7302L127.901 52.7681L129.601 53.6452C129.888 53.7654 130.119 53.9912 130.245 54.2762C130.287 54.3961 130.304 54.5236 130.293 54.6503C130.282 54.777 130.244 54.8999 130.182 55.0109C130.107 55.1547 129.996 55.2761 129.858 55.3626C129.722 55.4531 129.563 55.5039 129.399 55.5092C129.256 55.5051 129.116 55.4736 128.985 55.4164C128.841 55.3561 128.638 55.2584 128.376 55.1234L122.261 51.9676C121.98 51.8482 121.751 51.6306 121.618 51.3551C121.573 51.2362 121.555 51.1087 121.565 50.9818C121.575 50.8549 121.613 50.7319 121.677 50.6217C121.731 50.5061 121.81 50.4035 121.907 50.3207C122.004 50.2379 122.118 50.1769 122.241 50.1418C122.544 50.0814 122.858 50.1384 123.121 50.3012V50.3012Z" fill="#FDEC45"/>
</g>
</g>
<path d="M211.655 49.4246L217.989 45.8105C218.243 45.6383 218.553 45.5678 218.857 45.6129C218.98 45.6398 219.095 45.6932 219.195 45.7692C219.295 45.8453 219.377 45.9422 219.436 46.0533C219.503 46.1618 219.546 46.2834 219.563 46.4101C219.579 46.5367 219.568 46.6654 219.531 46.7874C219.417 47.0747 219.197 47.3077 218.918 47.4392L212.585 51.0531C212.328 51.2271 212.016 51.2979 211.709 51.2512C211.584 51.2221 211.468 51.1665 211.366 51.0882C211.265 51.0098 211.182 50.9105 211.123 50.797C211.058 50.6899 211.017 50.5699 211.003 50.4455C210.989 50.321 211.002 50.1949 211.042 50.0761C211.158 49.7898 211.376 49.5573 211.655 49.4246V49.4246Z" fill="#FDEC45"/>
<path d="M216.789 61.7289L223.886 60.0536C224.179 59.9605 224.496 59.9805 224.775 60.1098C224.885 60.1703 224.98 60.2541 225.055 60.3553C225.129 60.4565 225.18 60.5727 225.205 60.6958C225.239 60.8189 225.246 60.9479 225.226 61.0741C225.206 61.2002 225.159 61.3206 225.089 61.4271C224.898 61.6702 224.622 61.8316 224.317 61.8787L217.22 63.5537C216.925 63.6482 216.605 63.6275 216.324 63.4959C216.213 63.4329 216.116 63.3465 216.041 63.2427C215.966 63.139 215.915 63.0202 215.89 62.8946C215.858 62.7735 215.853 62.6469 215.875 62.5236C215.897 62.4002 215.945 62.2832 216.017 62.1805C216.208 61.9384 216.484 61.7772 216.789 61.7289V61.7289Z" fill="#FDEC45"/>
<path d="M224.484 81.4631L224.672 79.426L217.976 78.8093C217.666 78.8054 217.368 78.6851 217.142 78.4724C217.058 78.3796 216.994 78.2697 216.957 78.1502C216.919 78.0308 216.908 77.9046 216.923 77.7803C216.931 77.6535 216.965 77.5298 217.025 77.4177C217.084 77.3055 217.168 77.2075 217.269 77.1304C217.528 76.961 217.842 76.896 218.148 76.9484L224.843 77.5656L225.031 75.5284C225.034 75.2718 225.132 75.0255 225.307 74.8374C225.384 74.767 225.476 74.7143 225.576 74.683C225.675 74.6516 225.781 74.6424 225.885 74.656C225.991 74.6608 226.096 74.6899 226.19 74.7408C226.284 74.7918 226.365 74.8634 226.428 74.9503C226.56 75.1654 226.611 75.421 226.571 75.6704L226.024 81.6051C226.021 81.8651 225.921 82.1145 225.744 82.3049C225.666 82.3762 225.574 82.4297 225.474 82.4616C225.373 82.4934 225.267 82.503 225.163 82.4895C225.058 82.4838 224.955 82.4548 224.863 82.4047C224.77 82.3545 224.69 82.2844 224.628 82.1994C224.492 81.9798 224.441 81.7179 224.484 81.4631Z" fill="#FDEC45"/>
<path d="M220.405 96.7007L217.521 95.2121L219.244 100.244C219.314 100.435 219.367 100.632 219.402 100.833C219.418 101.007 219.38 101.182 219.292 101.334C219.191 101.553 219.008 101.722 218.782 101.806C218.68 101.844 218.572 101.859 218.463 101.852C218.355 101.844 218.25 101.814 218.154 101.763C218.019 101.681 217.902 101.572 217.811 101.443C217.72 101.314 217.657 101.168 217.624 101.013L216.751 97.998L212.203 98.6063C211.938 98.6476 211.671 98.6664 211.403 98.6625C211.205 98.6591 211.01 98.6117 210.832 98.5237C210.741 98.4772 210.662 98.412 210.599 98.3322C210.536 98.2525 210.491 98.1601 210.466 98.0614C210.409 97.827 210.445 97.5793 210.567 97.3709C210.661 97.1668 210.815 96.9961 211.008 96.8811C211.189 96.7844 211.389 96.7276 211.595 96.7148C211.811 96.6992 212.007 96.6862 212.182 96.6773L216.228 96.2718L215.625 94.2336L213.924 93.3564C213.637 93.2363 213.406 93.0106 213.28 92.7257C213.238 92.6058 213.222 92.4782 213.233 92.3516C213.244 92.2249 213.282 92.102 213.344 91.9911C213.418 91.8471 213.53 91.7257 213.667 91.6391C213.804 91.5489 213.963 91.4981 214.126 91.4924C214.269 91.4964 214.409 91.528 214.54 91.5855C214.684 91.6458 214.887 91.7434 215.149 91.8782L221.265 95.0343C221.546 95.1538 221.774 95.3714 221.907 95.6468C221.953 95.7657 221.971 95.8932 221.961 96.02C221.95 96.1469 221.912 96.2698 221.848 96.38C221.794 96.4956 221.716 96.5983 221.619 96.6811C221.522 96.7639 221.408 96.8249 221.285 96.8599C220.982 96.9205 220.667 96.8636 220.405 96.7007V96.7007Z" fill="#FDEC45"/>
<path d="M170.553 55.7455L155.447 48.6786V43.5322L165.544 37.4492H170.515L170.553 55.7455Z" fill="#F59E04"/>
<path d="M170.447 55.7455L185.553 48.6786V43.5322L175.456 37.4492H170.485L170.447 55.7455Z" fill="#F59E04"/>
<path d="M162.776 104.187C162.789 104.002 162.802 103.817 162.814 103.633C163.706 103.743 163.717 103.743 163.704 102.736C163.68 100.918 163.65 99.1002 163.605 97.2829C163.596 96.9211 163.752 96.4356 163.128 96.3622C163.08 96.3565 163.024 96.1739 163.021 96.0721C163.009 95.6571 163.016 95.2415 163.016 94.8132C163.571 94.8586 163.587 94.4821 163.589 94.1462C163.602 92.227 163.605 90.3078 163.597 88.3886C163.596 88.2488 163.565 88.0253 163.479 87.9836C163.037 87.7695 163.133 87.3993 163.158 87.0471C163.184 86.6942 163.105 86.2586 163.282 86.0074C163.578 85.5029 163.7 84.9148 163.629 84.3339C163.633 82.8838 163.631 81.4338 163.631 79.9458C164.022 79.9902 164.286 79.9368 164.117 79.5608C163.862 79.6105 163.564 79.7606 163.434 79.6696C163.29 79.569 163.286 79.2499 163.249 79.0216C163.222 78.8546 163.251 78.6791 163.234 78.5096C163.168 77.8777 163.201 77.2932 163.858 76.9476C163.897 76.9214 163.929 76.8873 163.954 76.8476C163.978 76.808 163.994 76.7635 164 76.7173C164.072 76.1543 164.108 75.5874 164.108 75.0198C164.06 73.8763 163.952 72.7354 163.857 71.4506L163.417 71.8663L163.109 71.4154C163.151 70.1936 163.194 68.9718 163.237 67.75C163.834 67.7431 163.483 67.2452 163.522 67.0411C163.535 66.6294 163.48 66.2183 163.36 65.8243C163.355 65.7954 163.348 65.767 163.337 65.7396C163.358 65.528 163.38 65.3163 163.4 65.1046C163.398 65.049 163.396 64.9934 163.394 64.9378C163.405 64.7672 163.415 64.5966 163.425 64.4259C163.424 64.1806 163.422 63.9353 163.421 63.69C163.478 63.1968 163.536 62.7038 163.589 62.2101C163.557 62.1952 163.523 62.184 163.488 62.1767C163.499 61.7878 163.511 61.3989 163.522 61.01C163.501 60.9106 163.48 60.8112 163.458 60.7116C163.468 60.2863 163.49 59.8608 163.484 59.4356C163.464 59.3049 163.495 59.1716 163.57 59.0629C163.646 58.9541 163.759 58.8782 163.889 58.8507C164.114 58.7324 164.32 58.5795 164.498 58.3975C165.12 58.1304 165.736 57.8501 166.366 57.6041C166.561 57.5497 166.763 57.5202 166.966 57.5162L166.664 58.7636L167.239 59.5301L166.863 59.8441L168.537 60.8902L168.445 61.1214L167.389 60.818L167.806 61.4844L167.814 61.4762L166.846 61.3189V62.1127L167.605 62.0307L167.385 62.5094C167.717 62.4303 168.039 62.2498 168.29 62.3199C168.605 62.4078 168.856 62.7125 169.15 62.8991C169.199 62.9234 169.252 62.9355 169.306 62.9343C169.36 62.9332 169.412 62.9189 169.46 62.8926C170.101 62.286 170.873 62.7144 171.576 62.6192C172.06 62.5538 172.556 62.5797 173.168 62.5611L172.6 62.0112C172.763 61.9107 172.926 61.8096 173.09 61.7099C173.326 61.5661 173.64 61.4735 173.432 61.0764C173.396 61.0083 173.47 60.8831 173.455 60.948C173.694 61.1911 173.835 61.3336 173.975 61.476C174.128 61.8868 174.177 61.9004 174.582 61.5663L173.968 61.4827C174.032 61.3624 174.104 61.2461 174.183 61.1345C174.309 60.9742 174.452 60.827 174.583 60.6789L173.909 60.7574L174.081 60.0775C173.846 60.1895 173.604 60.2856 173.357 60.3651C173.276 60.3868 173.154 60.2561 173.051 60.1951C173.113 60.1139 173.185 60.0401 173.263 59.9752C173.687 59.6992 174.117 59.4329 174.545 59.1632L174.386 58.9047C174.063 59.1093 173.747 59.3268 173.414 59.5144C173.15 59.6724 172.87 59.8011 172.578 59.8981C172.372 59.9154 172.164 59.9213 171.957 59.9158C171.9 59.9313 171.848 59.9607 171.805 60.0013C171.762 60.042 171.73 60.0926 171.711 60.1487C171.703 60.2359 171.818 60.362 171.911 60.4248C172.071 60.4907 172.239 60.5364 172.411 60.5607C172.276 60.5979 172.144 60.6432 172.014 60.6964C171.872 60.774 171.736 60.8645 171.598 60.9497C171.759 61.0455 171.925 61.2274 172.082 61.2198C172.462 61.1805 172.838 61.115 173.209 61.0239C173.132 61.222 172.978 61.4533 172.791 61.4848C172.307 61.56 171.818 61.591 171.329 61.5774C170.594 61.5651 169.86 61.5122 169.126 61.4665C168.986 61.446 168.849 61.4131 168.715 61.3683L168.735 61.1599L171.281 61.0318L171.271 60.7719H168.877L168.845 60.6087C169.56 60.136 170.398 59.8822 171.255 59.8788C170.871 59.823 170.484 59.7884 170.096 59.7752C169.933 59.7559 169.789 59.581 169.636 59.4768C169.793 59.3759 169.943 59.2054 170.109 59.1878C170.514 59.1619 170.919 59.1572 171.325 59.1739L171.331 59.0615L169.461 58.8975L169.995 58.2693C169.6 58.2327 169.293 58.1977 168.984 58.1773C168.677 58.1571 168.478 58.1006 168.721 57.7386C168.769 57.6667 168.703 57.5176 168.687 57.3908C168.463 57.5792 168.242 57.8275 168.191 57.7966C167.884 57.5897 167.59 57.3627 167.313 57.1171C167.697 56.9494 168.082 56.7816 168.466 56.6139L168.836 56.6845L168.831 56.6776C168.881 56.7877 168.91 56.9747 168.984 56.9955C169.214 57.0967 169.465 57.14 169.715 57.1218C169.965 57.1036 170.207 57.0244 170.419 56.8911C170.863 56.6711 171.336 56.5163 171.823 56.4316L172.017 56.4381L172.728 56.4416L174.196 57.036L174.485 57.2392C174.573 57.131 174.641 57.0086 174.687 56.8773C174.745 56.5031 174.766 56.1232 174.802 55.7456L174.989 55.7496C174.989 56.056 174.971 56.3636 174.993 56.6685C175.03 57.1907 175.05 57.7122 175.717 57.8951C176.135 58.0362 176.543 58.204 176.94 58.3977C177.061 58.4677 177.183 58.5378 177.304 58.6078C177.317 58.94 177.5 58.9876 177.771 58.8862L177.899 58.942C177.927 60.1296 177.963 61.3171 177.98 62.5048C177.993 63.3686 177.996 64.2332 177.975 65.0967C177.954 65.9512 177.866 66.8046 178.303 67.6027C178.36 67.778 178.382 67.963 178.366 68.1467C178.42 68.9899 178.467 69.8334 178.526 70.6762C178.53 70.734 178.615 70.7861 178.663 70.8409C178.666 72.2122 178.67 73.5835 178.673 74.9548C178.574 74.7974 178.5 74.6249 178.456 74.444C178.401 73.6526 178.387 72.8585 178.34 72.0665C178.307 71.9156 178.253 71.7703 178.179 71.6353C178.098 71.7597 177.957 71.8804 177.949 72.0093C177.921 72.4749 177.934 72.9432 177.938 73.4105C177.945 74.4705 177.94 75.5309 177.977 76.5899C177.984 76.795 178.11 77.1103 178.263 77.1726C178.397 77.2149 178.511 77.3059 178.582 77.4276C178.653 77.5494 178.676 77.6932 178.647 77.831C178.669 77.9833 178.717 78.1308 178.789 78.267L178.798 78.4917L178.598 79.3912L178.073 79.3553C178.034 79.4433 177.991 79.4948 177.991 79.5463C177.991 81.2467 177.984 82.9471 178.006 84.6472C178.052 84.882 178.181 85.0925 178.37 85.2405C178.558 85.3885 178.793 85.4643 179.032 85.4542C179.055 85.9379 179.078 86.4215 179.101 86.9052C179.1 87.1973 179.099 87.4893 179.099 87.7813C179.09 88.5545 179.08 89.3278 179.071 90.1011C179.025 90.4894 178.979 90.8776 178.93 91.2919C178.694 90.0799 179.174 88.805 178.487 87.6568C178.373 87.778 178.303 87.9335 178.288 88.0987C178.28 89.8835 178.268 91.6687 178.308 93.4527C178.313 93.6851 178.601 93.9116 178.758 94.1402C178.901 94.2918 179.017 94.4663 179.102 94.6564C179.141 94.9191 179.15 95.1854 179.128 95.4502C179.134 96.1445 179.092 96.176 178.445 95.9528C178.393 96.0507 178.356 96.1563 178.336 96.2657C178.316 98.3351 178.291 100.405 178.307 102.474C178.309 102.706 178.556 102.936 178.689 103.167L179.277 102.818L179.462 103.048C179.463 103.067 179.463 103.086 179.465 103.104C179.561 104.033 179.561 104.033 180.475 104.16C180.675 104.223 180.876 104.287 181.076 104.351L181.389 104.429L181.594 104.542L181.601 104.549L181.699 105.665C181.734 106.709 181.77 107.753 181.805 108.797C181.818 109.048 181.831 109.299 181.844 109.551H172.945V103.543C172.606 103.317 172.606 103.317 172.153 103.787C172.155 103.611 172.13 103.436 172.079 103.267C172.047 103.199 172.002 103.139 171.945 103.089C171.888 103.04 171.821 103.003 171.749 102.981C171.671 102.979 171.593 102.995 171.522 103.028C171.451 103.061 171.388 103.111 171.34 103.172C171.247 103.345 171.202 103.539 171.21 103.735C171.217 103.93 171.277 104.121 171.382 104.286C171.487 104.451 171.635 104.585 171.809 104.674C171.984 104.763 172.179 104.804 172.374 104.793V109.551H172.146C172.119 109.175 172.093 108.799 172.064 108.423C172.012 107.734 171.975 107.043 171.889 106.359C171.873 106.234 171.656 106.134 171.532 106.022C171.443 106.147 171.291 106.266 171.279 106.398C171.236 106.848 171.257 107.305 171.22 107.756C171.211 107.868 171.078 107.97 171.002 108.076C170.925 107.97 170.794 107.871 170.78 107.758C170.728 107.31 170.727 106.856 170.674 106.408C170.658 106.278 170.5 106.046 170.459 106.057C170.262 106.109 169.996 106.183 169.917 106.334C169.823 106.581 169.782 106.845 169.798 107.108C169.772 107.922 169.764 108.737 169.75 109.551H169.522C169.514 107.695 169.51 105.839 169.494 103.983C169.475 103.791 169.437 103.601 169.38 103.416L169.229 103.449C168.914 105.474 169.104 107.517 169.065 109.551H160.736C160.706 109.463 160.688 109.372 160.682 109.28C160.753 108.052 160.825 106.824 160.914 105.598C160.919 105.526 160.939 105.456 160.973 105.393C161.008 105.331 161.056 105.276 161.114 105.234C161.457 105.097 161.816 105.006 162.182 104.962C162.758 104.914 162.887 104.783 162.776 104.187ZM171.681 79.0753L171.954 77.5895L171.662 77.2238L172.08 76.7716L171.36 76.4845C171.273 76.7243 171.17 76.9598 171.105 77.2054C171.072 77.3707 171.059 77.5396 171.067 77.7081C171.064 78.5641 171.066 79.4201 171.066 80.3104L171.834 80.2699C171.816 79.9668 171.812 79.7371 171.785 79.5099C171.761 79.3927 171.727 79.2779 171.683 79.1667C171.693 79.1369 171.692 79.1046 171.681 79.0753V79.0753ZM164.809 88.2794L164.658 89.0318L164.648 89.7669C164.63 91.1687 164.606 92.5706 164.613 93.9723C164.613 94.0568 164.89 94.2368 164.995 94.2088C165.973 93.9484 166.946 93.668 167.909 93.3575C168.241 93.2505 168.544 92.8996 168.853 92.909C169.552 92.9304 169.385 92.486 169.422 92.107C169.456 91.7679 169.525 91.4323 169.578 91.0951L169.748 91.0898C169.796 91.2329 169.83 91.38 169.85 91.5293C169.828 91.8125 169.834 92.0971 169.867 92.3792C169.967 92.5979 170.104 92.7978 170.271 92.9703C170.412 92.7918 170.536 92.6007 170.641 92.3996C170.672 92.2507 170.675 92.0974 170.649 91.9476C170.646 91.2496 170.661 90.5507 170.627 89.8543C170.617 89.6503 170.492 89.3011 170.375 89.2809C169.991 89.2149 169.961 89.521 169.94 89.8374C169.898 90.1699 169.834 90.4992 169.748 90.823L169.541 90.81L169.358 89.937L169.079 89.9538V91.915L168.823 91.9059C168.823 91.2881 168.805 90.6696 168.829 90.0527C168.843 89.704 168.826 89.385 168.457 89.2504C167.923 89.0557 167.381 88.8762 166.833 88.727C166.22 88.5604 165.596 88.4349 164.977 88.2916L164.809 88.2794ZM164.686 84.7007L164.669 85.0724C164.546 85.3771 164.67 85.5642 164.968 85.451C165.767 85.1469 166.548 84.7926 167.332 84.4489C167.768 84.2578 168.195 84.0479 168.825 83.7539C168.849 83.1889 168.842 82.6231 168.805 82.0588C168.786 81.9159 168.738 81.7784 168.663 81.6551C168.588 81.5319 168.488 81.4256 168.37 81.343C167.72 81.0014 167.048 80.7051 166.357 80.4565C165.895 80.3089 165.425 80.1863 164.95 80.0892C164.859 80.2222 164.793 80.3709 164.755 80.5278C164.73 81.2546 164.736 81.9823 164.731 82.7098L164.686 84.7007ZM171.795 102.279L171.936 102.3C172 102.201 172.123 102.101 172.121 102.003C172.1 100.606 172.071 99.208 172.01 97.8117C172.005 97.6961 171.772 97.5338 171.62 97.4982C171.468 97.5011 171.32 97.5492 171.194 97.6364C171.336 98.2162 170.713 98.7526 171.128 99.3634C171.306 99.6251 171.196 99.9374 170.709 100.12V97.4342C170.408 97.5604 170.174 97.5826 170.109 97.6993C169.827 98.1843 169.714 98.7489 169.787 99.3051C169.811 99.7542 169.799 100.204 169.752 100.652L169.484 100.649C169.28 98.8514 169.538 97.0254 169.377 95.2252L169.157 95.2258L169.074 101.024L168.863 101.024C168.852 100.823 168.833 100.622 168.832 100.421C168.832 99.7559 168.873 99.0877 168.825 98.4259C168.804 98.1372 168.666 97.67 168.479 97.6111C167.394 97.27 166.28 97.022 165.173 96.7524C164.763 96.6526 164.586 96.828 164.566 97.2559C164.477 99.1104 164.357 100.963 164.271 102.818C164.252 103.219 164.447 103.484 164.914 103.362C165.661 103.168 166.409 102.978 167.153 102.772C167.754 102.606 168.367 102.237 168.943 102.292C169.603 102.355 169.62 102.121 169.579 101.66C169.544 101.267 169.671 101.011 170.106 101.05C170.49 101.083 170.675 100.939 170.689 100.548C170.692 100.466 170.795 100.387 170.803 100.377C171.119 100.657 171.49 100.854 171.644 101.16C171.756 101.522 171.807 101.9 171.795 102.279V102.279ZM177.529 99.7496C177.529 98.9128 177.526 98.0759 177.529 97.2391C177.533 96.4566 177.257 96.2418 176.511 96.4778C175.886 96.6752 175.277 96.9287 174.644 97.0869C174.306 97.1711 173.942 97.0487 173.888 97.5996C173.854 97.9426 173.522 98.2671 173.522 98.5999C173.522 99.1614 173.033 99.6975 173.429 100.275C173.447 100.302 173.373 100.38 173.376 100.431C173.415 100.965 173.457 101.499 173.512 102.031C173.525 102.067 173.546 102.099 173.573 102.124C173.601 102.15 173.634 102.169 173.671 102.179C174.462 102.33 175.256 102.468 176.048 102.616C176.241 102.652 176.428 102.716 176.619 102.76C176.839 102.845 177.074 102.886 177.309 102.881C177.41 102.862 177.514 102.553 177.518 102.373C177.54 101.499 177.528 100.624 177.529 99.7496V99.7496ZM177.172 79.7067C176.043 80.1136 175.055 80.4759 174.062 80.8255C173.809 80.8964 173.587 81.0505 173.432 81.263C173.277 81.4755 173.199 81.7339 173.209 81.9966C173.204 82.5059 173.188 83.0155 173.201 83.5244C173.225 83.6853 173.269 83.8425 173.333 83.9922C173.736 83.8465 173.886 84.2659 174.164 84.3629C175.032 84.6648 175.922 84.9005 176.805 85.1579C177.131 85.2529 177.256 85.1284 177.24 84.7864C177.204 84.0135 177.184 83.2395 177.175 82.4657C177.164 81.5963 177.172 80.7265 177.172 79.7067ZM172.905 91.581L173.09 91.5971C173.164 91.7569 173.217 91.9258 173.248 92.0995C173.261 92.3887 172.975 92.7308 173.458 92.9103C173.749 93.0186 174.013 93.2086 174.308 93.2986C174.988 93.5058 175.684 93.6605 176.365 93.8631C176.881 94.0164 177.282 93.9223 177.283 93.5636C177.285 91.7984 177.262 90.033 177.233 88.2679C177.228 87.9624 177.03 87.8987 176.755 87.9954C175.847 88.3145 174.935 88.6239 174.027 88.9443C173.888 88.9934 173.686 89.0505 173.644 89.1562C173.477 89.5729 173.274 89.8805 172.754 89.8321C172.684 89.8256 172.529 90.0137 172.527 90.1145C172.507 90.8927 172.516 91.6717 172.516 92.4505L172.606 92.4568L172.905 91.581ZM164.755 77.0055C165.757 76.5678 166.649 76.2166 167.505 75.7908C168.111 75.4888 168.843 75.239 168.751 74.3095C168.738 74.1816 168.858 74.0407 168.916 73.9058L168.812 74.0212C168.445 73.2171 167.698 73.0117 167.013 72.7225C166.302 72.4221 165.571 72.1702 164.755 71.862V77.0055ZM177.085 74.9811C177.041 74.4329 176.967 73.4306 176.876 72.43C176.827 71.8948 176.684 71.8379 176.2 72.0564C175.698 72.3074 175.177 72.5169 174.641 72.6827C174.375 72.7292 174.122 72.8297 173.897 72.978C173.671 73.1264 173.479 73.3193 173.331 73.545C173.184 73.7707 173.084 74.0242 173.038 74.29C172.993 74.5558 173.002 74.8281 173.066 75.0902C173.076 75.1838 173.121 75.2702 173.193 75.3315C173.603 75.5673 174.028 75.7758 174.465 75.9556C174.92 76.1251 175.409 76.2015 175.874 76.3455C177.102 76.7253 177.1 76.7311 177.085 74.9811ZM168.729 78.4311C168.729 77.9568 168.708 77.6119 168.734 77.2708C168.776 76.7365 168.458 76.6799 168.09 76.8093C167.435 77.039 166.875 77.4954 166.148 77.5777C165.825 77.6375 165.517 77.7589 165.24 77.9351C165.033 78.0554 164.856 78.2208 164.722 78.4191C164.703 78.4876 164.702 78.5598 164.719 78.6289C164.736 78.6979 164.771 78.7614 164.82 78.8132C165.441 79.1782 166.103 79.4708 166.791 79.6853C168.521 80.0802 168.682 80.1424 169.15 81.3963C169.191 81.5043 169.229 81.6129 169.268 81.7213L169.336 81.699V79.8365L168.874 80.0843C168.804 79.5341 168.656 79.0339 169.308 78.7711L168.729 78.4311ZM173.501 77.951C172.901 78.3317 173.08 78.8776 173.083 79.3648C173.087 80.0381 173.305 80.1824 173.93 79.9246C174.859 79.5415 175.78 79.1401 176.694 78.7206C176.874 78.6379 177.001 78.4384 177.152 78.2927C177 78.1408 176.831 78.0071 176.647 77.8945C176.111 77.621 175.554 77.3873 174.983 77.1952C174.351 77.0054 173.688 76.9187 173.046 76.7886C172.913 77.3438 172.788 77.7991 173.501 77.951V77.951ZM172.697 65.074C172.342 65.1543 171.983 65.2139 171.622 65.2523C171.017 65.2826 170.41 65.2612 169.804 65.2697C169.465 65.2744 169.032 65.1762 168.818 65.3469C168.643 65.4864 168.753 65.9593 168.698 66.2776C168.617 66.7424 168.858 66.9197 169.259 66.9258C170.262 66.941 171.266 66.9464 172.269 66.9197C172.414 66.9159 172.667 66.7231 172.677 66.6015C172.722 66.0657 172.697 65.5239 172.697 65.074V65.074ZM174.414 85.6209C174.125 85.48 173.812 85.3952 173.492 85.371C173.271 85.405 173.06 85.6813 172.907 85.8948C172.886 85.968 172.885 86.0453 172.903 86.1191C172.921 86.193 172.958 86.2609 173.01 86.3164C173.475 86.6012 173.336 86.8177 173.003 87.0961C172.827 87.196 172.688 87.3499 172.606 87.535C172.524 87.7201 172.504 87.9266 172.548 88.1242C172.793 87.7669 173.026 87.614 173.318 87.9864C173.367 88.0478 173.572 88.0266 173.686 87.9885C174.67 87.6604 175.653 87.3293 176.628 86.976C176.865 86.8662 177.092 86.735 177.306 86.5841L177.262 86.4098C176.715 86.231 176.156 86.0807 175.626 85.8626C175.57 85.8278 175.507 85.8058 175.441 85.7982C175.376 85.7905 175.309 85.7975 175.247 85.8185C175.184 85.8395 175.127 85.874 175.08 85.9196C175.032 85.9653 174.995 86.0209 174.972 86.0824C174.905 86.2387 174.815 86.3836 174.703 86.5118C174.6 86.6021 174.351 86.6906 174.296 86.6397C174.146 86.5058 174.046 86.3238 174.015 86.1248C174.006 86.0064 174.205 85.8721 174.414 85.6209L174.414 85.6209ZM167.183 86.9832L166.464 86.5387L166.675 85.8708C166.119 86.0641 165.675 86.2528 165.213 86.3669C164.891 86.4463 164.532 86.5385 164.655 86.8971C164.724 87.1001 165.13 87.2066 165.401 87.3146C165.563 87.379 165.841 87.294 165.922 87.3938C166.239 87.7855 166.644 87.7201 167.06 87.7438C167.369 87.7981 167.673 87.8741 167.971 87.9714C168.199 88.0183 168.549 88.1262 168.641 88.0237C168.777 87.8064 168.834 87.5488 168.802 87.2945C168.784 86.8822 168.685 86.4741 168.643 86.0619C168.619 85.8239 168.639 85.5814 168.639 85.2036L166.856 85.739C167.168 85.9157 167.584 86.0597 167.574 86.1628C167.493 86.4572 167.36 86.7349 167.183 86.9832L167.183 86.9832ZM172.416 96.6595C172.438 96.9036 172.472 97.1028 172.473 97.3021C172.483 98.7649 172.486 100.228 172.492 101.69C172.493 101.948 172.493 102.212 172.879 102.076C172.808 101.823 172.758 101.565 172.729 101.305C172.707 100.66 172.709 100.013 172.724 99.3673C172.745 98.4772 172.804 97.5877 172.813 96.6975C172.821 95.9142 172.786 95.1303 172.756 94.3472C172.752 94.2582 172.66 94.1727 172.608 94.0855L172.453 94.1091V95.7397L172.204 95.7675C172.146 95.5878 172.116 95.4004 172.114 95.2118C172.228 94.4081 172.205 94.3465 171.485 94.0417C170.811 94.4067 171.064 95.0381 171.053 95.5779C171.029 96.6979 171.223 96.8531 172.416 96.6595L172.416 96.6595ZM164.569 95.4349C164.703 95.5428 164.754 95.6134 164.818 95.6303C165.943 95.9266 167.066 96.232 168.199 96.4889C168.352 96.5236 168.711 96.3196 168.72 96.2056C168.772 95.5658 168.745 94.9198 168.745 94.1522L164.569 95.4349ZM177.345 94.9668C176.653 94.8646 176.089 94.8183 175.544 94.6903C174.992 94.5607 174.465 94.3246 173.914 94.186C173.629 94.1142 173.398 94.221 173.409 94.6075C173.415 94.8228 173.277 95.0455 173.297 95.2562C173.313 95.5811 173.396 95.899 173.543 96.1895C173.59 96.2721 173.998 96.1665 174.234 96.1162C174.526 96.0541 174.811 95.9626 175.099 95.879C175.744 95.6911 176.39 95.5064 177.031 95.3037C177.119 95.2761 177.176 95.1532 177.345 94.9668L177.345 94.9668ZM171.224 90.2906C171.131 90.5101 171.061 90.739 171.017 90.9734C170.972 91.3567 171.001 91.7486 170.992 92.1366C170.983 92.5388 171.076 92.874 171.559 92.8781C171.982 92.8817 172.183 92.5656 172.143 92.0883C172.113 91.7199 172.143 91.3468 172.124 90.977C172.127 90.5645 172.084 90.1529 171.995 89.7502C171.881 89.5251 171.687 89.3507 171.451 89.2613C171.362 89.2198 171.038 89.4164 171.034 89.5125C171.061 89.7794 171.125 90.0412 171.224 90.2906V90.2906ZM172.956 57.5622C172.438 57.4957 172.102 57.4261 171.763 57.4146C171.06 57.3909 170.355 57.404 169.651 57.3895C169.353 57.3833 169.033 57.3058 168.995 57.7885C169.091 57.8081 169.188 57.8194 169.286 57.8224C169.961 57.7806 170.635 57.7184 171.311 57.6998C171.438 57.6963 171.569 57.8597 171.698 57.946C171.612 58.0744 171.507 58.1892 171.387 58.2866C171.233 58.3547 171.072 58.4028 170.906 58.4296C171.498 58.3517 171.821 58.4615 171.637 59.1812C171.592 59.3553 171.624 59.853 172.059 59.7574C172.375 59.6444 172.675 59.4899 172.95 59.298C172.792 59.1429 172.635 58.9876 172.477 58.8321C172.466 58.8172 172.456 58.801 172.448 58.7839L172.742 58.2726L172.243 57.9968L172.956 57.5622ZM169.877 80.4231C170.048 80.271 170.344 80.1362 170.376 79.9552C170.478 79.3419 170.53 78.7215 170.533 78.0999C170.54 77.4828 170.715 76.7778 169.877 76.4C169.825 76.5053 169.787 76.6163 169.762 76.7308C169.721 77.1503 169.697 77.5715 169.669 77.9922C169.663 78.0855 169.626 78.2055 169.669 78.2689C170.119 78.9339 169.609 79.6441 169.877 80.4231ZM170.532 82.6107L170.558 82.6108C170.573 82.2694 170.568 81.9274 170.546 81.5865C170.532 81.46 170.362 81.2447 170.285 81.2538C170.138 81.2712 169.89 81.4161 169.886 81.5154C169.858 82.2967 169.868 83.08 169.898 83.8615C169.901 83.94 170.121 84.0731 170.233 84.0659C170.299 84.0504 170.36 84.0184 170.41 83.9729C170.46 83.9274 170.497 83.8698 170.518 83.8057C170.552 83.4098 170.532 83.0095 170.532 82.6107ZM171.679 86.1784C171.72 86.0947 171.749 86.0474 171.768 85.9966C171.875 85.8034 171.944 85.5918 171.973 85.3729C171.968 85.2692 171.625 85.0627 171.561 85.1029C171.352 85.2149 171.191 85.4013 171.111 85.6255C171.036 86.1235 171.016 86.6283 171.052 87.1307C171.06 87.2695 171.297 87.4488 171.463 87.5015C171.558 87.5317 171.756 87.3705 171.848 87.2501C172.158 86.8475 172.175 86.4603 171.679 86.1784ZM169.347 63.13C169.243 63.3322 169.192 63.5572 169.199 63.7843C169.205 64.0113 169.269 64.2331 169.384 64.429C169.632 64.8055 170.002 64.5857 170.272 64.3988C170.568 64.1944 170.736 64.1052 170.991 64.4914C171.102 64.6586 171.519 64.6229 171.797 64.6793L171.827 64.5403L171.487 64.3696L171.812 63.8654C171.44 63.8654 171.167 63.8714 170.895 63.8642C170.328 63.8492 169.65 64.1548 169.347 63.13V63.13ZM171.813 83.9875C171.785 83.7956 171.689 83.5973 171.751 83.4926C172.145 82.8257 171.645 82.1899 171.701 81.5368C171.71 81.4419 171.464 81.3252 171.336 81.2186C171.251 81.3602 171.11 81.4947 171.091 81.6449C171.039 82.0446 171.033 82.4509 171.021 82.8549C171.004 83.1057 171.074 83.3547 171.218 83.5607C171.362 83.7666 171.572 83.9172 171.813 83.9875V83.9875ZM171.366 73.6531C171.241 73.7466 171.057 73.822 171.058 73.8935C171.066 74.3772 171.104 74.8599 171.171 75.339C171.182 75.4154 171.417 75.5134 171.538 75.5003C171.616 75.4918 171.68 75.303 171.741 75.1898C171.787 75.1038 171.813 75.0071 171.857 74.9199C171.973 74.6909 172.25 74.3478 172.183 74.2592C171.943 74.0171 171.667 73.8128 171.366 73.6531V73.6531ZM169.942 94.0814C169.924 94.2154 169.914 94.3381 169.892 94.4582C169.777 95.0576 170.467 95.6791 169.851 96.2802C169.834 96.2963 170.053 96.6664 170.148 96.66C170.32 96.6485 170.625 96.4787 170.626 96.3737C170.629 95.6454 170.569 94.9168 170.529 94.1961L169.942 94.0814ZM169.938 86.8589L169.747 86.9732C169.91 87.1259 170.056 87.3809 170.24 87.4108C170.666 87.4804 170.576 87.1116 170.575 86.8632C170.585 86.4506 170.567 86.0377 170.52 85.6277C170.498 85.4768 170.297 85.3524 170.177 85.2159C170.077 85.3441 169.896 85.4686 169.89 85.6012C169.871 86.0188 169.917 86.4394 169.938 86.8589V86.8589ZM170.752 74.3034L170.253 73.6985C170.058 73.9361 169.894 74.1966 169.763 74.4742C169.73 74.5681 170 74.7698 170.132 74.9222L170.752 74.3034ZM166.22 67.698C166.442 67.582 166.826 67.4392 166.813 67.3776C166.723 67.0631 166.6 66.7588 166.446 66.4698C166.047 66.7906 166.024 66.9198 166.22 67.698V67.698ZM164.859 68.563C165.015 68.2694 165.154 67.9676 165.277 67.6589C165.292 67.6161 165.031 67.388 164.949 67.4129C164.694 67.4903 164.54 68.1779 164.859 68.563V68.563ZM169.14 88.0943V89.8122C169.317 89.5609 169.412 89.2609 169.412 88.9532C169.412 88.6456 169.317 88.3455 169.14 88.0943V88.0943ZM170.667 104.057L170.25 103.145C170.154 103.253 169.998 103.348 169.973 103.47C169.896 103.843 170.024 104.096 170.667 104.057L170.667 104.057ZM171.65 57.0826L172.805 56.908C171.941 56.4718 171.891 56.4788 171.65 57.0826V57.0826ZM171.109 87.9104L171.126 88.1479C171.389 88.1698 171.654 88.1623 171.915 88.1256C171.989 88.1084 172.001 87.8238 172.072 87.5382L171.109 87.9104ZM171.596 63.2468L171.599 63.1386H170.133L170.131 63.2468H171.596ZM178.181 77.518C178.163 77.5451 178.148 77.5736 178.135 77.6033C178.132 77.6103 178.165 77.6404 178.169 77.6379C178.196 77.6219 178.222 77.6039 178.246 77.5839C178.224 77.5624 178.202 77.5409 178.181 77.518V77.518Z" fill="#F59E04"/>
<path d="M169.75 109.551C169.765 108.737 169.772 107.922 169.798 107.108C169.782 106.845 169.823 106.581 169.918 106.334C169.996 106.183 170.262 106.109 170.459 106.057C170.5 106.046 170.658 106.278 170.674 106.408C170.727 106.856 170.728 107.31 170.781 107.758C170.794 107.871 170.925 107.97 171.002 108.076C171.078 107.97 171.212 107.868 171.221 107.756C171.257 107.305 171.236 106.848 171.279 106.398C171.291 106.266 171.444 106.147 171.532 106.022C171.656 106.134 171.873 106.234 171.889 106.359C171.975 107.043 172.012 107.734 172.064 108.423C172.093 108.799 172.119 109.175 172.146 109.551H171.119C171.174 109.336 171.203 109.115 171.206 108.894C171.195 108.766 171.042 108.65 170.953 108.529C170.858 108.644 170.708 108.747 170.68 108.876C170.652 109.1 170.646 109.326 170.663 109.551H169.75Z" fill="#F59E04"/>
<path d="M172.374 109.551V104.793C172.179 104.804 171.984 104.763 171.809 104.674C171.635 104.585 171.487 104.451 171.382 104.286C171.277 104.121 171.217 103.93 171.21 103.735C171.202 103.539 171.247 103.345 171.34 103.172C171.389 103.111 171.451 103.061 171.522 103.028C171.593 102.995 171.671 102.979 171.75 102.981C171.821 103.003 171.888 103.04 171.945 103.089C172.002 103.139 172.048 103.199 172.079 103.267C172.13 103.436 172.155 103.611 172.153 103.787C172.606 103.317 172.606 103.317 172.945 103.543V109.551H172.374Z" fill="#F59E04"/>
<path d="M169.065 109.551C169.104 107.517 168.914 105.474 169.229 103.449L169.38 103.417C169.436 103.601 169.475 103.791 169.494 103.983C169.51 105.839 169.514 107.695 169.522 109.551H169.065Z" fill="#F59E04"/>
<path d="M162.776 104.187C162.886 104.784 162.758 104.914 162.182 104.962C161.815 105.006 161.456 105.097 161.114 105.234C161.056 105.276 161.008 105.331 160.973 105.394C160.939 105.456 160.918 105.526 160.914 105.598C160.825 106.825 160.753 108.052 160.681 109.28C160.688 109.372 160.706 109.463 160.736 109.551H160.508C160.525 108.209 160.539 106.867 160.564 105.524C160.565 105.471 160.577 105.419 160.6 105.37C160.623 105.322 160.656 105.28 160.697 105.245C160.985 105.033 161.315 104.883 161.664 104.805C161.887 104.804 162.105 104.747 162.3 104.639C162.494 104.531 162.658 104.375 162.776 104.187Z" fill="#F59E04"/>
<path d="M170.663 109.551C170.646 109.326 170.652 109.1 170.68 108.876C170.708 108.747 170.858 108.644 170.953 108.529C171.042 108.65 171.195 108.766 171.206 108.894C171.203 109.115 171.173 109.336 171.119 109.551L170.663 109.551Z" fill="#F59E04"/>
<path d="M181.844 109.551C181.831 109.3 181.818 109.048 181.805 108.797C181.932 109.048 182.059 109.3 182.187 109.551H181.844Z" fill="#F59E04"/>
<path d="M163.109 71.4155L163.417 71.8664L163.858 71.4507C163.952 72.7355 164.06 73.8764 164.108 75.0199C164.108 75.5875 164.072 76.1544 164 76.7174C163.994 76.7636 163.978 76.8081 163.954 76.8477C163.929 76.8874 163.897 76.9215 163.858 76.9477C163.201 77.2933 163.168 77.8778 163.234 78.5097C163.251 78.6791 163.222 78.8547 163.249 79.0217C163.286 79.25 163.29 79.5691 163.434 79.6696C163.564 79.7607 163.862 79.6106 164.117 79.5609C164.286 79.9368 164.022 79.9903 163.631 79.9459C163.631 81.4339 163.633 82.884 163.629 84.334C163.7 84.9149 163.578 85.503 163.282 86.0075C163.105 86.2587 163.184 86.6943 163.158 87.0472C163.133 87.3994 163.037 87.7696 163.479 87.9837C163.565 88.0254 163.596 88.2489 163.597 88.3887C163.602 90.3079 163.599 92.2271 163.589 94.1463C163.587 94.4822 163.571 94.8587 163.016 94.8133C163.016 95.2416 163.009 95.6572 163.021 96.0722C163.024 96.174 163.08 96.3566 163.128 96.3623C163.752 96.4357 163.596 96.9212 163.605 97.2829C163.651 99.1003 163.68 100.918 163.704 102.736C163.717 103.743 163.706 103.743 162.814 103.633C162.8 101.886 162.766 100.14 162.776 98.3936C162.806 93.3008 162.847 88.2081 162.898 83.1155C162.917 81.1408 162.977 79.1666 163.002 77.1919C163.027 75.2958 163.03 73.3994 163.046 71.5032C163.046 71.4738 163.087 71.4447 163.109 71.4155Z" fill="#F59E04"/>
<path d="M174.296 53.854H174.776L175.77 50.1182C176.656 50.2463 176.924 50.6541 176.67 51.429C176.561 51.7608 176.633 51.8744 176.913 51.9626C176.922 54.1075 176.931 56.2526 176.94 58.3976C176.543 58.204 176.135 58.0361 175.717 57.895C175.05 57.7121 175.03 57.1907 174.993 56.6685C174.971 56.3636 174.989 56.0559 174.989 55.7495L174.802 55.7455C174.767 56.1232 174.745 56.503 174.687 56.8772C174.641 57.0085 174.573 57.131 174.486 57.2392L174.196 57.036C174.262 56.9103 174.385 56.7838 174.383 56.6592C174.368 55.724 174.328 54.7891 174.296 53.854Z" fill="#87A1AC"/>
<path d="M179.462 103.048L179.277 102.818L178.689 103.167C178.556 102.936 178.309 102.706 178.307 102.474C178.291 100.405 178.316 98.3353 178.336 96.2658C178.356 96.1564 178.392 96.0508 178.445 95.9529C179.092 96.1761 179.134 96.1447 179.128 95.4503C179.15 95.1856 179.141 94.9193 179.102 94.6566C179.017 94.4665 178.901 94.292 178.758 94.1403C178.6 93.9118 178.313 93.6853 178.307 93.4529C178.268 91.6689 178.28 89.8837 178.288 88.0989C178.303 87.9336 178.373 87.7782 178.487 87.657C179.174 88.8052 178.694 90.0801 178.93 91.2921C178.979 90.8778 179.025 90.4895 179.071 90.1012C179.139 90.2872 179.186 90.48 179.212 90.6763C179.304 94.4522 179.389 98.2283 179.468 102.005C179.476 102.352 179.464 102.7 179.462 103.048Z" fill="#FFCD0B"/>
<path d="M179.032 85.4544C178.793 85.4645 178.558 85.3887 178.37 85.2407C178.182 85.0927 178.052 84.8823 178.006 84.6474C177.984 82.9473 177.991 81.2469 177.991 79.5466C177.991 79.4951 178.034 79.4436 178.073 79.3555L178.598 79.3915L178.798 78.4919C178.866 79.3132 178.961 80.1334 178.997 80.9561C179.058 82.3316 179.085 83.7087 179.118 85.0853C179.105 85.2115 179.076 85.3355 179.032 85.4544V85.4544Z" fill="#87A1AC"/>
<path d="M178.662 70.841C178.615 70.7863 178.53 70.7341 178.526 70.6763C178.466 69.8336 178.419 68.99 178.366 68.1468C178.382 67.9631 178.36 67.7781 178.303 67.6028C177.866 66.8048 177.953 65.9513 177.975 65.0969C177.996 64.2333 177.993 63.3687 177.98 62.5049C177.963 61.3172 177.927 60.1297 177.899 58.9421C177.984 59.1113 178.047 59.2912 178.085 59.477C178.193 61.0989 178.296 62.7214 178.373 64.345C178.411 65.1305 178.365 65.9202 178.409 66.7051C178.462 67.0279 178.552 67.3434 178.678 67.6454C178.694 67.699 178.742 67.7495 178.741 67.8006C178.718 68.8141 178.69 69.8276 178.662 70.841Z" fill="#87A1AC"/>
<path d="M178.789 78.267C178.717 78.1308 178.669 77.9833 178.646 77.831C178.676 77.6932 178.653 77.5494 178.582 77.4276C178.511 77.3059 178.397 77.2149 178.263 77.1726C178.11 77.1103 177.984 76.795 177.977 76.5899C177.94 75.5309 177.945 74.4704 177.937 73.4105C177.934 72.9432 177.92 72.4749 177.949 72.0093C177.956 71.8804 178.098 71.7597 178.178 71.6353C178.253 71.7703 178.307 71.9156 178.339 72.0665C178.387 72.8584 178.401 73.6525 178.456 74.4439C178.5 74.6248 178.574 74.7974 178.673 74.9548C178.712 76.0588 178.75 77.1629 178.789 78.267Z" fill="#87A1AC"/>
<path d="M163.36 65.8245C163.48 66.2185 163.535 66.6295 163.522 67.0412C163.483 67.2454 163.834 67.7432 163.237 67.7501C163.278 67.1082 163.319 66.4663 163.36 65.8245Z" fill="#87A1AC"/>
<path d="M163.488 62.1768C163.523 62.184 163.557 62.1952 163.589 62.2101C163.536 62.7037 163.478 63.1968 163.42 63.69C163.322 63.4477 163.278 63.1872 163.289 62.9261C163.301 62.665 163.369 62.4094 163.488 62.1768V62.1768Z" fill="#87A1AC"/>
<path d="M181.698 105.665L181.601 104.549C182.01 104.888 181.836 105.278 181.698 105.665Z" fill="#F59E04"/>
<path d="M177.003 51.9341C177.261 51.8067 177.518 51.6794 177.776 51.552C177.518 51.6794 177.261 51.8068 177.003 51.9341Z" fill="#87A1AC"/>
<path d="M179.099 87.7813C179.099 87.4893 179.1 87.1973 179.101 86.9053C179.1 87.1973 179.099 87.4893 179.099 87.7813Z" fill="#87A1AC"/>
<path d="M177.771 58.8863C177.499 58.9878 177.317 58.9401 177.304 58.6079C177.46 58.7007 177.615 58.7935 177.771 58.8863Z" fill="#87A1AC"/>
<path d="M181.076 104.351C180.876 104.287 180.675 104.224 180.475 104.16C180.675 104.223 180.876 104.287 181.076 104.351Z" fill="#F59E04"/>
<path d="M163.4 65.1047C163.379 65.3164 163.358 65.5281 163.337 65.7398C163.358 65.5281 163.379 65.3164 163.4 65.1047Z" fill="#87A1AC"/>
<path d="M163.425 64.426C163.415 64.5967 163.405 64.7673 163.395 64.9379C163.162 64.7525 163.134 64.5796 163.425 64.426Z" fill="#87A1AC"/>
<path d="M184.128 48.0461L184.242 47.675C184.204 47.7988 184.166 47.9225 184.128 48.0461Z" fill="#87A1AC"/>
<path d="M163.458 60.7117C163.48 60.8112 163.501 60.9106 163.522 61.0101C163.501 60.9106 163.48 60.8111 163.458 60.7117Z" fill="#87A1AC"/>
<path d="M181.594 104.542L181.389 104.429L181.518 104.359L181.594 104.542Z" fill="#F59E04"/>
<path d="M184.267 47.4296L184.284 47.2148L184.267 47.4296Z" fill="#87A1AC"/>
<path d="M171.796 102.279C171.807 101.9 171.756 101.522 171.644 101.16C171.49 100.854 171.119 100.657 170.803 100.377C170.796 100.387 170.692 100.466 170.689 100.548C170.675 100.939 170.491 101.084 170.107 101.05C169.672 101.011 169.544 101.267 169.579 101.66C169.62 102.121 169.603 102.355 168.943 102.292C168.367 102.237 167.754 102.606 167.153 102.772C166.409 102.978 165.661 103.169 164.914 103.363C164.447 103.484 164.252 103.219 164.271 102.818C164.357 100.964 164.477 99.1105 164.566 97.256C164.587 96.8282 164.763 96.6527 165.173 96.7526C166.28 97.0221 167.394 97.2702 168.479 97.6113C168.667 97.6701 168.804 98.1373 168.825 98.426C168.873 99.0879 168.832 99.756 168.833 100.422C168.833 100.622 168.852 100.823 168.863 101.024L169.075 101.024L169.158 95.226L169.377 95.2253C169.538 97.0256 169.28 98.8515 169.485 100.649L169.752 100.652C169.8 100.205 169.811 99.7543 169.787 99.3053C169.714 98.7491 169.827 98.1844 170.109 97.6994C170.174 97.5827 170.409 97.5606 170.709 97.4343V100.12C171.196 99.9375 171.306 99.6252 171.128 99.3636C170.713 98.7527 171.336 98.2163 171.195 97.6366C171.32 97.5494 171.468 97.5012 171.621 97.4984C171.772 97.5339 172.005 97.6962 172.01 97.8119C172.071 99.2082 172.1 100.606 172.121 102.004C172.123 102.102 172.001 102.201 171.936 102.3L171.796 102.279ZM165.399 102.714C166.184 102.308 166.89 101.898 167.634 101.574C168.069 101.385 167.989 101.048 167.77 100.946C167.455 100.813 167.192 100.58 167.021 100.284C166.849 99.9885 166.779 99.6449 166.819 99.3053C166.82 99.28 166.768 99.254 166.686 99.1765C166.44 99.3794 166.138 99.5041 165.821 99.5344C165.503 99.5647 165.183 99.4993 164.903 99.3466C164.72 100.625 165.169 101.682 165.399 102.714V102.714ZM170.043 99.0096L170.059 99.2074L170.467 99.2361L170.444 98.9294L170.043 99.0096ZM170.475 98.4076C170.408 98.3265 170.359 98.2348 170.331 98.2408C170.27 98.2542 170.186 98.3096 170.175 98.361C170.166 98.4064 170.234 98.4906 170.288 98.5166C170.318 98.5309 170.388 98.4608 170.475 98.4076V98.4076Z" fill="#87A1AC"/>
<path d="M168.468 54.5035C168.665 54.531 168.857 54.5848 169.039 54.6634C169.374 54.8642 169.553 54.8072 169.539 54.4093C169.49 53.0467 169.409 51.6852 169.373 50.3224C169.333 48.8489 169.319 47.375 169.328 45.9005C169.329 45.6918 169.533 45.4846 169.637 45.2889C170.443 45.551 170.794 45.7584 171.199 44.8794C171.248 45.5248 171.292 46.1706 171.346 46.8156C171.404 47.5124 171.495 48.2073 171.527 48.9051C171.545 49.3148 171.445 49.7291 171.453 50.1403C171.481 51.561 171.526 52.9814 171.587 54.4013C171.595 54.5803 171.757 54.7525 171.847 54.9278C171.839 55.429 171.831 55.9303 171.823 56.4316C171.336 56.5163 170.863 56.671 170.42 56.891C170.207 57.0244 169.965 57.1036 169.715 57.1218C169.465 57.14 169.214 57.0966 168.984 56.9955C168.91 56.9746 168.881 56.7877 168.831 56.6776C168.894 56.693 168.957 56.7082 169.019 56.7235L169.025 56.632L168.836 56.6844C168.713 56.6609 168.59 56.6374 168.466 56.6139C168.603 56.4924 168.749 56.2574 168.875 56.2683C169.535 56.3258 169.474 55.9458 169.44 55.4974C169.417 55.182 169.355 54.978 169.025 54.8682C168.825 54.7716 168.637 54.649 168.468 54.5035V54.5035Z" fill="#87A1AC"/>
<path d="M164.977 88.2915C165.596 88.4349 166.22 88.5603 166.833 88.7269C167.381 88.8761 167.923 89.0556 168.457 89.2503C168.826 89.3849 168.843 89.7039 168.829 90.0527C168.805 90.6695 168.822 91.288 168.822 91.9058L169.079 91.9149V89.9538L169.358 89.9369L169.54 90.8099L169.748 90.8229C169.834 90.4991 169.898 90.1698 169.94 89.8374C169.961 89.521 169.991 89.2148 170.375 89.2809C170.492 89.301 170.617 89.6502 170.627 89.8542C170.661 90.5507 170.645 91.2496 170.649 91.9475C170.675 92.0974 170.672 92.2506 170.641 92.3995C170.536 92.6007 170.412 92.7917 170.271 92.9703C170.103 92.7977 169.967 92.5978 169.866 92.3792C169.834 92.097 169.828 91.8124 169.85 91.5292C169.83 91.3799 169.796 91.2328 169.748 91.0897L169.578 91.095C169.525 91.4322 169.456 91.7678 169.422 92.1069C169.384 92.4859 169.551 92.9303 168.853 92.909C168.544 92.8995 168.241 93.2504 167.909 93.3574C166.946 93.668 165.973 93.9483 164.995 94.2087C164.89 94.2367 164.613 94.0567 164.613 93.9722C164.606 92.5705 164.63 91.1686 164.647 89.767C164.716 89.9438 164.794 90.1177 164.853 90.2977C165.009 90.775 165.157 91.255 165.309 91.7338L165.485 91.6907L165.209 92.1317L165.268 92.3175L166.36 92.153C166.248 91.8958 166.138 91.6382 166.023 91.3821C166.009 91.3486 165.96 91.3258 165.955 91.2932C165.862 90.9526 165.814 90.6016 165.812 90.2487C165.82 90.1522 166.251 90.1036 166.479 90.0117C166.582 89.9553 166.676 89.8862 166.762 89.806C166.679 89.7247 166.592 89.6494 166.499 89.5807C166.017 89.2717 165.523 88.9795 165.052 88.6547C164.979 88.604 165 88.416 164.977 88.2915Z" fill="#FCBF02"/>
<path d="M177.528 99.7496C177.528 100.624 177.54 101.499 177.519 102.373C177.514 102.553 177.411 102.863 177.31 102.881C177.074 102.886 176.839 102.845 176.619 102.76C176.428 102.716 176.241 102.652 176.049 102.616C175.256 102.468 174.462 102.33 173.671 102.179C173.634 102.169 173.601 102.15 173.574 102.124C173.546 102.099 173.525 102.067 173.512 102.031C173.457 101.499 173.416 100.965 173.377 100.431C173.373 100.38 173.447 100.302 173.429 100.275C173.034 99.6975 173.522 99.1615 173.522 98.6C173.522 98.2672 173.854 97.9426 173.888 97.5997C173.942 97.0487 174.306 97.1712 174.644 97.0869C175.277 96.9287 175.887 96.6753 176.511 96.4779C177.258 96.2419 177.533 96.4567 177.53 97.2392C177.526 98.076 177.529 98.9128 177.528 99.7496ZM174.451 101.323C175.33 101.938 175.33 101.938 175.97 101.116C175.933 100.638 175.868 100.162 175.773 99.6925C175.7 99.4518 175.544 99.2447 175.333 99.1073C175.235 99.0466 174.837 99.2182 174.826 99.3137C174.754 99.6812 174.774 100.061 174.886 100.418C175.184 101.096 175.224 101.091 174.451 101.323V101.323Z" fill="#FCBF02"/>
<path d="M177.172 79.7068C177.172 80.7266 177.164 81.5963 177.175 82.4658C177.184 83.2396 177.204 84.0135 177.24 84.7865C177.256 85.1284 177.131 85.2529 176.805 85.158C175.922 84.9006 175.032 84.6648 174.164 84.3629C173.886 84.266 173.736 83.8466 173.333 83.9923C173.269 83.8426 173.225 83.6854 173.201 83.5244C173.188 83.0156 173.204 82.506 173.209 81.9967C173.199 81.734 173.277 81.4755 173.432 81.263C173.587 81.0506 173.809 80.8964 174.062 80.8256C175.055 80.476 176.043 80.1137 177.172 79.7068Z" fill="#FCBF02"/>
<path d="M172.906 91.5811L172.606 92.457L172.516 92.4506C172.516 91.6719 172.507 90.8929 172.527 90.1146C172.529 90.0139 172.684 89.8258 172.754 89.8323C173.274 89.8807 173.477 89.5731 173.644 89.1564C173.687 89.0507 173.888 88.9936 174.027 88.9445C174.935 88.6241 175.847 88.3147 176.755 87.9956C177.03 87.8989 177.228 87.9625 177.233 88.2681C177.262 90.0331 177.285 91.7985 177.283 93.5637C177.283 93.9224 176.881 94.0166 176.365 93.8632C175.684 93.6606 174.988 93.506 174.308 93.2988C174.013 93.2088 173.749 93.0188 173.458 92.9104C172.975 92.7309 173.261 92.3888 173.248 92.0996C173.217 91.926 173.164 91.7571 173.09 91.5973L172.906 91.5811ZM175.713 93.0461C175.899 92.9334 176.063 92.7878 176.197 92.6164C176.394 92.3415 176.5 92.0128 176.503 91.675C176.469 91.4527 176.107 91.2522 175.855 91.1013C175.676 91.0354 175.485 91.0022 175.294 91.0032C175.327 90.8128 175.377 90.6258 175.443 90.4443C175.594 90.1145 175.477 89.6487 175.197 89.5956C174.955 89.5498 174.71 89.5212 174.5 89.49C174.537 89.7388 174.721 90.1464 174.599 90.2847C174.09 90.8616 174.293 91.5052 174.344 92.1153C174.409 92.4118 174.585 92.6721 174.836 92.8421C175.114 92.9615 175.411 93.0306 175.713 93.0461Z" fill="#87A1AC"/>
<path d="M164.755 77.0056V71.8621C165.571 72.1702 166.303 72.4221 167.014 72.7226C167.698 73.0117 168.445 73.2171 168.812 74.0213L168.916 73.9059C168.858 74.0407 168.739 74.1817 168.751 74.3095C168.844 75.239 168.112 75.4889 167.505 75.7908C166.65 76.2167 165.757 76.5678 164.755 77.0056Z" fill="#FCBF02"/>
<path d="M177.085 74.9813C177.1 76.7312 177.102 76.7254 175.874 76.3457C175.409 76.2016 174.92 76.1253 174.465 75.9558C174.027 75.776 173.602 75.5675 173.193 75.3316C173.121 75.2703 173.076 75.184 173.066 75.0903C173.002 74.8283 172.993 74.5559 173.038 74.2902C173.084 74.0244 173.184 73.7708 173.331 73.5451C173.479 73.3195 173.671 73.1265 173.897 72.9782C174.122 72.8299 174.375 72.7293 174.641 72.6828C175.177 72.517 175.698 72.3075 176.2 72.0565C176.684 71.8381 176.826 71.8949 176.875 72.4302C176.967 73.4308 177.041 74.433 177.085 74.9813Z" fill="#FCBF02"/>
<path d="M168.729 78.4311L169.307 78.7711C168.656 79.0339 168.804 79.5341 168.874 80.0843L169.336 79.8365V81.699L169.268 81.7213C169.229 81.6129 169.19 81.5043 169.15 81.3963C168.682 80.1424 168.521 80.0802 166.79 79.6853C166.102 79.4708 165.441 79.1782 164.819 78.8132C164.771 78.7614 164.736 78.6979 164.719 78.6289C164.702 78.5598 164.703 78.4876 164.722 78.4191C164.856 78.2208 165.033 78.0554 165.239 77.9351C165.516 77.7589 165.825 77.6375 166.147 77.5777C166.874 77.4954 167.434 77.039 168.089 76.8093C168.458 76.6799 168.776 76.7365 168.734 77.2708C168.707 77.6119 168.729 77.9568 168.729 78.4311Z" fill="#87A1AC"/>
<path d="M164.951 80.0894C165.426 80.1864 165.895 80.309 166.357 80.4566C167.048 80.7052 167.721 81.0015 168.37 81.3431C168.488 81.4257 168.588 81.532 168.663 81.6552C168.738 81.7785 168.786 81.916 168.805 82.0589C168.842 82.6232 168.849 83.1891 168.825 83.754C168.196 84.048 167.768 84.2579 167.332 84.449C166.548 84.7928 165.768 85.147 164.968 85.4512C164.671 85.5643 164.546 85.3773 164.669 85.0727C165.728 85.2023 166.39 84.4937 167.167 83.8924L165.978 83.1057C165.906 83.2972 165.802 83.4748 165.669 83.6304C165.594 83.6922 165.377 83.5815 165.225 83.5487C165.374 83.2771 165.484 82.8116 165.681 82.7712C166.205 82.6637 166.199 82.3534 166.139 81.9481C166.534 81.9356 166.881 81.9082 166.782 81.3938C166.609 80.4948 165.986 81.1263 165.624 80.9866C165.526 80.7932 165.397 80.6167 165.244 80.4638C165.14 80.3446 165.048 80.2146 164.951 80.0894Z" fill="#FCBF02"/>
<path d="M173.501 77.951C172.788 77.7991 172.913 77.3438 173.046 76.7886C173.688 76.9187 174.351 77.0054 174.983 77.1953C175.554 77.3873 176.111 77.621 176.647 77.8945C176.831 78.0072 177 78.1408 177.152 78.2927C177.001 78.4384 176.874 78.6379 176.694 78.7206C175.781 79.14 174.859 79.5414 173.93 79.9247C173.305 80.1824 173.087 80.0381 173.083 79.3648C173.08 78.8776 172.901 78.3317 173.501 77.951ZM174.404 79.3105C174.693 79.2655 174.979 79.201 175.259 79.1174C175.347 79.0848 175.406 78.9182 175.431 78.8026C175.44 78.7596 175.307 78.6299 175.254 78.638C174.911 78.6902 174.532 78.7126 174.404 79.3105V79.3105ZM175.608 78.0899L175.624 77.9284H174.717L174.717 78.0899H175.608Z" fill="#87A1AC"/>
<path d="M172.697 65.074C172.697 65.5239 172.723 66.0657 172.678 66.6015C172.667 66.7231 172.415 66.9158 172.269 66.9197C171.266 66.9464 170.262 66.941 169.259 66.9258C168.859 66.9197 168.618 66.7423 168.698 66.2776C168.753 65.9592 168.644 65.4864 168.818 65.3468C169.032 65.1762 169.466 65.2744 169.805 65.2697C170.41 65.2612 171.017 65.2826 171.622 65.2523C171.983 65.2138 172.342 65.1543 172.697 65.074V65.074Z" fill="#87A1AC"/>
<path d="M164.951 80.0894C165.048 80.2146 165.14 80.3446 165.244 80.4638C165.397 80.6167 165.526 80.7932 165.624 80.9866C165.986 81.1263 166.609 80.4948 166.782 81.3937C166.881 81.9082 166.534 81.9356 166.139 81.9481C166.199 82.3534 166.205 82.6637 165.681 82.7712C165.484 82.8115 165.374 83.277 165.225 83.5487C165.377 83.5815 165.594 83.6921 165.669 83.6304C165.802 83.4748 165.906 83.2972 165.978 83.1057L167.167 83.8924C166.389 84.4936 165.728 85.2023 164.669 85.0727C164.675 84.9486 164.681 84.8246 164.686 84.7008C164.701 84.0371 164.716 83.3734 164.731 82.7099C164.736 81.9824 164.73 81.2546 164.755 80.5279C164.793 80.371 164.859 80.2224 164.951 80.0894Z" fill="#E8F2ED"/>
<path d="M174.414 85.621C174.205 85.8722 174.006 86.0065 174.015 86.1249C174.046 86.3239 174.145 86.5059 174.296 86.6398C174.351 86.6907 174.6 86.6022 174.703 86.5118C174.815 86.3836 174.905 86.2388 174.971 86.0825C174.995 86.0209 175.032 85.9653 175.08 85.9197C175.127 85.8741 175.184 85.8395 175.247 85.8185C175.309 85.7975 175.376 85.7906 175.441 85.7982C175.507 85.8059 175.57 85.8279 175.626 85.8627C176.156 86.0808 176.715 86.2311 177.262 86.4099L177.306 86.5841C177.092 86.7351 176.865 86.8662 176.628 86.9761C175.653 87.3293 174.67 87.6605 173.686 87.9886C173.572 88.0267 173.367 88.0479 173.318 87.9865C173.026 87.6141 172.793 87.767 172.548 88.1243C172.503 87.9267 172.524 87.7202 172.606 87.5351C172.688 87.35 172.827 87.1961 173.003 87.0962C173.336 86.8177 173.475 86.6013 173.01 86.3165C172.958 86.261 172.921 86.1931 172.903 86.1192C172.885 86.0453 172.886 85.9681 172.907 85.8949C173.06 85.6814 173.271 85.4051 173.492 85.3711C173.812 85.3953 174.125 85.4801 174.414 85.621V85.621Z" fill="#FCBF02"/>
<path d="M167.183 86.9832C167.361 86.7349 167.493 86.4572 167.575 86.1628C167.584 86.0598 167.169 85.9157 166.856 85.739L168.639 85.2036C168.639 85.5814 168.62 85.8239 168.644 86.062C168.686 86.4741 168.784 86.8822 168.802 87.2945C168.834 87.5488 168.777 87.8065 168.641 88.0238C168.549 88.1263 168.199 88.0184 167.971 87.9715C167.673 87.8742 167.369 87.7981 167.061 87.7439C166.644 87.7202 166.239 87.7855 165.922 87.3938C165.842 87.2941 165.563 87.3791 165.401 87.3146C165.13 87.2067 164.725 87.1001 164.655 86.8971C164.532 86.5386 164.892 86.4464 165.213 86.3669C165.675 86.2529 166.119 86.0642 166.676 85.8708L166.464 86.5387L167.183 86.9832Z" fill="#87A1AC"/>
<path d="M168.469 54.5037C168.637 54.6491 168.825 54.7717 169.025 54.8683C169.355 54.9781 169.417 55.1821 169.44 55.4975C169.474 55.9459 169.535 56.3259 168.875 56.2684C168.75 56.2575 168.603 56.4925 168.466 56.614C168.082 56.7817 167.697 56.9494 167.313 57.1172C166.948 57.1783 166.798 57.0286 166.803 56.6547C166.817 55.7388 166.808 54.8225 166.808 53.8076L167.68 54.121L167.891 54.1835L168.251 54.4049L168.469 54.5037Z" fill="#E8F2ED"/>
<path d="M171.823 56.4318C171.831 55.9306 171.839 55.4293 171.846 54.928C172.49 54.6116 173.131 54.2884 173.781 53.9834C173.948 53.9234 174.12 53.8801 174.296 53.8542C174.328 54.7893 174.368 55.7242 174.383 56.6595C174.385 56.7841 174.261 56.9106 174.196 57.0363C173.707 56.8381 173.217 56.6399 172.728 56.4418C172.492 56.138 172.255 56.1399 172.017 56.4383L171.823 56.4318Z" fill="#E8F2ED"/>
<path d="M172.416 96.6596C171.223 96.8532 171.029 96.6979 171.053 95.578C171.064 95.0382 170.81 94.4068 171.485 94.0417C172.205 94.3466 172.228 94.4082 172.114 95.2119C172.116 95.4006 172.146 95.5878 172.204 95.7676L172.453 95.7398V94.1091L172.608 94.0857C172.66 94.1728 172.752 94.2583 172.756 94.3473C172.786 95.1304 172.821 95.9143 172.813 96.6976C172.804 97.5878 172.745 98.4773 172.724 99.3675C172.709 100.013 172.707 100.66 172.729 101.305C172.758 101.565 172.808 101.823 172.879 102.076C172.493 102.212 172.493 101.948 172.492 101.69C172.486 100.228 172.483 98.765 172.473 97.3022C172.472 97.1029 172.438 96.9037 172.416 96.6596ZM172.298 96.131L172.324 96.1501L172.329 96.1202L172.298 96.131Z" fill="#87A1AC"/>
<path d="M164.569 95.4351L168.745 94.1523C168.745 94.9199 168.772 95.566 168.72 96.2058C168.711 96.3197 168.352 96.5237 168.199 96.4891C167.066 96.2321 165.943 95.9268 164.818 95.6305C164.754 95.6135 164.704 95.5429 164.569 95.4351Z" fill="#FCBF02"/>
<path d="M177.345 94.9667C177.176 95.1531 177.119 95.276 177.031 95.3036C176.39 95.5063 175.744 95.6911 175.098 95.8789C174.811 95.9625 174.525 96.054 174.233 96.1162C173.997 96.1664 173.59 96.272 173.542 96.1894C173.396 95.8989 173.312 95.581 173.296 95.2561C173.277 95.0454 173.415 94.8227 173.409 94.6074C173.398 94.2209 173.629 94.1141 173.914 94.1859C174.465 94.3245 174.991 94.5606 175.544 94.6902C176.089 94.8182 176.653 94.8645 177.345 94.9667Z" fill="#FCBF02"/>
<path d="M171.224 90.2906C171.125 90.0412 171.061 89.7794 171.034 89.5125C171.038 89.4164 171.362 89.2198 171.451 89.2613C171.687 89.3507 171.881 89.5251 171.994 89.7502C172.084 90.1529 172.127 90.5645 172.124 90.977C172.143 91.3468 172.112 91.7199 172.143 92.0883C172.183 92.5656 171.982 92.8818 171.559 92.8781C171.076 92.874 170.983 92.5388 170.992 92.1366C171.001 91.7486 170.972 91.3567 171.017 90.9734C171.061 90.739 171.131 90.5101 171.224 90.2906V90.2906Z" fill="#87A1AC"/>
<path d="M172.956 57.5622L172.242 57.9968L172.742 58.2726C172.643 58.4436 172.546 58.614 172.448 58.7837C172.456 58.8009 172.465 58.8172 172.477 58.8321C172.634 58.988 172.792 59.1433 172.95 59.298C172.675 59.4899 172.375 59.6444 172.059 59.7574C171.624 59.853 171.592 59.3553 171.636 59.1813C171.821 58.4616 171.498 58.3517 170.906 58.4296C171.071 58.4028 171.233 58.3547 171.386 58.2866C171.507 58.1892 171.612 58.0744 171.698 57.9461C171.569 57.8597 171.437 57.6963 171.311 57.6998C170.635 57.7184 169.961 57.7807 169.286 57.8224C169.188 57.8194 169.09 57.8081 168.995 57.7885C169.033 57.3059 169.353 57.3834 169.651 57.3895C170.355 57.4041 171.06 57.3909 171.763 57.4147C172.102 57.4261 172.438 57.4958 172.956 57.5622Z" fill="#87A1AC"/>
<path d="M171.683 79.1669C171.727 79.278 171.761 79.3929 171.785 79.5101C171.811 79.7372 171.816 79.9669 171.834 80.2701L171.065 80.3105C171.065 79.4203 171.064 78.5643 171.067 77.7083C171.059 77.5398 171.071 77.3709 171.105 77.2056C171.17 76.9599 171.273 76.7244 171.359 76.4846L172.079 76.7717L171.661 77.224L171.954 77.5896C171.855 78.1247 171.768 78.6001 171.681 79.0753C171.605 79.0205 171.53 78.9659 171.378 78.8557L171.412 79.534L171.683 79.1669Z" fill="#87A1AC"/>
<path d="M169.877 80.4233C169.609 79.6443 170.119 78.9341 169.669 78.2691C169.626 78.2057 169.663 78.0856 169.669 77.9923C169.697 77.5716 169.721 77.1505 169.762 76.7309C169.787 76.6165 169.826 76.5054 169.877 76.4001C170.716 76.778 170.54 77.4829 170.533 78.1001C170.531 78.7217 170.478 79.3421 170.376 79.9553C170.345 80.1363 170.048 80.2712 169.877 80.4233Z" fill="#87A1AC"/>
<path d="M170.532 82.6109C170.532 83.0096 170.552 83.41 170.519 83.8059C170.497 83.87 170.46 83.9275 170.41 83.9731C170.36 84.0186 170.299 84.0506 170.234 84.0661C170.121 84.0732 169.901 83.9402 169.898 83.8617C169.868 83.0802 169.858 82.2968 169.886 81.5156C169.89 81.4162 170.138 81.2713 170.285 81.2539C170.362 81.2449 170.532 81.4601 170.546 81.5866C170.568 81.9276 170.573 82.2695 170.558 82.6109L170.532 82.6109Z" fill="#87A1AC"/>
<path d="M171.679 86.1786C172.175 86.4605 172.158 86.8477 171.848 87.2502C171.756 87.3707 171.558 87.5319 171.463 87.5017C171.297 87.4489 171.06 87.2696 171.052 87.1308C171.016 86.6285 171.035 86.1236 171.111 85.6256C171.191 85.4014 171.351 85.2151 171.561 85.103C171.625 85.0628 171.968 85.2693 171.972 85.3731C171.944 85.592 171.875 85.8036 171.768 85.9967C171.749 86.0475 171.72 86.0948 171.679 86.1786Z" fill="#87A1AC"/>
<path d="M169.346 63.1301C169.649 64.1549 170.327 63.8494 170.894 63.8643C171.167 63.8715 171.44 63.8655 171.812 63.8655L171.487 64.3697L171.827 64.5404L171.797 64.6794C171.519 64.623 171.102 64.6587 170.991 64.4915C170.736 64.1053 170.568 64.1945 170.272 64.3989C170.002 64.5858 169.632 64.8056 169.383 64.4291C169.268 64.2332 169.205 64.0114 169.198 63.7844C169.192 63.5573 169.243 63.3323 169.346 63.1301V63.1301Z" fill="#87A1AC"/>
<path d="M171.813 83.9876C171.572 83.9174 171.362 83.7668 171.218 83.5609C171.073 83.3549 171.004 83.1059 171.02 82.855C171.033 82.451 171.039 82.0448 171.09 81.6451C171.11 81.4949 171.251 81.3604 171.336 81.2188C171.464 81.3254 171.71 81.4421 171.701 81.537C171.645 82.19 172.145 82.8259 171.75 83.4928C171.689 83.5975 171.785 83.7958 171.813 83.9876Z" fill="#87A1AC"/>
<path d="M171.366 73.6531C171.667 73.8128 171.943 74.0172 172.183 74.2593C172.25 74.3478 171.973 74.6909 171.857 74.9199C171.813 75.0072 171.787 75.1038 171.741 75.1898C171.68 75.303 171.616 75.4919 171.537 75.5004C171.417 75.5134 171.182 75.4154 171.171 75.339C171.104 74.86 171.066 74.3772 171.058 73.8935C171.057 73.822 171.241 73.7466 171.366 73.6531Z" fill="#87A1AC"/>
<path d="M169.942 94.0815L170.529 94.1963C170.569 94.9169 170.629 95.6456 170.625 96.3739C170.625 96.4789 170.32 96.6487 170.148 96.6602C170.053 96.6665 169.834 96.2965 169.85 96.2804C170.467 95.6792 169.777 95.0577 169.891 94.4583C169.914 94.3382 169.924 94.2156 169.942 94.0815Z" fill="#87A1AC"/>
<path d="M169.938 86.8588C169.917 86.4393 169.871 86.0187 169.89 85.6011C169.896 85.4686 170.077 85.344 170.178 85.2158C170.297 85.3523 170.498 85.4767 170.52 85.6276C170.567 86.0377 170.585 86.4505 170.575 86.8631C170.576 87.1115 170.666 87.4803 170.24 87.4108C170.057 87.3809 169.91 87.1259 169.747 86.9731L169.938 86.8588Z" fill="#87A1AC"/>
<path d="M170.752 74.3034L170.132 74.9223C170 74.7698 169.729 74.5681 169.763 74.4742C169.894 74.1966 170.058 73.9361 170.253 73.6985L170.752 74.3034Z" fill="#87A1AC"/>
<path d="M166.22 67.6981C166.024 66.92 166.046 66.7907 166.446 66.47C166.599 66.759 166.722 67.0632 166.813 67.3778C166.825 67.4393 166.442 67.5821 166.22 67.6981Z" fill="#87A1AC"/>
<path d="M164.859 68.5631C164.54 68.178 164.693 67.4904 164.949 67.413C165.031 67.3881 165.292 67.6162 165.276 67.659C165.154 67.9677 165.014 68.2695 164.859 68.5631Z" fill="#87A1AC"/>
<path d="M169.14 88.0942C169.317 88.3455 169.412 88.6456 169.412 88.9532C169.412 89.2608 169.317 89.5609 169.14 89.8122V88.0942Z" fill="#87A1AC"/>
<path d="M170.667 104.057C170.024 104.096 169.896 103.843 169.973 103.47C169.998 103.348 170.154 103.253 170.25 103.146L170.667 104.057Z" fill="#F59E04"/>
<path d="M164.731 82.71C164.716 83.3736 164.701 84.0372 164.686 84.7009C164.701 84.0373 164.716 83.3736 164.731 82.71Z" fill="#87A1AC"/>
<path d="M171.65 57.0826C171.891 56.4788 171.941 56.4718 172.805 56.908L171.65 57.0826Z" fill="#87A1AC"/>
<path d="M171.109 87.9103L172.072 87.5381C172.001 87.8237 171.989 88.1083 171.915 88.1255C171.654 88.1623 171.389 88.1698 171.126 88.1478L171.109 87.9103Z" fill="#87A1AC"/>
<path d="M171.596 63.2469H170.131L170.133 63.1387H171.599L171.596 63.2469Z" fill="#87A1AC"/>
<path d="M173.968 61.4828L174.582 61.5663C174.177 61.9005 174.128 61.8869 173.975 61.4761L173.968 61.4828Z" fill="#87A1AC"/>
<path d="M172.017 56.4382C172.255 56.1398 172.492 56.1379 172.728 56.4417L172.017 56.4382Z" fill="#87A1AC"/>
<path d="M171.683 79.1667L171.413 79.5338L171.378 78.8555C171.53 78.9657 171.606 79.0203 171.681 79.0751C171.693 79.1044 171.693 79.1368 171.683 79.1667V79.1667Z" fill="#E8F2ED"/>
<path d="M164.809 88.2795C164.758 88.5303 164.708 88.781 164.658 89.0318C164.708 88.7811 164.759 88.5304 164.809 88.2795Z" fill="#87A1AC"/>
<path d="M178.18 77.5188C178.202 77.541 178.224 77.5625 178.246 77.584C178.222 77.604 178.196 77.622 178.169 77.638C178.165 77.6405 178.132 77.6104 178.135 77.6034C178.148 77.5739 178.163 77.5456 178.18 77.5188V77.5188Z" fill="#87A1AC"/>
<path d="M166.199 50.3023C166.183 49.7514 165.543 49.3105 166.186 48.7798C166.337 48.647 166.529 48.5705 166.73 48.5633C166.931 48.5561 167.128 48.6186 167.288 48.7402C167.384 48.8019 167.465 48.8841 167.525 48.9808C167.585 49.0776 167.624 49.1865 167.637 49.2998C167.608 49.6943 167.318 49.8987 166.907 49.9611C166.657 50.0437 166.419 50.1584 166.199 50.3023V50.3023Z" fill="#87A1AC"/>
<path d="M168.251 54.405L167.891 54.1836L168.251 54.405Z" fill="#87A1AC"/>
<path d="M169.298 62.0132L171.855 61.7141C171.674 61.9598 171.558 62.2685 171.422 62.2777C170.803 62.3025 170.184 62.2955 169.566 62.2568C169.513 62.2549 169.463 62.1675 169.298 62.0132Z" fill="#394C58"/>
<path d="M168.534 61.9507L169.164 62.0132L169.15 62.2288L168.509 62.1986L168.534 61.9507Z" fill="#394C58"/>
<path d="M167.806 61.4845C167.843 61.4759 167.88 61.4737 167.917 61.478C168.063 61.5238 168.206 61.5768 168.35 61.6271L168.206 61.8304L167.814 61.4762L167.806 61.4845Z" fill="#394C58"/>
<path d="M165.399 102.714C165.169 101.682 164.72 100.625 164.902 99.3466C165.183 99.4993 165.502 99.5647 165.82 99.5344C166.138 99.5041 166.44 99.3795 166.686 99.1765C166.768 99.254 166.82 99.2801 166.819 99.3053C166.778 99.6449 166.849 99.9885 167.021 100.284C167.192 100.58 167.455 100.813 167.77 100.946C167.989 101.048 168.068 101.385 167.634 101.574C166.89 101.898 166.184 102.308 165.399 102.714Z" fill="#E8F2ED"/>
<path d="M170.042 99.0096L170.444 98.9294L170.467 99.2361L170.058 99.2074L170.042 99.0096Z" fill="#E8F2ED"/>
<path d="M170.474 98.4076C170.388 98.4608 170.317 98.5309 170.288 98.5165C170.234 98.4905 170.166 98.4064 170.175 98.361C170.186 98.3096 170.27 98.2541 170.331 98.2408C170.359 98.2347 170.407 98.3265 170.474 98.4076Z" fill="#E8F2ED"/>
<path d="M168.836 56.6846L169.025 56.6321L169.019 56.7236C168.957 56.7083 168.894 56.6931 168.832 56.6778L168.836 56.6846Z" fill="#394C58"/>
<path d="M174.451 101.323C175.224 101.091 175.184 101.095 174.886 100.418C174.774 100.061 174.753 99.681 174.826 99.3136C174.837 99.2181 175.234 99.0465 175.332 99.1072C175.543 99.2446 175.699 99.4517 175.773 99.6924C175.868 100.162 175.933 100.638 175.97 101.116C175.33 101.937 175.33 101.937 174.451 101.323Z" fill="#E8F2ED"/>
<path d="M175.712 93.0461C175.41 93.0306 175.114 92.9615 174.836 92.8421C174.585 92.6721 174.408 92.4118 174.344 92.1153C174.293 91.5052 174.09 90.8616 174.598 90.2847C174.72 90.1464 174.537 89.7388 174.499 89.49C174.71 89.5212 174.955 89.5499 175.196 89.5956C175.477 89.6487 175.594 90.1145 175.443 90.4443C175.376 90.6258 175.327 90.8128 175.293 91.0032C175.485 91.0022 175.675 91.0354 175.855 91.1014C176.107 91.2522 176.469 91.4527 176.502 91.675C176.5 92.0128 176.393 92.3415 176.197 92.6165C176.063 92.7878 175.899 92.9334 175.712 93.0461Z" fill="#E8F2ED"/>
<path d="M174.404 79.3105C174.532 78.7126 174.911 78.6903 175.254 78.6381C175.307 78.6299 175.44 78.7596 175.431 78.8026C175.406 78.9183 175.347 79.0848 175.259 79.1174C174.979 79.201 174.693 79.2656 174.404 79.3105V79.3105Z" fill="#E8F2ED"/>
<path d="M175.607 78.09H174.717L174.717 77.9285H175.624L175.607 78.09Z" fill="#E8F2ED"/>
<path d="M172.298 96.1312L172.329 96.1204L172.325 96.1508L172.298 96.1312Z" fill="#394C58"/>
<path d="M164.755 71.4155H163.49V104.549H164.755V71.4155Z" fill="#F59E04"/>
<path d="M178.191 71.8621H176.94V105.107H178.191V71.8621Z" fill="#F59E04"/>
<path d="M169.94 72.5615H168.839V89.8375H169.94V72.5615Z" fill="#F59E04"/>
<path d="M173.196 72.5615H172.148V89.49H173.196V72.5615Z" fill="#F59E04"/>
<path d="M169.043 89.8374H168.839V102.714H169.043V89.8374Z" fill="#F59E04"/>
<path d="M169.94 89.8374H169.412V102.507H169.94V89.8374Z" fill="#F59E04"/>
<path d="M171.2 89.49H170.667V102.113H171.2V89.49Z" fill="#F59E04"/>
<path d="M172.514 89.7502H171.995V102.507H172.514V89.7502Z" fill="#F59E04"/>
<path d="M172.073 87.3906L170.823 88.0088L171.19 88.7508L172.44 88.1326L172.073 87.3906Z" fill="#F59E04"/>
<path d="M164.755 71.6353V77.0055L168.051 75.4666C168.051 75.4666 169.825 74.4847 168.051 73.006L164.755 71.6353Z" fill="#FCBF02"/>
<path d="M164.755 80.0247V85.8708L168.051 84.1956C168.051 84.1956 169.825 83.1266 168.051 81.5169L164.755 80.0247Z" fill="#FCBF02"/>
<path d="M176.924 71.6353V77.0055L173.493 75.4667C173.493 75.4667 171.645 74.4847 173.493 73.006L176.924 71.6353Z" fill="#FCBF02"/>
<path d="M176.924 79.6528V85.7951L173.493 84.0351C173.493 84.0351 171.645 82.912 173.493 81.2207L176.924 79.6528Z" fill="#FCBF02"/>
<path d="M164.686 87.7815V94.4229L168.853 92.9646L168.838 89.5257L164.686 87.7815Z" fill="#FCBF02"/>
<path d="M176.924 87.7815V94.2116L172.672 92.7996L172.686 89.4703L176.924 87.7815Z" fill="#FCBF02"/>
<path d="M176.94 94.9418C175.541 94.398 174.32 94.4927 172.883 93.9338C172.883 94.8999 172.863 95.3262 172.915 96.1314C172.96 96.2326 173.032 96.3194 173.124 96.3823C173.215 96.4452 173.322 96.4817 173.432 96.4879C174.56 96.1645 175.676 95.7802 176.794 95.4073C176.858 95.386 176.806 95.0775 176.94 94.9418Z" fill="#FCBF02"/>
<path d="M168.853 76.4001V80.865L164.978 78.9742C164.978 78.9742 164.325 78.6573 164.978 77.9286" fill="#FCBF02"/>
<path d="M172.906 76.2095V80.6743L176.781 78.7835C176.781 78.7835 177.434 78.4667 176.781 77.7379" fill="#FCBF02"/>
<path d="M168.853 84.8547L168.804 88.6557L164.755 87.1899V86.5532L168.853 84.8547Z" fill="#FCBF02"/>
<path d="M172.75 84.6641L172.798 88.465L176.847 86.9993V86.3625L172.75 84.6641Z" fill="#FCBF02"/>
<path d="M164.731 96.6602L164.755 103.417L168.943 102.292L168.941 97.5365L164.731 96.6602Z" fill="#FCBF02"/>
<path d="M177.195 96.2607L177.171 103.017L172.983 101.892L172.985 97.1371L177.195 96.2607Z" fill="#FCBF02"/>
<path d="M169.043 89.2556V102.89L169.648 102.714L169.522 89.2556H169.043Z" fill="#F59E04"/>
<path d="M172.88 93.9341L172.906 102.507H172.298L172.313 93.9341H172.88Z" fill="#F59E04"/>
<path d="M168.389 103.146C168.389 103.146 162.939 109.551 168.389 109.551H173.838L173.546 102.89C173.546 102.89 170.14 102.43 168.389 103.146Z" fill="#F59E04"/>
<path d="M171.995 97.8336C171.995 97.589 171.797 97.3906 171.552 97.3906C171.307 97.3906 171.109 97.589 171.109 97.8336V101.91C171.109 102.155 171.307 102.353 171.552 102.353C171.797 102.353 171.995 102.155 171.995 101.91V97.8336Z" fill="#FCBF02"/>
<path d="M170.767 97.8336C170.767 97.589 170.569 97.3906 170.324 97.3906C170.08 97.3906 169.881 97.589 169.881 97.8336V101.91C169.881 102.155 170.08 102.353 170.324 102.353C170.569 102.353 170.767 102.155 170.767 101.91V97.8336Z" fill="#FCBF02"/>
<path d="M171.995 94.3769C171.995 94.1322 171.797 93.9338 171.552 93.9338C171.307 93.9338 171.109 94.1322 171.109 94.3769V96.38C171.109 96.6247 171.307 96.8231 171.552 96.8231C171.797 96.8231 171.995 96.6247 171.995 96.38V94.3769Z" fill="#FCBF02"/>
<path d="M170.767 94.3769C170.767 94.1322 170.569 93.9338 170.324 93.9338C170.08 93.9338 169.881 94.1322 169.881 94.3769V96.38C169.881 96.6247 170.08 96.8231 170.324 96.8231C170.569 96.8231 170.767 96.6247 170.767 96.38V94.3769Z" fill="#FCBF02"/>
<path d="M171.506 89.1035H171.506C171.236 89.1035 171.017 89.3223 171.017 89.5922V92.5573C171.017 92.8272 171.236 93.046 171.506 93.046H171.506C171.776 93.046 171.995 92.8272 171.995 92.5573V89.5922C171.995 89.3223 171.776 89.1035 171.506 89.1035Z" fill="#FCBF02"/>
<path d="M170.767 89.5465C170.767 89.3019 170.569 89.1035 170.324 89.1035C170.08 89.1035 169.881 89.3019 169.881 89.5465V92.603C169.881 92.8477 170.08 93.046 170.324 93.046C170.569 93.046 170.767 92.8477 170.767 92.603V89.5465Z" fill="#FCBF02"/>
<path d="M171.548 84.6638H171.548C171.265 84.6638 171.036 84.8931 171.036 85.1759V88.0942C171.036 88.377 171.265 88.6063 171.548 88.6063H171.548C171.831 88.6063 172.06 88.377 172.06 88.0942V85.1759C172.06 84.8931 171.831 84.6638 171.548 84.6638Z" fill="#FCBF02"/>
<path d="M170.767 85.1068C170.767 84.8622 170.569 84.6638 170.324 84.6638C170.08 84.6638 169.881 84.8622 169.881 85.1068V88.1633C169.881 88.408 170.08 88.6063 170.324 88.6063C170.569 88.6063 170.767 88.408 170.767 88.1633V85.1068Z" fill="#FCBF02"/>
<path d="M171.548 81.2534H171.548C171.265 81.2534 171.036 81.4827 171.036 81.7655V83.7407C171.036 84.0235 171.265 84.2528 171.548 84.2528H171.548C171.831 84.2528 172.06 84.0235 172.06 83.7407V81.7655C172.06 81.4827 171.831 81.2534 171.548 81.2534Z" fill="#FCBF02"/>
<path d="M170.767 81.6964C170.767 81.4518 170.569 81.2534 170.324 81.2534C170.08 81.2534 169.881 81.4518 169.881 81.6964V83.8098C169.881 84.0544 170.08 84.2528 170.324 84.2528C170.569 84.2528 170.767 84.0544 170.767 83.8098V81.6964Z" fill="#FCBF02"/>
<path d="M171.597 76.3076H171.597C171.314 76.3076 171.085 76.5369 171.085 76.8197V79.9616C171.085 80.2444 171.314 80.4737 171.597 80.4737H171.597C171.88 80.4737 172.109 80.2444 172.109 79.9616V76.8197C172.109 76.5369 171.88 76.3076 171.597 76.3076Z" fill="#FCBF02"/>
<path d="M170.817 76.7506C170.817 76.506 170.618 76.3076 170.374 76.3076C170.129 76.3076 169.931 76.506 169.931 76.7506V80.0307C169.931 80.2753 170.129 80.4737 170.374 80.4737C170.618 80.4737 170.817 80.2753 170.817 80.0307V76.7506Z" fill="#FCBF02"/>
<path d="M171.597 73.2913H171.597C171.314 73.2913 171.085 73.5205 171.085 73.8033V75.2695C171.085 75.5523 171.314 75.7816 171.597 75.7816H171.597C171.88 75.7816 172.109 75.5523 172.109 75.2695V73.8033C172.109 73.5205 171.88 73.2913 171.597 73.2913Z" fill="#FCBF02"/>
<path d="M170.817 73.7343C170.817 73.4896 170.618 73.2913 170.374 73.2913C170.129 73.2913 169.931 73.4896 169.931 73.7343V75.3386C169.931 75.5833 170.129 75.7816 170.374 75.7816C170.618 75.7816 170.817 75.5833 170.817 75.3386V73.7343Z" fill="#FCBF02"/>
<path d="M172.687 89.4705L172.672 92.7997L172.255 93.0462L172.298 89.7505L172.687 89.4705Z" fill="#F59E04"/>
<path d="M164.169 69.6749L164.979 65.6205H167.124L165.9 61.0102L166.366 57.6043L170.515 55.7456L177.9 58.9423L173.968 68.4098L164.169 69.6749Z" fill="#394C58"/>
<path d="M163.109 71.4154V59.1984L170.515 55.7456L178.191 58.9423V70.7712L163.109 71.4154Z" fill="#F59E04"/>
<path d="M163.589 58.3977H159.015V103.603H163.589V58.3977Z" fill="#FFCD0B"/>
<path d="M181.805 56.3279H178.19V95.2253H181.805V56.3279Z" fill="#FFCD0B"/>
<path d="M178.197 103.417H179.659L181.999 104.542L182.234 108.797L182.66 109.551H178.135L178.197 103.417Z" fill="#F59E04"/>
<path d="M163.86 103.417H162.399L160.059 104.542L159.823 108.797L159.397 109.551H163.923L163.86 103.417Z" fill="#F59E04"/>
<path d="M178.135 109.551L178.191 103.417H179.499" fill="#F59E04"/>
<path d="M164.292 58.5755L164.219 51.6071V50.3021C164.219 50.3021 165.514 48.3798 166.813 50.3021V57.5163L164.292 58.5755Z" fill="#FCBF02"/>
<path d="M176.917 58.3714L176.99 51.403V50.098C176.99 50.098 175.696 48.1757 174.396 50.098V57.198L176.917 58.3714Z" fill="#FCBF02"/>
<path d="M166.77 53.6846L169.516 54.6371V56.2141L166.813 57.5164L166.77 53.6846Z" fill="#FFCD0B"/>
<path d="M174.383 53.7026L174.396 57.198L171.65 56.2136V54.8798L174.383 53.7026Z" fill="#FFCD0B"/>
<path d="M169.516 56.2141L169.298 45.2184C169.298 45.2184 170.37 43.5642 171.65 45.2184V56.2137L170.474 55.6382L169.516 56.2141Z" fill="#FCBF02"/>
<path d="M166.814 50.302C166.557 49.9111 166.178 49.616 165.737 49.4625L165.948 48.4537L167.538 48.2834L168.073 49.1673L167.773 50.1404L166.814 50.302Z" fill="#F59E04"/>
</svg>
