<svg width="163" height="260" viewBox="8 0 150 252" fill="none" xmlns="http://www.w3.org/2000/svg">
<g filter="url(#filter0_d)">
<g style="mix-blend-mode:overlay" opacity="0.95">
<path d="M72.2806 82.4549L66.6583 1L124.006 21.1503H158.302V45.2281L151.555 61.4508L91.7713 102.605L120.633 139.661L24.8657 238.534L72.2806 82.4549Z" fill="#0A1265"/>
<path d="M72.2806 82.4549L66.6583 1L124.006 21.1503M72.2806 82.4549L124.006 21.1503M72.2806 82.4549L24.8657 238.534L120.633 139.661L91.7713 102.605L151.555 61.4508L158.302 45.2281V21.1503H124.006" stroke="#0A1265"/>
<path d="M57.6626 251L122.132 137.612L136 159.299L130.19 218.213L83.5253 242.633L57.6626 251Z" fill="#082452" stroke="#082452"/>
<path d="M72.2805 82.2842L66.6582 1L124.006 21.1503L72.2805 82.2842Z" fill="#101E7E" stroke="#091366"/>
<path d="M5 162.715L72.4678 82.4551L25.0529 238.364L5 226.751V162.715Z" fill="#060D4A" stroke="#060D4A"/>
<path d="M134.126 156.738L120.632 139.661L91.771 102.435L151.555 61.4509L134.126 156.738Z" fill="#183A7E" stroke="#183A7E"/>
<path d="M156.802 77.8442L151.555 62.1338L117.259 245.365L156.802 250.658V77.8442Z" fill="#15346F" stroke="#15346F"/>
</g>
</g>
<defs>
<filter id="filter0_d" x="0.5" y="0.276367" width="162.302" height="259.596" filterUnits="userSpaceOnUse" color-interpolation-filters="sRGB">
<feFlood flood-opacity="0" result="BackgroundImageFix"/>
<feColorMatrix in="SourceAlpha" type="matrix" values="0 0 0 0 0 0 0 0 0 0 0 0 0 0 0 0 0 0 127 0" result="hardAlpha"/>
<feOffset dy="4"/>
<feGaussianBlur stdDeviation="2"/>
<feComposite in2="hardAlpha" operator="out"/>
<feColorMatrix type="matrix" values="0 0 0 0 0 0 0 0 0 0 0 0 0 0 0 0 0 0 0.25 0"/>
<feBlend mode="normal" in2="BackgroundImageFix" result="effect1_dropShadow"/>
<feBlend mode="normal" in="SourceGraphic" in2="effect1_dropShadow" result="shape"/>
</filter>
</defs>
</svg>
