<svg width="315" height="564" viewBox="0 0 315 564" fill="none" xmlns="http://www.w3.org/2000/svg">
<g opacity="0.7">
<path d="M138.807 184.111L127.291 1L244.753 46.2978H315V100.425L301.181 136.893L178.729 229.408L237.843 312.71L41.6895 534.977L138.807 184.111Z" fill="#143872"/>
<path d="M108.865 563L240.914 308.104L269.32 356.857L257.421 489.295L161.839 544.19L108.865 563Z" fill="#082452" stroke="#082452"/>
<path d="M138.807 183.727L127.291 1L244.753 46.2978L138.807 183.727Z" fill="#305A90" stroke="#305A90"/>
<path d="M1 364.534L139.191 184.111L42.0733 534.593L1 508.489V364.534Z" fill="#082452" stroke="#082452"/>
<path d="M265.482 351.098L237.843 312.711L178.729 229.025L301.181 136.894L265.482 351.098Z" fill="#7AA491" stroke="#7AA491"/>
<path d="M311.929 173.746L301.181 138.429L230.934 550.332L311.929 562.232V173.746Z" fill="#00937F" stroke="#00937F"/>
</g>
</svg>
